<?xml version="1.0" encoding="UTF-8"?>
<svg xmlns="http://www.w3.org/2000/svg" version="1.1" viewBox="0 0 1024 1024">
  <defs>
    <style>
      .cls-1 {
        fill: #ede4c9;
      }

      .cls-2 {
        fill: #f0ecd5;
      }

      .cls-3 {
        fill: #071821;
      }

      .cls-4 {
        fill: #fff;
      }

      .cls-5 {
        fill: #f6f7f3;
      }

      .cls-6 {
        fill: #112c39;
      }

      .cls-7 {
        fill: #e5dfc1;
      }

      .cls-8 {
        fill: #0b222e;
      }

      .cls-9 {
        fill: #1c3744;
      }

      .cls-10 {
        fill: #f9f9f5;
      }

      .cls-11 {
        fill: #edebd5;
      }

      .cls-12 {
        fill: #538a86;
      }

      .cls-13 {
        fill: #f2f8f1;
      }

      .cls-14 {
        fill: #102a38;
      }

      .cls-15 {
        fill: #666;
      }

      .cls-16 {
        fill: #f2edd6;
      }

      .cls-17 {
        fill: #b4cce4;
      }

      .cls-18 {
        fill: #0f2b39;
      }

      .cls-19 {
        fill: #bf6c42;
      }

      .cls-20 {
        fill: #1d343d;
      }

      .cls-21 {
        fill: #e5e4de;
      }

      .cls-22 {
        display: none;
      }

      .cls-23 {
        fill: #e6e0c1;
      }

      .cls-24 {
        fill: #e5dfc0;
      }

      .cls-25 {
        fill: #b06039;
      }

      .cls-26 {
        fill: #c06f48;
      }

      .cls-27 {
        fill: #0f2a38;
      }

      .cls-28 {
        fill: #f3f4ef;
      }

      .cls-29 {
        fill: #f3f3e5;
      }

      .cls-30 {
        fill: #c5c9bf;
      }

      .cls-31 {
        fill: #f0ebd1;
      }

      .cls-32 {
        fill: #0d2733;
      }

      .cls-33 {
        fill: #efe7cd;
      }

      .cls-34 {
        fill: #e4b09b;
      }

      .cls-35 {
        fill: #f0ebd3;
      }

      .cls-36 {
        fill: #eeefe3;
      }
    </style>
  </defs>
  <!-- Generator: Adobe Illustrator 28.7.5, SVG Export Plug-In . SVG Version: 1.2.0 Build 176)  -->
  <g>
    <g id="Layer_3">
      <polygon class="cls-4" points="105.8 260.8 490.2 60.9 922.3 277.5 927.3 720.1 510.6 969.9 104.6 756.1 105.8 260.8"/>
      <rect class="cls-34" x="756.4" y="572.9" width="136.7" height="136.7" transform="translate(1649.4 1282.6) rotate(180)"/>
      <rect class="cls-17" x="604.8" y="572.9" width="136.7" height="136.7" transform="translate(1346.3 1282.6) rotate(180)"/>
      <rect class="cls-15" x="453.3" y="572.9" width="136.7" height="136.7" transform="translate(1043.2 1282.6) rotate(180)"/>
      <rect class="cls-17" x="150.2" y="572.9" width="136.7" height="136.7" transform="translate(437.1 1282.6) rotate(180)"/>
      <rect class="cls-34" x="756.4" y="421.4" width="136.7" height="136.7" transform="translate(1649.6 979.5) rotate(180)"/>
      <rect class="cls-34" x="604.9" y="421.4" width="136.7" height="136.7" transform="translate(1346.5 979.5) rotate(180)"/>
      <rect class="cls-34" x="453.3" y="421.4" width="136.7" height="136.7" transform="translate(1043.4 979.5) rotate(180)"/>
      <rect class="cls-34" x="301.8" y="421.4" width="136.7" height="136.7" transform="translate(740.3 979.5) rotate(180)"/>
      <rect class="cls-17" x="150.2" y="421.4" width="136.7" height="136.7" transform="translate(437.2 979.5) rotate(180)"/>
      <rect class="cls-17" x="756.3" y="269.9" width="136.7" height="136.7" transform="translate(1649.3 676.4) rotate(180)"/>
      <rect class="cls-34" x="453.2" y="269.9" width="136.7" height="136.7" transform="translate(1043.1 676.4) rotate(180)"/>
      <rect class="cls-34" x="150.1" y="269.9" width="136.7" height="136.7" transform="translate(436.9 676.4) rotate(180)"/>
      <rect class="cls-17" x="604.8" y="118.3" width="136.7" height="136.7" transform="translate(1346.3 373.3) rotate(180)"/>
      <rect class="cls-17" x="453.3" y="118.3" width="136.7" height="136.7" transform="translate(1043.2 373.3) rotate(180)"/>
      <rect class="cls-34" x="301.7" y="118.3" width="136.7" height="136.7" transform="translate(740.2 373.3) rotate(180)"/>
      <polygon class="cls-17" points="893 772 893.1 772 893.1 724.5 756.4 724.5 756.4 851.4 893 772"/>
      <polygon class="cls-34" points="273.2 118.3 150.2 239.7 150.2 239.6 150.2 255 286.9 255 286.9 118.3 273.2 118.3"/>
    </g>
    <g id="Layer_1">
      <polygon class="cls-32" points="600.1 251.8 640.5 274.8 648 277.3 635.9 283.2 603.2 271.4 595.4 260.7 593.8 252.3 600.1 251.8"/>
      <polygon class="cls-32" points="596.5 338.7 625.6 345.8 617 355.9 593.2 355.9 596.5 338.7"/>
      <g>
        <polygon class="cls-8" points="662.1 754.2 603.8 754.2 603.8 860.5 662.1 829.3 662.1 754.2"/>
        <polygon class="cls-8" points="599.4 862.8 599.4 754.2 511.4 754.2 511.4 876.1 574.5 876.1 599.4 862.8"/>
        <polygon class="cls-8" points="506 754.2 421 754.2 421 864.7 442.1 876.1 506 876.1 506 754.2"/>
        <polygon class="cls-8" points="744.5 754.2 666.7 754.2 666.7 826.8 744.5 785.1 744.5 754.2"/>
        <polygon class="cls-8" points="750.5 754.2 750.5 781.9 802.2 754.2 750.5 754.2"/>
        <polygon class="cls-8" points="750.5 749.5 811.1 749.5 811.4 749.3 789.9 733.2 750.5 705.1 750.5 749.5"/>
        <polygon class="cls-8" points="245.5 769.1 245.5 754.2 218.3 754.2 245.5 769.1"/>
        <polygon class="cls-8" points="417 754.2 334.2 754.2 334.2 817.4 417 862.5 417 754.2"/>
        <polygon class="cls-8" points="329 754.2 250.1 754.2 250.1 771.5 329 814.5 329 754.2"/>
        <polygon class="cls-8" points="506 880 449.1 880 476.2 894.7 506 899.8 506 880"/>
        <polygon class="cls-8" points="245.5 749.5 245.5 710.4 196.2 742.2 209.6 749.5 245.5 749.5"/>
        <polygon class="cls-8" points="511.4 880 511.4 900.7 524.4 903 567.4 880 511.4 880"/>
        <polygon class="cls-8" points="250.1 749.5 329 749.5 329 656.6 251.3 706.7 250.1 707.5 250.1 749.5"/>
        <polygon class="cls-8" points="666.7 749.5 744.5 749.5 744.5 700.8 714.9 679.7 668.7 647.3 666.7 642.1 666.7 749.5"/>
        <path class="cls-8" d="M511.4,749.5h88v-64l-7.6,9.3-9.4,10.7-5,17.1-20.2,19.7s-9.1-12.4-18.1-8.9c-9,3.5-19.2,2.6-19.2,2.6l-8.4-.2v13.8Z"/>
        <polygon class="cls-8" points="334.2 749.5 417 749.5 417 679.9 412.1 674.2 375.7 651.5 351.8 642 341.2 648.7 334.2 653.2 334.2 749.5"/>
        <polygon class="cls-8" points="603.8 749.5 662.1 749.5 662.1 630.5 656.8 617.3 620.4 659.9 603.8 680.1 603.8 749.5"/>
        <polygon class="cls-8" points="421 749.5 506 749.5 506 735.5 501.7 735.4 489.6 741.1 453.4 735.9 432.8 697.9 421 684.4 421 749.5"/>
      </g>
      <path class="cls-10" d="M766.4,997.9c-.3-.5-.3-1.1-.3-1.6,0,0,.4,0,.6,0,0,.5,0,1.1-.4,1.6Z"/>
      <path class="cls-1" d="M967.4,239.7c1.1.8,2.2,1.7,3.7,2.7.5.6.7.9,1.3,1.8.4,1.2.5,1.8,0,2.3-2-2.3-3.6-4.6-5.1-6.8Z"/>
      <path class="cls-23" d="M871.7,845.3s-.6,0-1.4,0c-4.6,2.3-8.4,4.6-12.2,6.9-.6.4-1.3.8-2.6,1-2.3.9-4,2-5.6,3.2-7.4,3.8-14.8,7.5-22,11.5-12,6.5-23.9,13.1-36.6,19.4-2.4.9-4,2-5.7,3.2-5.1,2.7-10.2,5.4-16.3,8.1-3,1.4-5,2.8-7,4.1-1.5.9-3,1.8-5.2,2.4-1.4.4-2.2,1.1-2.9,1.8-10.1,5.4-20.2,10.8-31.3,16.3-1.9-.4-2.8-.9-3.7-1.4,1.5-1.5,2.8-3.6,4.6-4.4,5.1-2.3,10.7-3.6,15.5-6.3,12.7-7.3,25.2-15,37.6-22.7,1.2-.8,2-2.4,4-4.8-4.2.7-6.6,1-8.8,1,10.6-5.9,21-11.4,31.3-16.9,24.4-13,48.8-26.2,73.3-39.1,20-10.6,40.4-20.5,60.1-31.8,7.5-4.3,14.4-10.6,19.6-17.5,15.7-21.1,15.1-46.2,15.2-70.8,0-6.3-1.4-12.6-1.4-18.9,0-87.2,0-174.3,0-261.5v-63.9c0-25.1,0-50.1.5-75.1,1.4,1.7,2.4,3.4,4,6,5-10,9.1-17.5,4.6-26.7-2-4.1-2.4-9.1-3.1-13.6,1.1,0,1.7,0,2.4,0,.4.6.8,1.3,1,2.6,2,8.5,4.3,16.3,6.7,24.1.1.4,1.2.5,1.8.7,0,.6,0,1.2-.3,2.7-1.1,21.5-2.2,42.2-2.3,62.9,0,25.1.8,50.3,1.2,75.4,0,1.1-.2,2.4.2,3.4.4.9,1.6,1.3,2.4,2,0,4.2,0,8.3-.5,13.2-2.5,4.9-4.3,9.1.5,12.8,0,1.5,0,2.9-.4,5-.8,1-1.3,1.5-1.7,1.9.7.4,1.4.9,2,1.3,0,14.6,0,29.3-.5,44.7-.8,8.6-1.1,16.5-1.3,24.3,0,.2,1.2.5,1.8.8,0,1,0,2.1-.5,3.8-2.4,7-4.3,13.4.5,19.5,0,9.6,0,19.2-.5,29.6-1,1.2-1.8,1.7-1.9,2.2,0,9.7-.1,19.4,0,29.2,0,.6,1.5,1.3,2.4,1.9,0,1,0,2.1-.3,4-.1,4.7.1,8.5.4,12.4,0,3.7,0,7.4-.5,11.9-1,1.2-1.8,1.7-1.9,2.2-.6,11.5-1.4,23.1-1.5,34.6,0,8.8,1,17.6,1.2,26.5.2,13.7,0,27.4.1,41.1,0,.6,0,1.2-.6,2.4-2.9,6.9-5.3,13.2-7.6,19.6-4.1,12-14.1,18.7-23.1,26.4-1.2,1-2.6,1.8-4.1,3.1-6.7,4.1-13.1,7.7-20.6,11.4-3,1.4-5,2.8-7,4.2-.6.4-1.3.9-2.6,1-1.4.4-2.1,1.1-2.9,1.7,0,0,0,0-.4,0-1,.5-1.7,1-2.3,1.5-11.9,6.3-23.9,12.6-36.8,19-3,1.4-5,2.7-7,4.1Z"/>
      <path class="cls-1" d="M989.2,427.7c-.9,0-2-.5-2.4-1.4-.4-.9-.2-2.2-.2-3.4-.5-25.1-1.3-50.3-1.2-75.4,0-20.7,1.2-41.3,2.3-62.4.8,2.2,1.6,4.8,1.6,7.4,0,44.8,0,89.6,0,135.1Z"/>
      <path class="cls-1" d="M987,750.7c-.4-13.3-.2-27-.5-40.7-.1-8.8-1.3-17.6-1.2-26.5.1-11.5.9-23.1,1.5-34.6,0-.5.9-1,1.8-1.6.5,29.6.6,59.3.5,89,0,4.7-1.2,9.4-2.2,14.4Z"/>
      <path class="cls-1" d="M989.2,617.8c-.8,0-2.4-.6-2.4-1.3-.1-9.7,0-19.4,0-29.2,0-.5.8-1,1.8-1.6.5,10.4.6,20.9.6,32Z"/>
      <path class="cls-1" d="M989.2,531.6c-.6.4-1.8.1-1.8-.1.2-7.8.5-15.7,1.2-23.7.5,7.6.6,15.4.5,23.8Z"/>
      <path class="cls-1" d="M987.9,281.5c-.6.3-1.7.2-1.8-.2-2.4-7.8-4.7-15.6-6.6-23.7.4-.3,1-.2,1.3-.2,2.6,7.8,4.9,15.7,7.1,24.1Z"/>
      <path class="cls-1" d="M989.2,554.9c-4.8-5.4-3-11.8-.6-18.3.5,5.8.6,11.7.6,18.3Z"/>
      <path class="cls-1" d="M978.8,772.8c2-6.1,4.3-12.5,7.2-18.9-1.9,6.2-4.4,12.4-7.2,18.9Z"/>
      <path class="cls-1" d="M989.2,453.7c-4.8-3-3-7.2-.5-11.5.5,3.6.5,7.2.5,11.5Z"/>
      <path class="cls-1" d="M989.3,634.2c-.3-3.2-.5-7-.4-11.2.4,3.3.4,7,.4,11.2Z"/>
      <path class="cls-1" d="M989.2,462.1c-.7,0-1.4-.4-2.1-.8.4-.4.8-.9,1.7-1.4.4.5.4,1.1.4,2.2Z"/>
      <path class="cls-7" d="M58.3,229.3c8.6-7.5,17.1-14.5,25.8-21.9,26.7-14.4,53.2-28.4,79.7-42.5,18.1-9.6,36.1-19.3,54.1-28.9,48.2-25.5,96.5-51,144.7-76.5,27.3-14.5,54.5-29.2,81.9-43.5,7.4-3.9,15.2-6.7,23.7-9.7,21-3.9,41.4-2.7,61.8-1.7,11.2,4.3,22.4,8.6,33.3,13.3-9.1-1.2-18-2.7-26.8-4.6-3.4-.7-5.4-.4-5.7,3.5-3-1.1-5.5-2.2-7.9-3.3-15.4-7.2-30.8-6.9-45.6.8-20,10.5-39.7,21.7-59.4,32.1,2.2-4,4.3-7.4,6.7-11.3-14.2,6-27.6,11.7-41,17.5-2.4,1.1-4.5,3.1-6.8,4.5-2.7,1.6-5.5,3.2-8.3,4.6-8.4,4.3-16.9,8.4-25.3,12.7-8.8,4.5-17.6,9-26.4,13.4-8.6,4.3-17.3,8.3-25.8,12.9-10.9,5.8-21.5,12.2-32.3,18.1-8.1,4.4-16.5,8.4-24.7,12.8-18.4,10.1-36.7,20.6-55.2,30.5-14.9,8-30.2,15.3-45.1,23.2-10.9,5.8-21.2,13.3-32.5,17.9-10.9,4.4-18.8,12-26.8,19.6-5.2,4.9-8.4,11.8-12.9,17.6-3.9,5-2.6,9.3,3.6,12-1.8,5.6-3.6,10.8-5.6,15.5-3.7-1.5-7.2-2.6-10.7-4.2-.2-2.4-.5-4.2-.8-6.4-2.6.6-4.4,1-6.1,1.4,5.4-9.7,10.9-19.4,16.4-29.6Z"/>
      <path class="cls-7" d="M943.6,219.3c.4,0,.5.7.4,1.5-1.5,1.1-3.1,1.9-4.5,1.6-3.2-.7-6.3-2.3-9.5-2.9-2.9-.5-6.6-1.3-6.8,3.7-2.9-1.4-5.3-2.7-7.5-4.3.6-1.6,1-2.8,1.3-4-2.3-.4-4.7-.8-7.4-1.1-1,.5-1.7.9-2.8,1.3-17.1-8.9-33.7-17.8-50.3-26.6-20.6-10.9-41.4-21.6-62-32.6-10.4-5.5-20.5-11.5-30.6-17.8,2.7-6.9-3.1-9.3-6.6-11.3-14.9-8.6-30.3-16.2-45.4-24.5-6.9-3.8-13.6-8-20.1-12.4-1.2-.8-1.3-3.1-1.5-4.8.6,0,.8,0,1.1,0,2.4,1.3,4.9,2.5,7.9,4.3.9.9,1.2,1.1,1.7,1.2,0,0,.6,0,1.1.3.8.7,1.1.9,1.6,1,0,0,.7,0,1.1.3.8.7,1.1.9,1.6,1,0,0,.7,0,1.1.3.8.7,1.1.9,1.6,1,0,0,0,0,0,.5,5.1,2.9,10,5.3,15,7.7,0,0,0,0,0,.5,4.9,7.8,12.7,9.1,20.5,10.4,0,0,0,0,0,.5,6.9,3.8,13.7,7.1,20.5,10.5,0,0,0,0,0,.5,6.9,8.5,15.8,12.1,25.9,13.2,0,0,.7,0,1.2.3.8.7,1.1.9,1.6,1,0,0,.7,0,1.1.3.8.7,1.1.9,1.6,1,0,0,0,0,0,.5,1.9,1.1,3.7,1.7,5.4,2.2.7.4,1.3.8,2.4,1.8,1.8,1.2,3.1,1.8,4.4,2.3,0,0,.7,0,1.1.3.8.7,1.1.9,1.6,1,0,0,0,0,0,.5,1.9,1.1,3.7,1.7,5.4,2.2,0,0,.7,0,1.1.3.8.7,1.1.9,1.6,1,0,0,0,0,0,.4.9.6,1.8.7,2.7.9,1.5.8,3.1,1.6,5.2,2.9.8.9,1.2,1.1,1.7,1.2,0,0,.7,0,1.1.3.8.7,1.1.9,1.6,1,0,0,0,0,0,.5,2.8,1.5,5.5,2.6,8.2,3.6.7.4,1.3.8,2.5,1.6.8.8,1.1,1.1,1.6,1.2,0,0,0,0,0,.5,4.3,3.1,7.1,9.1,13.7,6.2,2.4,1.3,4.9,2.6,7.9,4.4.8.9,1.2,1.1,1.7,1.2,0,0,0,0,0,.5,1.9,1.1,3.6,1.7,5.4,2.2,0,0,0,0,0,.5,3.2,2,6.4,3.5,9.6,5,1.1.4,2.2.7,3.8,1.6.8.8,1.2,1.1,1.7,1.2,0,0,.7,0,1.1.3.8.7,1.1.9,1.6,1,0,0,0,0,0,.5,1.4,1.1,2.8,1.7,4.1,2.3,0,0,.6,0,1.1.3.8.7,1.1.9,1.6,1,0,0,0,0,0,.5,1.9,1.1,3.6,1.7,5.4,2.2,0,0,0,0,0,.5,6.8,10.5,18,13.1,28.3,17.2,3.2,1.3,6.7,1.8,10,2.7.6,0,1.1.1,2.1.2Z"/>
      <path class="cls-24" d="M689.9,85.3c.6,1.6.7,4,1.9,4.8,6.6,4.3,13.2,8.6,20.1,12.4,15.1,8.2,30.5,15.9,45.4,24.5,3.4,2,9.3,4.4,6.1,11.3-19.4-9.3-38.2-18.8-56.7-28.9-28.3-15.4-56.1-31.6-84.6-46.6-30-15.8-60.5-30.5-90.8-45.7-.2-4,1.8-4.3,5.2-3.6,8.8,1.8,17.7,3.3,27.1,5,.6,0,.5,0,.6.5,3.2,6.8,9.6,6.3,15,7.7,1.1.4,2.2.7,3.8,1.5.8.8,1.2,1.1,1.6,1.2,0,0,0,0,0,.5.6,6.8,6.3,6.7,10.3,8.8,15,7.8,30.1,15.7,45.2,23.5.9.5,2.2,0,3.8,0,1.1,0,1.7,0,2.3,0,0,0,.7,0,1.2.3.8.7,1.1.9,1.6,1,0,0,.7,0,1.2.3.8.7,1.1.9,1.6,1,0,0,.7,0,1.2.3.8.7,1.1.9,1.6,1,0,0,.7,0,1.2.3.8.7,1.1.9,1.6,1,0,0,0,0,0,.5,0,1.1,0,1.7,0,2.8,1.7,2.1,3.1,4.4,5.2,5.4,6.6,3.1,13.4,5.7,20.2,8.3.3.1,1.3-1.2,2.3-1.9.6,0,.8,0,1.1,0,0,0,0,0,.2.4,1,.6,1.8.8,2.6,1,0,0,.6,0,1,.4.3.4.3,1,.3,1Z"/>
      <path class="cls-7" d="M643.4,62c-1.1,0-2.5.4-3.4,0-15.1-7.8-30.1-15.7-45.2-23.5-4-2.1-9.7-2-10.2-8.8,12.2,5.6,24.5,11.7,36.7,18,7.3,3.8,14.4,8,21.9,12.8.2,1,.2,1.3.2,1.5Z"/>
      <path class="cls-23" d="M529.7,4.2c-20.1-.6-40.5-1.8-61,2.1,19.8-8,40.1-7.9,61-2.1Z"/>
      <path class="cls-23" d="M941.3,218.7c-3.1-.5-6.6-1-9.8-2.3-10.3-4.1-21.4-6.8-28.3-17.2,12.6,6.1,25.2,12.6,38.1,19.5Z"/>
      <path class="cls-7" d="M684.4,82.5c-.7.7-1.6,2-1.9,1.9-6.8-2.6-13.6-5.3-20.2-8.3-2-.9-3.4-3.2-4.7-5.3,5.1,1.3,9.8,3.1,14.5,4.9,0,0,.7,0,1.1.3.8.7,1.2.9,1.6,1,1.6.7,3.3,1.3,5.4,2.7,1.3.9,2,1.2,2.8,1.4,0,0,.7,0,1,.4.3.3.3,1,.3,1Z"/>
      <path class="cls-23" d="M790.8,138.2c-9.9-.7-18.8-4.4-25.7-12.8,8.4,3.8,16.9,8.1,25.7,12.8Z"/>
      <path class="cls-23" d="M744.4,113.5c-7.6-.9-15.4-2.3-20.3-10,6.7,2.9,13.4,6.3,20.3,10Z"/>
      <path class="cls-23" d="M764.9,124.5c-6.6-2.9-13.4-6.3-20.2-10.1,6.6,2.9,13.3,6.3,20.2,10.1Z"/>
      <path class="cls-7" d="M579,26c-5.2-1-11.7-.5-14.8-7.3,4.8,2,9.7,4.4,14.8,7.3Z"/>
      <path class="cls-23" d="M857.8,173.6c-6.2,3.2-9.1-2.8-13.4-5.9,4.3,1.5,8.7,3.5,13.4,5.9Z"/>
      <path class="cls-23" d="M672,75.2c-4.5-1.4-9.2-3.1-14.4-5-.5-.7-.5-1.3-.5-2.4,4.9,2,9.8,4.5,14.9,7.3Z"/>
      <path class="cls-23" d="M723.9,102.6c-4.8-2-9.7-4.4-14.8-7.3,4.8,2,9.7,4.4,14.8,7.3Z"/>
      <path class="cls-23" d="M882.5,187.4c-2.9-1.1-6.1-2.6-9.3-4.6,3,1.1,6,2.7,9.3,4.6Z"/>
      <path class="cls-23" d="M840.1,164.1c-2.4-.7-5.1-1.7-7.9-3.2,2.5.6,5.1,1.8,7.9,3.2Z"/>
      <path class="cls-23" d="M816.8,151.8c-1.5-.2-3.3-.8-5.2-1.9,1.6.2,3.2.8,5.2,1.9Z"/>
      <path class="cls-23" d="M801.8,143.6c-1.5-.2-3.3-.8-5.2-1.9,1.6.2,3.2.9,5.2,1.9Z"/>
      <path class="cls-23" d="M872.9,181.9c-1.5-.2-3.3-.8-5.1-1.9,1.6.2,3.2.8,5.1,1.9Z"/>
      <path class="cls-23" d="M902.9,198.3c-1.5-.2-3.3-.8-5.1-1.9,1.6.2,3.2.9,5.1,1.9Z"/>
      <path class="cls-23" d="M894.8,194.2c-1.1-.2-2.5-.8-3.9-1.9,1.2.2,2.4.8,3.9,1.9Z"/>
      <path class="cls-23" d="M808.7,147.7c-1.1-.2-2.5-.7-3.9-1.8,1.2.2,2.4.8,3.9,1.8Z"/>
      <path class="cls-23" d="M822.3,154.6c-.7.1-1.5,0-2.5-.6.7-.2,1.5,0,2.5.6Z"/>
      <path class="cls-23" d="M688.4,83.5c-.5.1-1.3-.1-2.3-.7.5-.1,1.3.1,2.3.7Z"/>
      <path class="cls-23" d="M682.9,80.8c-.5.1-1.3-.1-2.3-.7.5-.1,1.3.1,2.3.7Z"/>
      <path class="cls-23" d="M643.9,62c-.5-.2-.5-.5-.4-1.1.8-.1,1.5.1,2.5.7-.4.3-1,.4-2.1.4Z"/>
      <path class="cls-23" d="M844.3,167c-.3.2-.7,0-1.1-.7.3-.2.7,0,1.1.7Z"/>
      <path class="cls-23" d="M684.8,82.5c-.4,0-.4-.7-.4-1,.5-.3.8,0,1.3.7,0,.3-.3.3-.9.3Z"/>
      <path class="cls-23" d="M654.3,65.8c-.3.2-.7,0-1.1-.7.3-.2.7,0,1.1.7Z"/>
      <path class="cls-23" d="M811.5,149.2c-.3.2-.7,0-1.1-.7.3-.2.7,0,1.1.7Z"/>
      <path class="cls-23" d="M657,67.2c-.3.2-.6,0-1.1-.7.3-.2.7,0,1.1.7Z"/>
      <path class="cls-23" d="M796.4,141c-.3.2-.7,0-1.1-.7.3-.2.7,0,1.1.7Z"/>
      <path class="cls-23" d="M793.7,139.6c-.3.2-.7,0-1.1-.7.3-.2.7,0,1.1.7Z"/>
      <path class="cls-23" d="M674.8,76.7c-.3.2-.7,0-1.1-.7.3-.2.7,0,1.1.7Z"/>
      <path class="cls-23" d="M708.9,94.5c-.3.2-.7,0-1.1-.7.3-.2.7,0,1.1.7Z"/>
      <path class="cls-23" d="M690.3,85.2c-.4,0-.4-.7-.4-1,.5-.2.8,0,1.3.7,0,.3-.3.3-.9.3Z"/>
      <path class="cls-23" d="M706.2,93.1c-.3.2-.7,0-1.1-.7.3-.2.7,0,1.1.7Z"/>
      <path class="cls-23" d="M700.7,90.4c-.3.2-.7,0-1.1-.7.3-.2.7,0,1.1.7Z"/>
      <path class="cls-23" d="M703.5,91.8c-.3.2-.7,0-1.1-.7.3-.2.7,0,1.1.7Z"/>
      <path class="cls-23" d="M867.5,179.3c-.3.2-.7,0-1.1-.7.3-.2.7,0,1.1.7Z"/>
      <path class="cls-7" d="M584.5,28.9c-.3.2-.7,0-1.1-.7.3-.2.7,0,1.1.7Z"/>
      <path class="cls-23" d="M897.6,195.7c-.3.2-.7,0-1.1-.7.3-.2.7,0,1.1.7Z"/>
      <path class="cls-23" d="M890.7,191.6c-.3.2-.7,0-1.1-.7.3-.2.7,0,1.1.7Z"/>
      <path class="cls-23" d="M888,190.2c-.3.2-.7,0-1.1-.7.3-.2.7,0,1.1.7Z"/>
      <path class="cls-23" d="M832,160.1c-.3.2-.7,0-1.1-.7.3-.2.7,0,1.1.7Z"/>
      <path class="cls-23" d="M829.2,158.8c-.3.2-.7,0-1.1-.7.3-.2.7,0,1.1.7Z"/>
      <path class="cls-23" d="M648.8,63.1c-.3.2-.7,0-1.1-.7.3-.2.7,0,1.1.7Z"/>
      <path class="cls-23" d="M651.5,64.4c-.3.2-.7,0-1.1-.7.3-.2.7,0,1.1.7Z"/>
      <path class="cls-23" d="M819.7,153.3c-.3.2-.7,0-1.1-.7.3-.2.7,0,1.1.7Z"/>
      <path class="cls-24" d="M923.7,223.3c-.2-5.2,3.5-4.4,6.4-3.9,3.2.6,6.3,2.2,9.5,2.9,1.3.3,2.9-.5,4.5-1.3,3.1,1.5,6.2,3.5,9.5,6.3,1.1,2,2,3.1,2.9,4.7,3.5,9.2,8.7,16.4,17.9,20.3.5,1,.9,1.7,1.2,2.4,1.1,4.6,1.5,9.5,3.6,13.6,4.5,9.2.4,16.7-4.6,26.7-1.6-2.7-2.5-4.3-4-6.7-.5-5.3-.5-9.9-.2-14.7-.4-1-1-1.7-1.9-2.9-.5-2-.8-3.5-.8-5.3-1.7-5.8.3-13.2-7.6-16.3-3.6-2.7-6.6-5.4-10-7.7-8.8-6.1-17.7-12.1-26.5-18.1Z"/>
      <path class="cls-23" d="M974.2,252c-9.1-3.6-14.2-10.8-17.3-20,1.1-.5,1.7-.5,2.3-.5.4.1.8.4,1.2,1.5,2.4,2.8,4.7,4.7,7,6.6,0,0,0,0,0,0,1.5,2.2,3.1,4.5,5.1,6.8,1.1.4,1.8.8,2.7,1.3.4.7.4,1.3.1,2.5-.6,1-.9,1.4-1.2,1.7Z"/>
      <path class="cls-1" d="M967.3,239.3c-2.1-1.5-4.4-3.5-6.7-5.9,2.2,1.5,4.3,3.5,6.7,5.9Z"/>
      <path class="cls-1" d="M959,231.1c-.4.4-1,.4-2.1.4-1.3-1.1-2.2-2.2-3.1-3.8,1.7.7,3.3,1.8,5.2,3.4Z"/>
      <path class="cls-1" d="M974.4,252.4c.1-.7.4-1.1,1-1.7.9.2,1.6.6,2.5,1.2.4.7.4,1.3.5,2.4-.6.5-1.2.5-2.3.5-.8-.7-1.2-1.3-1.7-2.4Z"/>
      <path class="cls-7" d="M771.9,885c2.4-.4,4.7-.8,9-1.4-2,2.5-2.7,4.1-4,4.8-12.5,7.7-24.9,15.5-37.6,22.7-4.8,2.7-10.5,4-15.5,6.3-1.8.8-3.1,2.9-4.6,4.4.9.5,1.8,1,3.2,1.5-1.5,1.4-3.6,2.7-6.1,3.6-1.5-.8-2.5-1.3-3.5-1.7.1,1.2.3,2.4.4,3.6-.6.4-1.3.9-2.4.9-3.1-.2-5.7,0-8.3.6-.4,0-.1,2.6-.2,4-3.3,1.8-6.7,3.5-11,5.4-2,.9-3.1,1.8-4.1,2.7-10.3,5.5-20.5,11.1-30.8,16.5-4.8,2.5-9.8,4.4-14.5,7-9.1,5-17.9,10.6-27.1,15.3-23.8,12.2-47.7,24.4-71.8,36-6.2,3-13.4,3.7-20.8,5.2-1.1-.8-1.6-1.7-2-1.6-8.1,1.8-15.9,1.4-23.7-1.6-10.8-4.1-21.7-7.8-32.7-11.2-4.2-1.3-8.7-1.6-13.1-2.3-.7-.3-1.5-.5-2.5-1.6-2-2.4-3.5-4.4-5.5-5.5-5.9-3.3-12-6.3-18.2-9.1-4.8-2.2-9.9-3.9-14.9-5.8,0,0,0,0,0-.4-.9-.5-1.8-.7-2.8-.8-.7-.3-1.5-.5-2.5-1.6-2.1-2.6-3.7-5-5.9-6.1-8.2-4.2-16.5-8.1-24.9-11.9-3.4-1.5-7.1-2.5-10.6-3.8-5.2-2.5-10.4-5-16-8.4-2.7-1.9-5-2.9-7.3-3.9-.7-.2-1.4-.4-2.4-1.4-3-1.9-5.7-2.9-8.4-4-.7-.3-1.5-.5-2.5-1.6-2.6-1.8-4.9-2.9-7.2-3.9-4.3-2-8.6-4.1-13.2-7-5.3-3.2-10.3-5.6-15.3-8-.7-.3-1.5-.5-2.5-1.6-3.5-2.3-6.7-3.8-9.9-5.3-5.2-2.5-10.4-5-16-8.4-2.6-1.9-4.9-2.9-7.1-3.9,0,0,0,0,0-.5-2.8-1.5-5.5-2.5-8.2-3.6-.7-.3-1.5-.5-2.5-1.6-5.3-3.2-10.4-5.6-15.4-8-6.1-3-12.2-6-18.7-9.8-2.6-1.9-4.9-2.9-7.1-3.9,0,0,0,0,0-.5-2.4-1.5-4.7-2.5-7.1-3.5-10.8-5.3-21.7-10.6-32.5-16-4-2-7.9-4.3-12.1-7.4-4.5-2.8-8.6-4.8-12.7-6.7-3.4-1.6-6.8-3.2-10.5-5.6-2.6-1.9-4.9-2.9-7.1-4,0,0,0,0,0-.5-1.9-1-3.7-1.6-5.5-2.2-.7-.3-1.5-.5-2.5-1.6-5.3-3.2-10.4-5.6-15.4-8-.7-.2-1.4-.4-2.4-1.4-1.2-.9-2.1-1.1-3-1.3-1.6-.7-3.2-1.4-5.2-2.9-1.7-1.4-3.1-1.9-4.5-2.5-.7-.3-1.4-.6-2.5-1.6-1.6-1.4-3-2-4.3-2.6,0,0,0,0,0-.5-1.9-1.5-3.8-2.5-5.9-3.7-.6-.4-.9-.7-1-1.6-1.3-1.2-2.6-1.8-3.9-2.5-2-1.7-4-3.4-6.5-5.6-.9-.8-1.3-1.1-1.7-1.4-.4-1-.7-2.1-1.3-4-2.9-4.7-5.6-8.4-8.4-12.2-.4-.6-.9-1.3-1-2.5-.4-1.4-1.1-2.1-1.7-2.9-.4-.6-.8-1.3-.9-2.6-1.3-4.6-2.9-8.5-4.5-12.4-.5-1.5-.9-3-1.1-5.2-.3-1.5-.9-2.2-1.5-3,0-1.4-.1-2.9.3-5.1,2.3-4.3,4.8-7.7,6-11.5,1.2-3.8,1.3-8,2.3-12.1,4.3.5,8,.9,11.8,2,0,4.1-.1,7.5,0,10.9.8,21.7,7.5,41.4,23.7,56.1,11,9.9,23.6,18.4,36.5,25.7,22.1,12.5,45,23.6,67.4,35.5,23.9,12.7,47.6,25.6,71.4,38.3,24.4,13.1,48.9,26,73.3,39,22.2,11.9,44.3,23.9,66.5,35.7,18.3,9.7,37.1,18.3,54.9,28.7,18.4,10.8,37,20,58.4,22.6,15.5,1.9,30.4,2,42.8-9.6,1-.9,2.2-1.7,3.4-2.3,35.2-19,70.4-38,105.6-56.9,18.8-10.1,37.5-20.3,56.3-30.1,12.6-6.6,25.5-12.8,38.5-18.9,1-.4,1.7-1,2.8-2,2.8-1.5,5.4-2.6,8.4-3.7,1.5-.9,2.6-1.8,4-2.7.3,0,1,0,1,0Z"/>
      <path class="cls-23" d="M44.6,716.8c-.6,4-.6,8.3-1.8,12.1-1.2,3.8-3.7,7.2-6,11-.9-1-1.6-2.3-1.6-3.5-.5-13.6-1.3-27.2-1.3-40.9-.1-107.3-.1-214.6,0-321.9,0-27.3.8-54.7,1.7-82.7,1.1-.6,1.7-.6,2.6-.3.9,3.5,1.6,6.6,1.8,9.7.6,10.4,1.7,20.8,1.5,31.1-.3,18.6-1.5,37.1-2.2,55.7,0,2,.9,4,.9,6-.2,17.9-.7,35.9-.9,53.8,0,3.3,1,6.7,1,10.1,0,7.9-.7,15.8-.7,23.7,0,8.1.9,16.1.6,24.2-.5,17.7-1.9,35.3-2.2,52.9-.2,10.3.9,20.6,1.1,30.9,0,3.8-2.2,8.3-.9,11.3,5.4,12,1.6,24.2,2.3,36.2.4,6.1,2,12.4,1,18.2-3.4,21.1-2.7,41.8,3.1,62.3Z"/>
      <path class="cls-23" d="M41.7,259.3c1.9-.8,3.7-1.2,6.3-1.9.3,2.1.5,4,.3,6.6-2,4.6-3.4,8.6-5.1,12.3-1.6,3.4-3.6,6.6-5.4,9.3.9-7.5,1.7-14.4,2.6-21.4.4-1.5.7-3,1.3-5Z"/>
      <path class="cls-7" d="M40.1,264.6c-.5,6.6-1.4,13.6-2.3,21.6,0,2.1,0,3.1,0,4.1-.6,0-1.2,0-2.2,0,1.1-8.4,2.6-16.9,4.5-25.7Z"/>
      <path class="cls-23" d="M47.4,774.8c2.7,3.3,5.4,7.1,8.2,11.3-2.7-3.3-5.4-7.1-8.2-11.3Z"/>
      <path class="cls-23" d="M39.1,754.3c1.6,3.4,3.2,7.3,4.4,11.5-1.7-3.4-3.1-7.2-4.4-11.5Z"/>
      <path class="cls-23" d="M69.1,800c-.6.4-1.1.3-2.1.1-.8-.7-1.2-1.3-1.7-2.3,1.2.3,2.5,1,3.8,2.2Z"/>
      <path class="cls-23" d="M36.5,746c.6.4,1.2,1.1,1.5,2.1-.7-.4-1.1-1.1-1.5-2.1Z"/>
      <path class="cls-23" d="M44.6,769.2c.6.4,1.3,1.1,1.6,2.1-.7-.4-1.2-1.1-1.6-2.1Z"/>
      <path class="cls-23" d="M450.8,1005.9c4.1.4,8.6.7,12.8,2,11,3.5,22,7.1,32.7,11.2,7.9,3,15.7,3.4,23.7,1.6.3,0,.9.9,1.5,1.8-25.9,5.3-48.6-3.9-70.8-16.6Z"/>
      <path class="cls-23" d="M363.2,959.3c3.3.9,6.9,1.9,10.3,3.4,8.4,3.8,16.7,7.7,24.9,11.9,2.2,1.1,3.8,3.5,5.6,5.8-13.5-6.6-27.1-13.6-40.9-21.1Z"/>
      <path class="cls-23" d="M409.8,983.9c4.7,1.5,9.8,3.2,14.6,5.4,6.2,2.8,12.2,5.9,18.2,9.1,2,1.1,3.5,3.1,5.2,5.2-12.6-6.1-25.2-12.7-38-19.7Z"/>
      <path class="cls-23" d="M290.9,921c4.7,2,9.7,4.4,14.7,7.3-4.8-2-9.6-4.5-14.7-7.3Z"/>
      <path class="cls-23" d="M702.8,934.2c-.4-1.3-.6-3.9-.3-4,2.5-.6,5.2-.7,7.9-.5-2.3,1.8-4.7,3.1-7.6,4.5Z"/>
      <path class="cls-23" d="M98,818.5c4.8,2,9.8,4.4,14.9,7.3-4.8-2-9.7-4.5-14.9-7.3Z"/>
      <path class="cls-23" d="M229.2,888.2c4.8,2,9.8,4.4,14.9,7.3-4.8-2-9.7-4.5-14.9-7.3Z"/>
      <path class="cls-7" d="M858.6,852.2c3.3-2.2,7.1-4.5,11.4-6.8-3.3,2.3-7.1,4.5-11.4,6.8Z"/>
      <path class="cls-23" d="M139,840.4c3.9,1.6,8,3.5,12.2,6-3.9-1.5-7.9-3.6-12.2-6Z"/>
      <path class="cls-23" d="M247.2,897.8c2.4.7,5.1,1.7,7.9,3.2-2.5-.6-5-1.8-7.9-3.2Z"/>
      <path class="cls-23" d="M278.5,914.2c2.9,1.1,6.1,2.6,9.4,4.6-3-1.1-6.1-2.6-9.4-4.6Z"/>
      <path class="cls-23" d="M329.2,941.5c2.4.7,5.1,1.8,7.9,3.4-2.5-.7-5-1.9-7.9-3.4Z"/>
      <path class="cls-23" d="M255.3,901.9c2,.6,4.3,1.6,6.6,3.2-2.1-.6-4.2-1.7-6.6-3.2Z"/>
      <path class="cls-7" d="M762.8,902.7c1.5-1.3,3.5-2.7,6-4-1.5,1.3-3.5,2.6-6,4Z"/>
      <path class="cls-23" d="M203.4,874.5c2,.6,4.3,1.7,6.6,3.2-2.1-.6-4.2-1.7-6.6-3.2Z"/>
      <path class="cls-23" d="M339.9,947c2,.7,4.3,1.7,6.7,3.2-2.1-.6-4.3-1.7-6.7-3.2Z"/>
      <path class="cls-23" d="M196.3,870.5c2,.6,4.4,1.7,6.8,3.2-2.1-.6-4.3-1.7-6.8-3.2Z"/>
      <path class="cls-23" d="M319.5,936.1c2,.7,4.3,1.7,6.7,3.2-2.1-.6-4.3-1.7-6.7-3.2Z"/>
      <path class="cls-23" d="M121.3,830.8c2,.6,4.3,1.7,6.6,3.2-2.1-.6-4.2-1.7-6.6-3.2Z"/>
      <path class="cls-7" d="M924.1,818c1.5-1.3,3.5-2.7,6-4-1.5,1.3-3.5,2.6-6,4Z"/>
      <path class="cls-7" d="M872.2,845.3c1.5-1.3,3.5-2.6,6-4-1.5,1.3-3.5,2.6-6,4Z"/>
      <path class="cls-7" d="M850.4,856.4c1.2-1.1,2.8-2.2,4.8-3-1.3,1.2-2.8,2.1-4.8,3Z"/>
      <path class="cls-23" d="M73.9,805.6c-1.3-1.1-2.2-2.1-3.3-3.5,1.6.7,3.5,1.7,5.4,3.2-.5.5-1.1.4-2.1.3Z"/>
      <path class="cls-7" d="M786.1,890.5c1.2-1.1,2.8-2.2,4.8-3-1.3,1.2-2.8,2.1-4.8,3Z"/>
      <path class="cls-23" d="M713.6,928.8c-.5-1.2-.7-2.4-.8-3.6,1,.4,2,.9,3.1,1.8-.6.9-1.2,1.3-2.2,1.8Z"/>
      <path class="cls-23" d="M115.9,828.1c1.5.3,3.3.9,5.1,1.9-1.6-.2-3.2-.9-5.1-1.9Z"/>
      <path class="cls-23" d="M83,810.4c1.1.2,2.5.8,3.9,1.8-1.2-.2-2.5-.8-3.9-1.8Z"/>
      <path class="cls-23" d="M687.6,942.3c.6-.9,1.7-1.7,3.2-2.6-.6.9-1.7,1.7-3.2,2.6Z"/>
      <path class="cls-23" d="M76.2,806.2c1.1.2,2.5.8,3.9,1.9-1.2-.2-2.4-.9-3.9-1.9Z"/>
      <path class="cls-7" d="M754.6,906.9c.4-.6,1.1-1.3,2.1-1.7-.4.8-1,1.2-2.1,1.7Z"/>
      <path class="cls-23" d="M407,982.6c.6-.2,1.6,0,2.5.5-.7.2-1.5,0-2.5-.5Z"/>
      <path class="cls-7" d="M918.6,820.8c.3-.6,1.1-1.3,2.1-1.6-.4.7-1,1.2-2.1,1.6Z"/>
      <path class="cls-23" d="M92.6,815.7c.6-.1,1.6,0,2.5.7-.7.2-1.5-.1-2.5-.7Z"/>
      <path class="cls-7" d="M915.9,822.2c.2-.4.9-.9,1.9-1.4-.2.4-.9.9-1.9,1.4Z"/>
      <path class="cls-1" d="M766.4,887.7c-2.6,1.1-5.1,2.2-8.3,3.8-1.3.8-2,1.3-2.6,1.7-12.8,6.4-25.6,12.6-38.3,19.2-18.9,9.9-37.6,20-56.3,30.1-35.2,19-70.4,37.9-105.6,56.9-1.2.6-2.4,1.4-3.4,2.3-12.4,11.6-27.3,11.6-42.8,9.6-21.4-2.7-40-11.9-58.4-22.6-17.8-10.4-36.6-19-54.9-28.7-22.2-11.8-44.3-23.8-66.5-35.7-24.4-13-48.9-26-73.3-39-23.8-12.7-47.5-25.7-71.4-38.3-22.4-11.9-45.4-22.9-67.4-35.5-12.9-7.3-25.6-15.8-36.5-25.7-16.2-14.7-22.9-34.4-23.7-56.1-.1-3.4,0-6.8,0-11.5,0-143.2,0-285,.1-426.9,0-7.6,1.7-15.2,2.6-22.9,1.8-5.1,3.6-10.3,5.8-16.2,2.5-4.7,4.5-8.6,6.9-12.7,2.9-3.3,5.3-6.3,8.2-9.6,4.5-3.1,8.2-6.5,12.5-8.9,23.4-13.1,46.8-26,70.4-38.7,21-11.3,42.3-22,63.4-33.2,25.1-13.3,50-26.8,75.1-40.2,13.2-7,26.6-13.8,39.8-20.9,25.4-13.6,50.7-27.4,76.1-41.1,19.8-10.9,39.4-22.2,59.5-32.6,14.8-7.7,30.3-8.1,45.6-.8,2.4,1.1,4.9,2.2,7.9,3.3,30.8,15.2,61.3,30,91.3,45.8,28.5,15,56.3,31.3,84.6,46.6,18.5,10.1,37.3,19.5,56.5,29.3,10.7,5.8,20.9,11.8,31.3,17.4,20.6,11,41.3,21.7,62,32.6,16.6,8.8,33.2,17.7,50.5,26.9,1.5.6,2.2.9,3.3,1.5,1.9,1,3.6,1.7,5.2,2.4,2.4,1.2,4.9,2.5,7.8,3.9,9.3,6.2,18.2,12.2,27,18.3,3.3,2.3,6.4,5,10,8.1,2.7,5.8,4.9,11,7.2,16.1.3,1.5.7,3.1,1.2,5.4.7,1.5,1.1,2.1,1.5,2.8,0,4.6,0,9.2,0,14.4v139.7c0,87.2,0,174.3,0,261.5,0,6.3,1.5,12.6,1.4,18.9-.1,24.7.5,49.7-15.2,70.8-5.1,6.9-12.1,13.2-19.6,17.5-19.6,11.3-40.1,21.2-60.1,31.8-24.5,13-48.9,26.1-73.3,39.1-10.4,5.5-20.7,11-31.3,16.9-.2.4-.9.4-1.7.5-1.9.9-2.9,1.8-4,2.7M610.6,912.3s0,0,1.1,0c1.5,0,2.9,0,5.5,0,2.4-.9,4.7-1.8,7-3.7-.4-1.9-.8-3.9-1.4-6.8-1.8-3.8-3.6-7.6-4.3-11.3,2.8.9,5.7,1.8,9.4,3.1,2.4.5,4.9.9,7.3,1.4,0-1.5,0-3,0-5.4.4-1.1.9-2.2,2.2-3.2.6,0,1.2,0,1.9,1,2.4,5.9,5.7,4.7,9.1,1,3.7-4,7.3-8.3,14.5-2.5,2.2-4,6.5-8.8,5.5-10.6-3.6-6.5,1.8-11,2.3-16.4.1-1.5,4.6-3.8,6.8-3.5,4.5.6,8.7,2.8,13.3,4.5,5-3.8-3.4-19.6,13.6-14.7.9-2.3,2-5.1,4.2-7.8,1,0,2.1,0,3.9-.4,1.4-.7,3.1-2.4,4.1-2,4.8,1.9,6.2-.4,7.7-4.4,1.1-3.1,3.7-5.6,6.2-9.1.9,1.9,1.1,2.8,1.6,3.4,1.3,1.4,2.8,2.7,4.3,4,.5-1.7.8-3.4,1.5-5,.9-2,2-3.9,3.1-5.8.2.8.4,1.7.6,2.5,5,1.5,10,3.3,15.1,4.2,2,.3,4.4-1.7,6.6-2.7-.9-2-1.9-4-3-6.3,2.6-2.3,4.7-2.8,6.6,1.7,2,4.5,6,7.4,10.9,5.3,8.7-3.7,15.6-9.5,17.2-19.6,0,0,0,0,1,0,1.7.9,3.4,2.2,5.3,2.7,4.6,1.2,9.3,6.2,13.7-1.6,1.9-3.3,7.5-4.5,12.3-6.1,3,1.8,6.1,5.1,9.2-1.1,4.4,2.1,8.8,4.2,13.6,6.5,2.2-6.1,4.7-10.7,10.7-10.5.8,2.8.7,5.9,2.1,6.9,1.9,1.3,5,1,7.6,1.3.3-2.5,1.6-5.3.9-7.5-4.9-15.6-3.3-20.4,8.5-22.6.3,0,.5-.7,1.1-1.3-1.1-5.2-11.4-4.2-8.7-12.8,7.5.5,9.4-3.2,7.6-10.5-1.2-4.9,1.4-6.9,6.9-5.6,5.7,1.4,8.2-1.8,7.4-7.6-.5-3.7-1.7-9.1.2-11.1,5.7-6.1,2.6-7.7-4.3-9,3.4-8.3,6.5-16.1,9.2-22.8-3.5-9-6.7-17.2-9.1-25.9,1.1-3.5,2.2-7,4-11.1,1-8.1,7.9-15,5.1-24.8,5.7-6.1-4.3-4.9-4-7.4,2-2.9,4.8-5.2,4.6-7.3-.4-4-2.4-7.9-2.6-11.8,1.1.2,2.2.9,3.2.7,2.1-.4,5.7-.8,6-2,.7-2.6-.2-5.5-.5-8.4-2.4.3-4.8.4-7.1.8-3.2.6-6.4,1.3-9.4,1,2-5,3.8-10.1,6.2-15,.7-1.5,3.1-2.1,5.5-3.6,6.3-6,6.4-8.9.1-14.1-.3-1.5-.7-3.1,0-4.8,5.1-7.8,3.8-14.3-3-17-2.3,1.8-4.2,3.3-6.2,3.7,0-3.2,0-6.5.6-10,.4-.3.6-.6,1.9-1.1.9,0,1.9.3,2.7,0,1.9-.9,3.7-2.1,5.5-3.1-1.5-1.4-3-2.7-4.5-4.1-1.2-1-2.4-2-3.5-3,2.7-1.8,4.9-1.6,6.9-2.2,1.5-.4,2.6-1.9,3.9-2.9-1.3-1.2-2.4-2.8-3.9-3.6-1.1-.6-2.7-.1-4.1-1.1-1.8-1.1-3.6-2.1-6.3-3.4-.6-3.1-1.2-6.3-.7-9.4,8.4,1.9,8.3,1.9,7.8-7.3-.2-3.5.5-7,1.5-11.2-.6-2.7-1.3-5.3-1.9-8-.9-4-2.3-8-2.3-12,0-.8,5-1.6,8.4-2.7.6-2.7,1.4-5.9-3.7-7.8,0-1,0-2.1.8-3.5,1.1-2.1,2.2-4.3,3.3-7.6,0-1.9,0-3.8.4-6.5,1.7-.6,3.4-1.3,6-1.9.6-1.4,1.2-2.7,1.8-5,.5-1.1.9-2.1,2.4-3.2,2.6.8,5.1,1.6,6.6,2,.4-6.3.8-12.3,1.2-18.2-.5,0-1-.2-1.6-.3-1.5,1.7-3.1,3.3-4.6,5-.7-.4-1.5-.9-2.2-1.3,1.5-2.5,2.5-6.6,4.6-7.4,10-3.6,10.9-4.5,8-15,1.4-.1,2.8,0,4-.4,2-.5,3.9-1.4,5.8-2.1-1.3-2.2-2.3-4.9-4.2-6.4-.7-.6-3.5,1.1-5.3,1.9-1.5.7-2.8,1.6-4.8,2.8.9-4.9.7-8.9,2.4-11.8,2.9-4.6,7.4-8.2,10.6-12.7,1.7-2.4,2.2-5.7,3.2-8.6h-8.6c-.5.9-1,1.9-1.5,2.8-6.1-9.6-12.1-19.1-18.4-29-2,1.8-3.9,3.6-6.7,6.1-.4-2.7-.6-4.3-.5-6.7.4-.7.7-1.4,1.9-2.4,5-2.8,10-5.5,14.8-8.5,1-.6,1.8-2.8,1.5-3.9-1.5-5.7-10.9-8.1-14.8-3.9-1.6,1.8-2.6,4.2-4.2,6-1,1.1-2.7,1.6-3.8,2.2,1.6-24.1-17.9-26.4-32.2-33.7,1.8-3.2,5.7-6.8,5.1-9.5-1.9-8.7-5.1-17.1-8.5-25.3-2.4-5.9-1.7-9.5,4.2-12.6,1.4-.8,2.6-2,4.8-3.6-10.5-6.8-18.4,6.4-28,1.9,2.7-4,5.3-7.3,7.2-11.1,1.2-2.2,1.6-4.9,1.7-7.4,0-.7-3.3-2.3-3.6-2-1.6,1.6-3.1,3.5-3.9,5.6-2.2,5.8-6.3,7.4-11.5,3.8-3-2.1-5.7-4.7-8.8-7.3-1.2,2.2-2.1,3.8-3.4,6.3-1.4-3.5-2.4-5.9-3.5-8.8-3.3,1-6.5,1.9-10.7,2.9-1.6,2.5-3.1,5-4.8,7.7-.7-.5-1.6-.8-2.1-1.5-5.4-7.5-9.8-8.5-18.1-4.3-3.2,1.6-5.8,1.1-6.6-2.9-.5-2.6-.7-5.2-1.2-9.1-2.4.3-5,.9-7.6,1-1.8.1-4.6.4-5.4-.6-3.5-4-6.8-3.9-11.3-1.7-4,1.8-9.5-3.1-11.7-6.8-1.8-3.1-5.8-5.3-9.2-6.9-3.1-1.4-7.5-.4-10.2-2.1-5.1-3.3-8.6-3.1-12.9,1.4-1.8,1.9-6,1.8-9.2,2-3.4.2-6.8-.4-11-1.1-2.7-3.1-7.7-6.3-7.5-9.3.4-7-3.3-11.5-6.9-16.2-.7-1-2.8-.9-4.7-1.5.4,3.4.9,5.6.7,7.8-.2,1.8-1.3,3.6-2,5.4-1.4-.8-3.2-1.3-4.3-2.4-3.3-3.3-6.3-6.9-10-10.9,9.9-5.5.4-10.3-1.9-14.7-2.1-4-6.8-8.6-12.9-3.5-.8.7-3.4.3-4.4-.6-4-3.5-7.6-7.5-11.4-11.1-.7-.7-1.8-1.2-2.8-1.4-14.2-2.9-27.4-7.5-35.3-18.8-3.3.4-7.8,1.5-7.9,1-1.5-4.2-10-3.5-7.6-10.4,0-.2-2.4-1.9-3.2-1.6-7.2,2.4-7.6-1.9-8.6-7.3-1-4.9-4.1-9-10.1-9.5-5.5-.4-5.1,4-6.1,7.2-2.2,7.1-11.1,10.5-18,8-2.4-.9-5.9.2-8.5,1.4-2.3,1.1-4,3.5-4.7,4.2-9.7-3.1-18.1-5.7-25.1-7.9-4.4,7.6-8.1,14.3-12.2,20.7-2.1,3.3-4.8,5.2-9.7,2.9-2.9-1.4-7.2,0-10.9.3.3,2.2,1,4.4.9,6.6,0,1.8-1,3.7-1.3,4.3-5.3-1.1-9.9-3-14.5-2.9-5.1,0-10.3,1.9-15.4,2.9,0-.5-.1-1-.2-1.5-3.3,2.9-6.7,5.7-10,8.6,0-.8.1-1.7.2-2.5-3.9-1.3-7.7-2.7-11.6-4-.8,2.7-1.7,5.4-2.8,9.1-1.4,0-4.4.9-6.1-.2-7-4.6-10.6-2-12.4,6.1-1.4-2.5-2.4-4.1-2.6-4.6-5.8,1.6-10.7,3.7-15.7,4.1-4.2.3-6.4,1.3-8,5.4-.7,1.8-4.8,4-6.4,3.5-7.9-2.7-15.4-.9-18,6.9-2.2,6.3-6.9,7.2-11.6,9.3-2,.9-3.3,3.4-5.7,5.7-2.5,1.7-4.9,3.4-8.5,5.1-3,0-6.8,1.2-8.9-.2-4.5-3.1-8.9-1.9-12.7-.2-1.2.6-.4,5.6-1.4,8.9-2.9,1.7-5.8,3.4-8.7,4,.7-2.2,1.4-4.3,2.3-7.2-3.2.7-5.8.9-8,1.8-1.1.5-2.5,2.9-2.1,3.5,2.3,3.9,5.1,7.5,7.8,12.1.9,1.9,1.8,3.9,3.2,6.8-2.7-.4-4.3-.7-7.1-.9-7.4-1.9-13.9,0-19.4,5.4-.1-.7-.2-1.3-.4-2-4,.7-8,1.4-12.8,1.7-1.1-.3-2.2-.7-4-1.8-3.5-.9-7-1.9-11.2-3-.1,2.3-.2,4.4-1.4,6.5-1,0-2,0-3.7-.7-7.1-.4-2-7-4.6-9.8-13.2,8.2-26,16.4-41.7,14.5,1,4.5,3.4,8.7,2.2,10.4-4.4,6.1-9.5,11.7-15.2,16.7-4.6,4.1-5.2,6.1,0,9.4.9.6,2.1.8,3.1,1.2-.4.7-.7,1.5-1.1,2.2-4.8,1.1-9.6,2.2-14.5,3.3.2,1.5.1,2.3.4,2.8,4.4,6.9,3.8,13-1.8,19.3-3.2,3.6-4.7,8.6-7,13,.4.3.7.5,1.1.8,2.2-1.3,4.4-2.6,6.5-3.8,6.4,7.5,6.1,9-.9,14.6-3.3,2.7-6.2,6-8.7,9.5-.8,1.1.4,3.7,1,7.2,2.2-2.7,3-4.2,4.2-5,1.6-1,3.5-1.4,5.3-2,.5,2.2,1.8,4.6,1.3,6.4-1.1,4-4.4,5.5-8.6,4.5-2.8-.7-5.5-1.4-8.6-2.1.3,3,.5,5.5,0,8.2-.4.3-.6.6-1.8,1.2-4.9,2.2-2.9,5.7-1.9,9.2.5,1.9,1,5.1,0,6-5.3,4.9-1.2,9.7-.1,14.4.2.7,3.9,1.2,5.7.8,1-.2,1.5-2.5,2.4-4.1,8.9,9,0,18.5,3.8,26.6.2.4-1.3,1.8-2.2,2.5-3.8,3-7.8,5.9-12.3,9.4,2.7,2.4,5.4,4.8,9.5,8.5-3.2,5-6.6,10-9.6,15.1-2.5,4.2-4.5,8.6-6.8,12.9,2.5.8,3.4.5,4.2.3,1.6-.2,3.1-.3,4.7-.5-.4,1.4-1.1,2.7-1.2,4.1-.3,3.1-.4,6.3-.6,10.4,0,.6,0,1.2,0,2.9.5,2.4.9,4.7,1.4,7.8,0,0,0,.7,0,1.7.5,1.3.9,2.7,1.4,4,1.4-.8,2.7-1.6,5.1-2.3,1,0,2,0,3.2.9.4,1.5.9,3,1.1,5.6-2,1-4,2.2-6.1,3-1.6.7-3.8.5-5,1.5-3.5,2.9-6.7,6.2-8.9,8.3-5.1-1.6-9.2-2.9-13.2-4.1-.4.6-.8,1.2-1.3,1.9,1.2,1.5,2.4,4.5,3.5,4.4,6.6-.3,9,2.5,9.9,9,.5,3.9,5.3,7.1,5.8,11,1,7.3-5.9,4-9.3,5.5-.2,0-.3.3-.5.4-2,9.3-5.3,12.2-12.3,12.3-2.8,3.2-4.9,5.6-7.8,8.8,1.8.6,4.3,2.3,5.3,1.7,5.7-3.6,6.2,1.3,7.6,3.1-1.7,3.5-4.4,6.5-3.8,8.7,1.2,4.7,4,9,6.2,13.4-5.7,3.5-5.5,3.4-4.7,11.1.4,3.8-.2,7.7-.3,11.5,0,1.9,0,3.9.1,5.8,1.6-1.2,3.3-2.2,4.8-3.6,1.8-1.7,3.4-3.7,6-6.7.3,5.3,1.1,8.4.4,11-.7,2.7-3.5,4.9-4.4,7.6-.6,2.1.4,4.7.7,7.6,2.8-3.7,4.8-8,6.3-7.8,5.6.6.9,5,1.9,7.5,0,.2,0,.5,0,.7.9,8.3-1.9,13.8-10.5,18.5,3.4,4.2,6.7,8.1,9.9,12-.6,2.1-2.1,4.3-1.7,6.2,2.4,11.9,2.4,12.6-7.1,18.9,2.9,1.1,4.9,1.9,6.9,2.5,2.5.7,5.1,1.2,7.6,1.8-1.6,1.7-3.3,3.2-4.8,5-1.8,2-3.4,4.2-4,5,3.5,4,5.9,6.5,8.2,9.2,3.2,3.8,6.6,7.4,9.5,11.5,2.1,2.9,3.4,6.4,5,9.6,1.6,3.2,3.1,6.5,5,9.6.9,1.5,3.7,2.3,3.8,3.6.7,10.2,9.5,16,13.4,24.4,2.3,4.9,5.7,9.4,8.8,13.9,4.7,6.8,7.8,14.5,18.5,15.9,4.3.6,8.1,8.9,11.3,14.3,3.4,5.7,7.2,7.4,13.5,4.6,9.4-4.3,10.3-3.9,17.4,4.1,1.5,1.6,4.7,2.9,6.8,2.5,9.4-1.6,17.5-.9,22.7,8.5.7,1.2,2.7,2.4,4,2.3,5.8-.4,11.6-1.2,15.5-1.7,4.5,1,9.3,3.4,10.4,2.2,3.5-3.6,6.3-2.3,9.8-.8,5.3,2.2,10.7,4.2,16.2,5.9,1.5.5,3.5-.2,5.2-.5,1.5-.2,3.6-1.5,4.4-.9,4.4,3.3,6.5-.2,9.7-2.4.2.2.3.4,1.2,1.1,1.7.5,3.4,1.1,5.7,1.9.6.3,1.1.6,2.4,1.5,8.1,4.5,16.2,9.1,24.4,13.5,18.5,10,37,20,55.7,30.9,1.7,1.1,3.4,2.2,5.8,3.4.3.3.7.6,1.1,1.9,3.3,2.4,6.4,5.5,10.1,7.2,6.1,2.8,12.7,4.7,19.6,6.9,0,0,.3.4.3,1.4.6,3.3,2,3.8,5,1.3.6.4,1.2.9,2.2,2.1.7.3,1.5.7,2.4,2,2.3,1,4.5,2,6.9,3.9,4.1,2,8.1,3.9,12.3,6.9,5.5,3.3,10.8,7.3,16.7,9.7,2.4,1,6.1-1.4,10.3-2.3.7,0,1.4-.2,3-.3.9,0,1.8,0,2.9,1.2.7.6,1.3,1.5,2,1.6,10.4,1.5,19.9,4.8,28.3,11.7,5.2,4.2,12,4.5,18.8,2.8,3.5-.9,7.4-.2,11-.2,3.7-.6,7.4-1.1,11.1-1.7,2-3.6,4.8-7.1,8.5-9.1,2.4-1.3,6-.5,9.8-.7.2,0,.5,0,1.1.8,1.7-.3,3.4-.5,5.1-.8Z"/>
      <path class="cls-24" d="M59.5,268c-.7,8-2.4,15.7-2.4,23.3-.2,141.9-.1,283.8-.1,426.3-3.8.2-7.5-.3-11.8-.7-6.3-20.5-6.9-41.3-3.6-62.3.9-5.9-.7-12.1-1-18.2-.7-12,3.1-24.3-2.3-36.2-1.4-3,.9-7.5.9-11.3-.2-10.3-1.4-20.6-1.1-30.9.4-17.7,1.7-35.3,2.2-52.9.2-8-.6-16.1-.6-24.2,0-7.9.6-15.8.7-23.7,0-3.3-1-6.7-1-10.1.2-17.9.6-35.9.9-53.8,0-2-1-4-.9-6,.7-18.6,1.9-37.1,2.2-55.7.2-10.4-.8-20.7-1.5-31.1-.2-3.1-.9-6.2-1.8-9.7-.4-1.4-.4-2.4-.4-4,1.8-3.8,3.8-7,5.4-10.4,1.8-3.8,3.1-7.7,5.1-11.8,3.9.9,7.4,2,11.2,3.5Z"/>
      <path class="cls-24" d="M72,239.7c-2,3.9-4.1,7.8-6.5,12-6.6-1.9-7.9-6.2-4-11.2,4.4-5.8,7.7-12.6,12.9-17.6,8-7.6,15.9-15.2,26.8-19.6,11.4-4.6,21.6-12.1,32.5-17.9,14.9-7.9,30.2-15.2,45.1-23.2,18.5-9.9,36.8-20.4,55.2-30.5,8.1-4.5,16.5-8.4,24.7-12.8,10.8-5.9,21.4-12.3,32.3-18.1,8.5-4.5,17.2-8.6,25.8-12.9,8.8-4.4,17.6-9,26.4-13.4,8.4-4.3,16.9-8.4,25.3-12.7,2.8-1.4,5.6-3,8.3-4.6,2.3-1.4,4.3-3.4,6.8-4.5,13.4-5.8,26.8-11.5,41-17.5-2.4,3.9-4.6,7.3-6.7,11.3-25.4,14.2-50.7,28-76.1,41.6-13.2,7.1-26.5,13.9-39.8,20.9-25.1,13.4-50,26.9-75.1,40.2-21.1,11.2-42.4,21.9-63.4,33.2-23.6,12.7-47,25.7-70.4,38.7-4.3,2.4-8.1,5.8-13.1,8.9-4.2,1.5-7.3,2.8-10.5,4.1.8,1.9,1.6,3.8,2.4,5.7Z"/>
      <path class="cls-24" d="M915.7,218.9c-1.9-.3-3.5-1-5.5-2.5-.3-1.4-.3-2-.3-2.6l7,1.1c-.4,1.2-.7,2.4-1.3,4Z"/>
      <path class="cls-23" d="M909.6,213.8c.4.6.4,1.2.4,2.3-.8.2-1.5,0-2.5-.6.4-.8,1-1.2,2.1-1.7Z"/>
      <path class="cls-23" d="M967.8,265.4c-2.6-4.8-4.8-10-7.1-15.6,7.4,2.4,5.5,9.8,7.1,15.6Z"/>
      <path class="cls-23" d="M970.5,273.7c-.7-.4-1.2-1-1.6-2.1.6.3,1.3,1.1,1.6,2.1Z"/>
      <path class="cls-23" d="M766.9,887.7c.6-.9,1.7-1.8,3.2-2.7-.6.9-1.7,1.8-3.2,2.7Z"/>
      <path class="cls-23" d="M755.7,893.5c.4-.7,1-1.2,2.1-1.6-.3.6-1.1,1.3-2.1,1.6Z"/>
      <path class="cls-35" d="M301.6,180.9c2.5-1.7,4.9-3.4,8.3-5.2,5.6,3.4,11.9-1.3,14.7.5,9,5.6,15.7-1.9,23.3-2.5,6.2-.5,8.4-.6,8.5,5.7,0,.9.9,1.7,1.3,2.6.6,0,1.3,0,1.9-.1.2-2.9,1.1-6.1.4-8.8-1.1-4.1-5-7.8.3-12,3.4-2.7,5.9-6.5,9-9.6.5-.5,2.1.1,3.2,0,4.7-.1,9.4-.2,14.1-.5,1.9-.1,4.1-1.6,5.7-1.1,5.3,1.7,8.7,0,11.3-4.6,1.9-3.6,4.1-3.7,6.7-.3,2.3,3,5.1,5.7,7.3,8.9-5.1,1.8-10.4,2.4-14.6,4.8-9.1,5-17.7,10.9-26.4,16.5-1.5,1-2.5,2.9-3.9,4.5-.1.1-.5,0-1,0-6.6,2.2-12.7,4.4-18.7,7-1,.4-1.3,2.6-2,3.9,0,0,0,0-.5,0-4.9,0-9.7-.8-10.5,5.5,0,0,0,0-.2,0-.7.3-1,.7-1.5,1.2-.3,0-.9.1-1.4,0-5.9-1.9-13,.1-16-7.2-.3-.6-2.1-1.2-3.1-.9-6.3,1.6-14.2.1-16.8,8.9-.3,1.1-1.7,2.3-2.9,2.7-3.7,1.1-2.8,3.4-2.7,6.4,0,3.4-.8,8.5-3.2,9.9-8.4,5.3-17.5,9.5-26.4,14-3.7,1.9-7.6,3.4-11.1,5.6-5,3.2-9.8,6.9-14.7,10.4-.5.3-1.3.2-2,.3-4.7.9-9.5,1.7-14.2,2.6-1.4.3-2.8,1-4.2,1-3.1,0-6.1-.3-9.6-.5,0,5.1,0,8.7-.2,12.7-.5,1.1-.8,1.9-1.1,2.6,0,0,.1-.1-.2,0-.8.3-1.1.6-1.5,1.3-1.3.6-2.2,1-3.6,1.4-.8.4-1.2.7-1.8,1.3-1.2.6-2.2,1-3.5,1.4-.8.4-1.3.8-2,1.4-1,.6-1.7.8-2.5.6-.9-1.4-1.9-2.4-2.8-3.3-1.3,1.7-2.7,3.5-4.5,5.4-2.4,1-4.4,1.8-7,2.6-7.8-.9-10.9,3-12.2,9.6-2,.5-3.5.9-5,.9-.5-1.3-1-2.1-1.5-3-.7,1-1.4,2-2.2,3,1.2.6,2.4,1.2,3.6,2.3,0,1.7,0,2.8,0,4.2-.6.9-1,1.5-1.6,2.1-.6.4-.6.8-.4,1.5,0,.6,0,.8-.2,1.3-.2.2-.1.8-.5,1-.5,1.6-.6,2.9-.9,4.9-.3,13.4-.4,26.2-.6,39.7,0,4.1,0,7.5-.2,11.3,0,1.8.3,3.2.4,5.3-.3,21.6-.5,42.6-.5,63.6,0,6.7.4,13.5.1,20.6-1.1,3.1-2.4,5.9-2.4,8.7-.2,24.6-.1,49.2,0,73.8,0,2,1.1,4.1,1.9,6.6,0,2,0,3.5-.6,5.3-.2,2.8-.1,5.4,0,8.5.2,1.4.3,2.2.5,3.6,0,14,0,27.4.2,40.8.1,14.5.3,29.1.4,44.3,0,21.6,0,42.5-.1,63.4,0,10.6,3,20.2,12,26.1,8.3,5.5,17.4,9.6,26.5,14.6,4.4,2.7,8.4,5.1,12.5,8,3.2,1.5,6.4,2.6,9.6,4.1,5.9,3.8,11.8,7.2,17.9,10.8.7.5,1.1.7,2.1.9,2.7,1,5,2,7.5,3.3,1.9,1.4,3.6,2.5,5.7,3.6,25.3,13.5,50.1,27,74.9,40.5-2.5,2.5-4.5,6-8.9,2.7-.8-.6-2.9.7-4.4.9-1.7.3-3.7,1-5.2.5-5.5-1.7-10.9-3.7-16.2-5.9-3.5-1.4-6.3-2.8-9.8.8-1.2,1.2-5.9-1.1-10.4-2.2-3.9.5-9.7,1.3-15.5,1.7-1.3,0-3.3-1.1-4-2.3-5.2-9.4-13.3-10.1-22.7-8.5-2.1.4-5.4-.9-6.8-2.5-7.1-7.9-8-8.3-17.4-4.1-6.2,2.8-10,1.1-13.5-4.6-3.2-5.3-6.9-13.7-11.3-14.3-10.7-1.4-13.8-9.1-18.5-15.9-3.1-4.5-6.5-9-8.8-13.9-3.9-8.4-12.7-14.2-13.4-24.4,0-1.3-2.9-2.2-3.8-3.6-1.9-3.1-3.4-6.4-5-9.6-1.6-3.2-2.9-6.7-5-9.6-2.9-4-6.2-7.7-9.5-11.5-2.3-2.7-4.7-5.3-8.2-9.2.6-.8,2.2-2.9,4-5,1.5-1.7,3.2-3.3,4.8-5-2.5-.6-5.1-1.1-7.6-1.8-2-.6-4-1.4-6.9-2.5,9.5-6.3,9.6-7,7.1-18.9-.4-1.9,1.1-4.1,1.7-6.2-3.2-3.9-6.4-7.8-9.9-12,8.6-4.7,11.4-10.3,10.5-18.5,0-.2,0-.5,0-.7-1-2.5,3.7-7-1.9-7.5-1.5-.2-3.4,4.1-6.3,7.8-.3-2.9-1.4-5.5-.7-7.6.8-2.7,3.6-4.9,4.4-7.6.7-2.6-.1-5.6-.4-11-2.7,3-4.2,5-6,6.7-1.4,1.4-3.2,2.4-4.8,3.6,0-1.9-.1-3.9-.1-5.8,0-3.8.7-7.7.3-11.5-.9-7.7-1.1-7.7,4.7-11.1-2.1-4.4-5-8.7-6.2-13.4-.5-2.2,2.2-5.2,3.8-8.7-1.4-1.7-1.8-6.7-7.6-3.1-1,.6-3.5-1.1-5.3-1.7,2.8-3.2,5-5.6,7.8-8.8,7,0,10.3-3,12.3-12.3.2-.2.3-.4.5-.4,3.4-1.5,10.3,1.8,9.3-5.5-.5-3.9-5.3-7.1-5.8-11-.9-6.5-3.3-9.3-9.9-9-1.1,0-2.3-2.9-3.5-4.4.4-.6.8-1.2,1.3-1.9,4.1,1.3,8.1,2.5,13.2,4.1,2.1-2,5.3-5.4,8.9-8.3,1.2-1,3.4-.8,5-1.5,2.1-.9,4.1-2,6.6-3.6,3.9-4.1,1.5-5.2-1.8-5.9-1,0-2,0-3.8-.4-2.4-1.1-4.1-1.7-5.8-2.3,0,0,0-.7.4-1.3,1.7-3.7,5.5-7.5-1.7-8.2,0-.6,0-1.2.5-2.3,11.3-3,8.9-14.1,13.4-20.7,1-1.5-.7-4.7-1.1-7.2.5.2,1.1.4,1.6.7,2.3-6,4.7-12.1,7.1-18.4-10.5-2.6-10.9-3.5-5.9-10.2,1.7.6,3.4,1.3,4.3,1.6,2.5-4.3,4.7-7.9,6.9-11.6-2.4-2.9-8.3-5.7.2-8.9,1.2-.4,1.9-3.6,1.9-5.5-.1-3.2-1-6.4-1.6-9.1-1.8-1.5-3.6-3-5.3-4.5,2-2.4,4.1-4.8,6.5-7.8-3-1.5-6.2-3-10.9-5.4,3.3-1.9,5.1-3.6,7-3.9,6.4-1,6.5-4.5,6.3-10.2-.3-5.8,2.4-11.8,3.8-17.7.6-2.7,2.4-5.8,1.7-8-1.9-5.8-5.4-11.1-7.4-16.9-.7-1.9,1.2-6.8,2.2-6.9,6-.6,7.3-3.6,9.4-9.1,2.8-7.1,3-13.8,2.7-21,3.2-1.1,6.6-2.3,10.6-3.4,3.4.9,6.2,1.8,9.3,3.1,3.9-1.4,7.4-3.1,11.3-5q6.3,4.3,10.3-.9c-2.2-1.6-4.7-2.8-6.4-4.7-1.5-1.8-2.2-4.3-2.9-6.6-.1-.4,1.7-2.1,2.1-2,2.2,1,4.2,2.3,6.1,3.7.6.5.6,1.9,1.3,2.3,1.3.8,2.9,1.2,4.3,1.8.2-.4.5-.9.7-1.3-4.2-5.8-8.4-11.6-12.5-17.4.5-.6.9-1.2,1.4-1.7,3.3.8,6.6,1.7,9.6,2.4,2.1-2.3,4-4.4,5.9-6.5,1,0,2,0,3.7.5,3.3,2.4,6.1,4.3,8.6,6,1.6-3.6,2.9-6.4,4.2-9.2,1.1.3,2.2.7,3.7,1.7,1.8,3.2,3.2,5.8,3.9,7.1,3-2.6,4.8-5.3,6.6-5.4,3.4,0,6.8,1.6,10.3,2.2,9,1.7,11.7-.5,12.4-9.7,1.7.3,3.3.5,6,.9-1.4-2.9-2.3-4.8-3-7.7,0-3.4-.1-5.8-.2-8.3,2.9-1.7,5.8-3.4,9.8-5.3,9.6.5,17.1-2,23-8.4M243.3,234.2c-2.1-1.2-5-3.9-6.2-3.3-2.8,1.4-4.8,4.4-7.1,6.8l1.8,2.5c3.6-1.8,7.2-3.5,11.5-6M108.1,558.5c-1.6-.6-3.3-1.2-4.9-1.7.3,1.3.2,3.2,1,3.8,1.4,1,4.2,3.7,3.9-2M109.3,569.2c-4.1-2.5-5.2-.6-4.5,4.1,1.7-1.1,3.3-2.2,4.5-4.1M213.1,230.2c1-.2,2-.3,3-.5-.1-.6-.2-1.1-.3-1.7-.9.4-1.9.9-2.7,2.2M116.4,581.1c.7.5,1.5.9,2.2,1.4.2-.4.4-.7.5-1.1-.7-.3-1.4-.6-2.8-.3M112,589.8c.7,0,1.4-.1,2-.2l-.5-1.8c-.6.4-1.2.8-1.6,2Z"/>
      <path class="cls-16" d="M896.3,602c1.3,3.9,3.3,7.8,3.7,11.8.2,2-2.6,4.3-4.6,7.3-.3,2.5,9.7,1.4,3.2,7.8-3.3,0-5.9-.3-7.7-.5,0,4.2-.1,8,0,11.7.1,3.6.6,7.2.9,10.7l-2.1.6c1.3.8,2.5,1.6,3.8,2.5-1.1,3.5-2.2,7-4.1,10.5-2.5-2.8-4.1-5.6-6-8.9-5.6,1.7-3.4,6.3-3,10.2.7,7.2,5,14.6-3.1,20.8-2.7,2.1-3.2,6.2,1.4,8.9,2,1.2,2.8,4.2,4.2,6.3-.6.4-1.2.7-1.8,1.1-1.8-1.2-3.6-2.4-5.5-3.7-6.4,5.6,2.5,7.3,1.6,10.9-7.7,18.5-13.1,37.6-12.4,57.1-3.2.4-7.1-.1-7.6,1-2.9,6-7.3,7.3-11.3,5.6-1.9,5.4-3.6,10.4-5.3,15.4-.5-.4-1-.8-1.5-1.3-2.1.7-4.2,1.4-6.4,2.1,1.2,2.5,2.4,5,3.6,7.5-2.6,5.6-5.7,2.2-9.2-.3-6.8-3.5-13.2-1.9-19.6-2.1-7.3-.2-9.6,2.9-12.2,7.9,0,0,0,0-.5,0-1.3-.3-2.4-.3-3-.9-7.8-7.4-7.8-7.5-17.2-2.4-4.7,2.5-9.1,5.6-15,2.3-1.4-.8-4.3,1.3-6.5,1.9-2.2.6-4.3,1.3-6.5,1.6-2.9.4-6.6-.6-8.5.9-5.4,4.1-10,9.2-15.1,14.1-1.4-.8-3.2-2.7-4.9-2.6-2,.2-5.3,1.8-5.5,3.2-.8,5.2-.6,10.6-.7,16-1,0-2.1,0-3.7-.5-6.3-2.9-12-6.1-16.9,1.1-.7,1.1-2.7,1.4-4.1,2.1-2.9,1.4-6.2,2.2-8.7,4.2-8.4,6.5-8.9,6.6-17.5.8-.4-.3-1.2,0-1.8,0q2,10.3-8.8,14.5c0,4.7.4,9.6-.2,14.4-.2,1.5-4,4-4.8,3.6-5.6-3-5.9-.9-4.8,4,.3,1.6-.7,3.4-1.1,5.2-.6,0-1.2,0-2.6-.4-2.9.2-5,.7-7.1,1.3,0,.8.2,1.6.3,2.4,1.8.3,3.6.5,5.3.8,0,1.5,0,3,0,4.5-2.4-.5-4.9-.9-7.8-2.2-1.2-4-1-8.8-3-10.1-4.5-2.8-6.9.1-7,7.8,1.8,3.8,3.6,7.6,5,12-1.9,2.4-3.4,4.1-5.8,6.7,3.7.2,5.7.3,7.7.4-2.4.9-4.7,1.8-7.7,2.3-3-3.2-4.8-3.3-5.9.5,0,0,0,0-.5,0h-4.9c-.2,0-.5,0-1.2-.5-1.4-1.1-2.3-2.1-3.2-2.1-6.1,0-12,.2-17.1-4.4-2.5-2.3-4.8-.9-6,2.5-.5,1.6-2.5,3.4-4,3.7-4.7.8-9.7,0-14.2,1.4-6.6,2-12.1.3-16-4.4-4.1-4.9-7.4-8.9-14.2-4.7-1.2.7-3.5-.3-4.9-.9,2.6-1.6,4.8-2.8,7.3-4.1,1-.5,1.7-1,2.8-1.5,3.5-1.8,6.4-3.6,9.8-5.4,1.9-.9,3.3-1.8,5.2-2.7,1.8-.9,3.1-1.7,4.7-2.6,1.2-.7,2.1-1.2,3.4-1.9,2.9-1.3,5.3-2.6,8.2-4.1,3.9-1.4,7.6-2.3,10.8-3.9,2.5-1.2,4.4-3.5,6.7-5.8,3.3-2.4,6.4-4.3,9.5-6.3,0,0,0,0,.4,0,2.1-1.1,3.8-2.1,6-3.1,1.8-.4,3.1-.8,4.9-1.4,3.9-2.2,7.4-4.3,11.1-6.5.3,0,.7-.4,1.1-.5,3-1.6,5.6-3.1,8.1-4.9,0-.2.1.2.6.1,6.4-3.4,12.3-6.6,18.6-9.9,1-.5,1.7-.9,2.8-1.5,3.5-1.7,6.4-3.4,9.3-5.2-.2-.1.2.1.6,0,2-.8,3.5-1.5,5.5-2.1,1.9-1.1,3.2-2.2,5.1-3.5,7.5-3.8,14.5-7.6,21.5-11.3,18.5-9.6,37.1-19.1,56.2-28.7,1.8-1.1,3.1-2.2,4.7-3.5,3.9-2,7.3-3.9,11.2-5.8,1.7-.9,3.1-1.8,4.9-2.8,2.1-.9,3.6-1.8,5.6-2.8.9-.5,1.5-.9,2.5-1.4.7-.4,1-.8,1.3-1.2-.1,0,0,.2.5,0,6.5-3.3,12.5-6.5,18.5-9.8,0,0,0,0,.4,0,2.7-1.8,5-3.6,7.8-5.5,3.5-1.2,6.4-2.3,9.8-3.7,2.8-1.5,5.3-2.7,7.6-4.1,7.7-4.3,15.3-8.6,23.4-12.9.8,0,1.1,0,1.8,0,1-.4,1.7-.8,2.7-1.4,15.5-8,21.6-20.6,21.1-37.2-.3-10.7.1-21.4.3-32.7,0-2.3,0-4-.1-6.3,0-34.8,0-69,0-103.9,0-2.1,0-3.4,0-5.4,0-31.8,0-63,0-94.9,0-2.4,0-4.1-.3-6.3-.1-19.1,0-37.7-.2-56.4,0-9.1-.7-18.1-.7-27.5.6-2.2.8-4,.9-6.3-.2-11.5-.3-22.4-.2-33.6,0-1.9-.4-3.4-.8-5.4-.6-2.3-1.1-4.1-1.6-6.2-.4-.8-.7-1.1-1.2-1.8-.5-.6-.9-.8-1.3-1.6-.9-1.6-1.7-2.8-2.6-4.3-.3-.6-.6-.8-1.1-1.3-1.1-1.3-2.1-2.2-3.3-3.4-1.8-1.3-3.3-2.1-5.1-3.3-.8-.9-1.4-1.5-1.4-2.3,3.1.3,6.4,0,8.3,1.4,2.9,2.3,4.7,5.8,7,8.7,2.6,3.3,4.6,6,9.9,3,6.6-3.7,13.9,2.3,13.1,9.9-.1,1.2.4,2.4.8,4.7,7.4-8.8,10.8-.5,15.5,2.4-.4.7-.7,1.4-1.6,2.6-2.6,2.3-4.6,3.9-6.5,5.5-2.3-1.5-4.1-2.7-6-3.9-5.8,9-5.2,9.5,10,10.7-.6,1.1-.8,2.4-1.6,2.8-3.8,1.8-5.3,4.8-3,8.2,1,1.4,4.3,1.2,6.6,1.6.9.2,2-.4,2.7,0,1.6.9,3,2.1,4.5,3.1-1.4,1.2-2.5,3-4.1,3.5-3.2.9-6.7.9-10,1.7-3.6.9-7.4,2-5.2,7.3,1.5,3.7-2.3,8.7,2.8,11.6.3.2,0,1.8-.4,2.5-2.1,3.7-4.8,7-6.3,10.9-1.8,4.7-8.6,9.1-1.9,15.1.4.3-.2,1.7-.3,2.5-.6,5.6-1.2,11.2-2.1,16.9-.8.5-1.3.9-1.7,1.3.3.2.6.5.9.7.4-.7.8-1.4,1.7-2.1,3.4,1.2,6.3,2.3,9.5,3.6,1.4-1.1,3-2.4,4.8-3.8,1.2.9,2,1.9,3,2.2,1.4.5,3,.5,4.5.7-.7-1.4-1.1-3-2.2-4-1.5-1.4-3.4-2.4-5.2-3.5,0-.8,0-1.7,0-2.5,5-1.1,10.3-3.7,15-3,5.1.8,1.8,5.8,1.4,9.1-.5,1.1-.9,2.1-1.8,3.8-1,1.9-1.7,3.1-2.3,4.4-1.7.6-3.4,1.3-5.7,2.4-3.1,3.1-3.9,5.5.3,7.2-1.1,2.1-2.2,4.3-4.1,6.8-2.7,1.7-4.5,2.9-6.4,4.2l.6,1.4c1.9-.5,3.9-1,5.8-1.5,5.1.9,4.3,4.1,3.7,6.8-3.4,1.1-8.4,1.9-8.4,2.7,0,4,1.4,8,2.3,12,.6,2.7,1.2,5.3,1.2,7.9-2.9-.9-5.4-4.4-6.9,1.2,0,1.5,0,2.6-.4,3.9-1,4.7-1.7,9-2.4,13.4.6,3.1,1.2,6.3,2.3,10,2.3,1.6,4.1,2.7,5.9,3.7,1.4,0,2.9-.4,4,.1,1.5.8,2.7,2.4,3.9,3.6-1.3,1-2.4,2.5-3.9,2.9-2,.6-4.2.4-6.9,2.2,1.2,1,2.4,2,3.5,3,1.5,1.3,3,2.7,4.5,4.1-1.8,1.1-3.6,2.2-5.5,3.1-.7.3-1.8,0-3.4-.3-1.6-1.4-2.4-2.3-3.3-3.3-.5.4-1,.7-1.4,1.1,1,1.3,2,2.6,3,4,0,3.2,0,6.5,0,10.8,2.7,4.9,5.5,8.6,8.2,12.4.3,1.5.7,3.1,1.1,5.6-.3,5.2-.7,9.4-1.1,13.6-1.6,1-4,1.7-4.7,3.2-2.4,4.8-4.1,10-6.7,15.6-1.6,3.6-2.8,6.6-3.4,9.7-.1.7,1.8,1.9,2.8,2.8.8-.9,2-1.7,2.3-2.8.5-2,.5-4.1.7-6.1.6-.2,1.2-.4,1.8-.7,1,1.4,2.1,2.9,3.1,4.3M833.1,774.8c-.9,5.9-.2,6.9,6.5,6.4-2.1-2.6-3.8-4.7-6.5-6.4M879.9,323.4c-.6-2.2-1.3-4.4-1.9-6.6-2.6,7.1-2.6,7.3,1.9,6.6M876.5,414.9c-.4.6-.8,1.2-1.2,1.7.6.2,1.2.3,1.8.5,0-.7.1-1.4-.6-2.2M885.7,377.3v-1.6c-.2,0-.6,0-.6,0,0,.5,0,1.1.6,1.6Z"/>
      <path class="cls-18" d="M423.4,867c-.3-.3-.7-.6-1.4-1.7-.7-13.1-.9-25.4-1-38.3.1-22.9.2-45.1,0-67.4,0-4,1-6,5.6-5.7,17.9,0,35.4,0,53.4.1,9.1.2,17.7.2,26.3.2v121.6c-19.8,0-39.1,0-58.9-.1-5.2-1.5-9.9-2.5-14.4-4.1-3.3-1.2-6.4-3-9.6-4.5Z"/>
      <path class="cls-16" d="M750,240.4c-1.6-1.1-3.1-2.2-5.5-3.4-26.6-13.8-52.3-27.4-78.4-41.2-1.6-.4-2.7-.5-3.8-.8,0,0,.2,0,.1-.4-.2-.8-.5-1.1-1.1-1.5-.1-.3-.2-.9-.2-1.4-3.6-3.4-7.2-6.4-10.4-9.5,3.3-1.4,6.1-2.7,9.4-4.1,2.5,8.7,7.9,5.4,13.2,3,1.4,2.5,2.4,4.7,3.7,6.8,2.5,3.9,6.5,3.9,10.2,0,3.4.3,6.8.9,10.1.7,3.1-.2,7.3,0,9.2-2,4.4-4.5,7.8-4.7,12.9-1.4,2.7,1.7,7.1.7,10.2,2.1,3.5,1.6,7.4,3.8,9.2,6.9,2.1,3.6,7.7,8.6,11.7,6.8,4.5-2.1,7.8-2.3,11.3,1.7.9,1,3.6.7,5.4.6,2.6-.1,5.1-.7,7.6-1,.5,3.9.7,6.6,1.2,9.1.8,4,3.4,4.5,6.6,2.9,8.4-4.1,12.7-3.1,18.1,4.3.5.7,1.4,1,2.1,1.5,1.7-2.7,3.3-5.2,5.4-7.2.2,5.3,4.4,9.6,6.9,8.2,5.8-3.3,9.9,1,14.7,1.1,5.2.2,8.9,3.1,8.4,9.7-.8,9.4.9,11,10.2,13.5,3.5.9,6.9,2.5,9.9,4.3,1,.6,1.6,4.2,1.1,4.6-4.3,2.8-1.8,5.7-.7,8.9,1.2,3.8,4.3,7.8-.1,11.6-11.7-5.4-20.8-3.7-26.3,5.3,2.7,1.1,5.6,1.9,7.9,3.4,2.1,1.4,3.7,3.6,5.6,5.4-.9,0-1.8,0-3.5-.3-4.9-2.3-8.9-4.3-13.3-6.6-12.4-6.5-24.5-12.7-37.1-19-1.1-.3-1.7-.4-2.4-1-2.4-1.7-4.7-2.9-7.4-4.6-11-5.9-21.5-11.5-32.1-17Z"/>
      <path class="cls-31" d="M686.7,187.6c-3.3,4.1-7.3,4.1-9.8.2-1.3-2.1-2.4-4.3-3.7-6.8-5.3,2.4-10.7,5.7-13.2-3-3.2,1.4-6.1,2.7-9.8,3.9-2.9-.3-4.8-.7-6.8-1.5.4-2.6.7-4.7,1.3-8.1-3,1.4-4.9,2.3-7.3,3.2-1.1,0-1.7,0-2.3-.5-2.1-3-4-5.6-6.1-8-1-1.2-2.5-2.2-3.1-3.5-2.3-5.7-4.7-10.9-12.4-10.2-.9,0-2.5-1.4-2.8-2.5-1.1-3.9-3.2-4.2-6.7-3.1-3.2.9-6.1,1.4-7.8-3.6-1.5-4.6-5.2-8.4-11.7-5.9-4.2,1.6-8,0-10-4.5-1.9-4.4-4.9-7.1-10.2-5-.9.3-2.2-.4-3.3-.4-7.7-.1-10.5-8.4-17.1-10.3-5.4-1.6-10.5-3.2-10.5-8.8-3.4.4-6.2.8-8.9.9-5.9,0-11.9-.8-17.7,0-3.4.5-6.4,3.7-9.9,5.9-1.1.4-1.8.5-2.7.1-3.9-2.2-14.8,1.3-15.9,4.7-.2.7.8,1.9.9,3.2-18.2,9.7-36.1,19-54.5,28.3-1.8.4-3,.8-4.7,1.2-1,0-1.6,0-2.2,0-2.6-2.8-5.3-5.5-7.6-8.5-2.6-3.4-4.7-3.3-6.7.3-2.5,4.7-6,6.4-11.3,4.6-1.6-.5-3.7,1-5.7,1.1-4.7.3-9.4.4-14.1.5-1.1,0-2.6-.6-3.2,0-3.1,3.1-5.7,6.8-9,9.6-5.2,4.2-1.3,7.8-.3,12,.7,2.7-.2,5.8-.4,8.8-.6,0-1.3,0-1.9.1-.5-.9-1.3-1.7-1.3-2.6-.1-6.3-2.4-6.2-8.5-5.7-7.6.6-14.4,8.1-23.3,2.5-2.8-1.7-9.1,2.9-14.2-.7,1.1-1.9,2.4-4.4,4.4-5.3,4.8-2.1,9.5-3,11.6-9.3,2.6-7.8,10.2-9.5,18-6.9,1.6.6,5.7-1.7,6.4-3.5,1.6-4.1,3.8-5,8-5.4,5-.4,10-2.5,15.7-4.1.3.5,1.2,2.1,2.6,4.6,1.8-8.1,5.4-10.7,12.4-6.1,1.7,1.1,4.7.2,6.1.2,1.2-3.7,2-6.4,2.8-9.1,3.9,1.3,7.7,2.7,11.6,4,0,.8-.1,1.7-.2,2.5,3.3-2.9,6.7-5.7,10-8.6,0,.5.1,1,.2,1.5,5.1-1,10.3-2.8,15.4-2.9,4.6,0,9.2,1.8,14.5,2.9.2-.6,1.2-2.5,1.3-4.3,0-2.2-.6-4.4-.9-6.6,3.7-.2,8-1.7,10.9-.3,4.8,2.3,7.5.3,9.7-2.9,4.2-6.4,7.8-13.1,12.2-20.7,6.9,2.2,15.3,4.9,25.1,7.9.7-.7,2.4-3.1,4.7-4.2,2.6-1.2,6.1-2.3,8.5-1.4,7,2.6,15.8-.9,18-8,1-3.3.6-7.6,6.1-7.2,6,.4,9.2,4.6,10.1,9.5,1.1,5.4,1.4,9.7,8.6,7.3.8-.3,3.2,1.4,3.2,1.6-2.4,6.9,6.1,6.1,7.6,10.4.2.5,4.6-.5,7.9-1,7.9,11.3,21.1,16,35.3,18.8,1,.2,2.1.7,2.8,1.4,3.8,3.7,7.4,7.6,11.4,11.1.9.8,3.6,1.3,4.4.6,6.1-5.2,10.8-.5,12.9,3.5,2.3,4.4,11.7,9.2,1.9,14.7,3.7,4,6.7,7.6,10,10.9,1.1,1.1,2.8,1.6,4.3,2.4.7-1.8,1.8-3.5,2-5.4.2-2.2-.4-4.5-.7-7.8,1.9.5,3.9.5,4.7,1.5,3.7,4.7,7.3,9.2,6.9,16.2-.2,2.9,4.9,6.2,7.9,9.5M478.8,115.7c-.4-.4-.7-.8-1.1-1.2-.2.2-.5.4-.5.4.3.4.7.8,1.6.7Z"/>
      <path class="cls-27" d="M416.5,861.7c-18.5-10-37.1-19.9-55.5-29.9-8.2-4.4-16.2-9-24.7-14.5-.4-17.6-.3-34.3-.5-51,0-4.7.3-8.8,4.8-12.1,1.5,0,2.5,0,3.7.6.8.8,1.3,1.4,1.9,1.5,9.8,1,19.7,1.9,29.5,2.8.9,0,1.8,0,2.7-.2,13-2.5,26-6.3,38.2,3.7.2,22.1.3,43.5.3,65.6-.2,11.6-.3,22.5-.3,33.5Z"/>
      <path class="cls-31" d="M212.5,216.1c-1.6,2.5-3.6,4.6-5.6,6.8-3-.7-6.3-1.6-9.6-2.4-.5.6-.9,1.2-1.4,1.7,4.2,5.8,8.4,11.6,12.5,17.4-.2.4-.5.9-.7,1.3-1.5-.6-3-1-4.3-1.8-.6-.4-.6-1.8-1.3-2.3-1.9-1.4-4-2.7-6.1-3.7-.3-.2-2.2,1.5-2.1,2,.7,2.3,1.4,4.8,2.9,6.6,1.7,2,4.2,3.2,6.4,4.7q-4,5.2-10.3.9c-3.8,1.9-7.4,3.6-11.3,4.5-3.7-8.8,1.1-11.8,8.2-14-1.5-1.5-3.6-3.1-4.1-2.7-4.7,3.8-6.6.3-8.3-3.5-7.9,8.6-8,8.9-5.7,17.5-3.4,1.2-6.8,2.3-10,3.4.3,7.2,0,13.9-2.7,21-2.1,5.4-3.4,8.5-9.4,9.1-1,0-2.9,4.9-2.2,6.9,2,5.8,5.5,11.1,7.4,16.9.8,2.2-1,5.3-1.7,8-1.4,5.9-4,11.9-3.8,17.7.3,5.7.2,9.2-6.3,10.2-2,.3-3.7,2-7,3.9,4.7,2.3,7.9,3.9,10.9,5.4-2.5,2.9-4.5,5.4-6.5,7.8,1.8,1.5,3.5,2.9,5.3,4.5.5,2.8,1.4,5.9,1.6,9.1,0,1.9-.7,5.1-1.9,5.5-8.5,3.1-2.6,6-.2,8.9-2.2,3.7-4.4,7.4-6.9,11.6-.9-.3-2.6-1-4.3-1.6-5,6.7-4.6,7.7,5.9,10.2-2.4,6.3-4.8,12.3-7.1,18.4-.5-.2-1.1-.4-1.6-.7.4,2.4,2.1,5.7,1.1,7.2-4.5,6.6-2.1,17.8-13.4,20.3-.3-3.1-.2-6.3.1-9.4.2-1.4.8-2.7,1.2-4.1-1.6.2-3.1.3-4.7.5-.8.1-1.7.4-4.2-.3,2.2-4.3,4.3-8.7,6.8-12.9,3-5.1,6.4-10.1,9.6-15.1-4.1-3.7-6.8-6.1-9.5-8.5,4.5-3.4,8.5-6.4,12.3-9.4.9-.7,2.3-2.1,2.2-2.5-3.8-8.1,5.1-17.5-3.8-26.6-.8,1.6-1.4,3.9-2.4,4.1-1.8.4-5.5,0-5.7-.8-1.1-4.7-5.2-9.5.1-14.4,1-1,.6-4.1,0-6-1-3.5-3-7,2.7-8.9,2.5,3.5,4.2,6.6,6.7,11,2.8-3.2,5.7-6.5,9.3-10.5-5.7-.9-10-1.6-14.3-2.3-.2-2.4-.4-4.8-.7-7.9,3,.8,5.8,1.5,8.6,2.1,4.2,1,7.5-.5,8.6-4.5.5-1.9-.8-4.3-1.3-6.4-1.8.6-3.7,1-5.3,2-1.2.8-2,2.3-4.2,5-.5-3.5-1.8-6.1-1-7.2,2.5-3.5,5.4-6.8,8.7-9.5,7-5.7,7.3-7.1.9-14.6-2.1,1.2-4.3,2.5-6.5,3.8-.4-.3-.7-.5-1.1-.8,2.3-4.4,3.9-9.4,7-13,5.5-6.3,6.1-12.4,1.8-19.3-.3-.5-.2-1.3-.4-2.8,4.9-1.1,9.7-2.2,14.5-3.3.4-.7.7-1.5,1.1-2.2-1.1-.4-2.2-.6-3.1-1.2-5.2-3.3-4.6-5.3,0-9.4,5.6-5,10.8-10.6,15.2-16.7,1.2-1.7-1.1-5.9-2.2-10.4,15.6,1.9,28.5-6.3,41.7-14.5,2.6,2.7-2.5,9.4,4.9,10.1Z"/>
      <path class="cls-33" d="M882.7,424.3c.6-5.6,1.1-11.2,1.7-16.9,0-.9.6-2.2.3-2.5-6.7-6,0-10.4,1.9-15.1,1.5-3.9,4.2-7.2,6.3-10.9.4-.7.7-2.4.4-2.5-5.2-2.9-1.3-7.9-2.8-11.6-2.2-5.3,1.6-6.4,5.2-7.3,3.3-.8,6.8-.8,10-1.7,1.6-.5,2.8-2.3,4.1-3.5-1.5-1.1-2.9-2.3-4.5-3.1-.7-.4-1.8.1-2.7,0-2.3-.4-5.7-.2-6.6-1.6-2.3-3.4-.9-6.4,3-8.2.7-.4,1-1.7,1.6-2.8-15.3-1.1-15.8-1.7-10-10.7,1.8,1.2,3.6,2.4,6,3.9,1.9-1.6,3.9-3.3,6.3-5.2.6,1.4.9,3.1,1.2,5.8,2.8-2.5,4.7-4.3,6.7-6.1,6.2,9.9,12.3,19.4,18.4,29,.5-.9,1-1.9,1.5-2.8h8.6c-1,2.9-1.5,6.2-3.2,8.6-3.2,4.5-7.7,8-10.6,12.7-1.8,2.8-1.5,6.9-2.4,11.8,2-1.2,3.3-2.1,4.8-2.8,1.8-.8,4.6-2.5,5.3-1.9,1.9,1.6,2.8,4.2,4.2,6.4-1.9.7-3.8,1.5-5.8,2.1-1.3.3-2.6.3-4,.4,2.9,10.5,2,11.4-8,15-2.1.8-3.1,4.8-4.6,7.4.7.4,1.5.9,2.2,1.3,1.5-1.7,3.1-3.3,4.6-5,.5,0,1,.2,1.6.3-.4,5.9-.8,11.8-1.2,18.2-1.5-.5-4.1-1.2-7.1-2-.2-3.3,3.1-8.4-2-9.1-4.7-.7-10,1.9-15,3,0,.8,0,1.7,0,2.5,1.7,1.2,3.7,2.1,5.2,3.5,1,1,1.5,2.7,2.2,4-1.5-.2-3.1-.2-4.5-.7-1-.3-1.8-1.3-3-2.2-1.7,1.4-3.4,2.7-4.8,3.8-3.2-1.3-6.1-2.4-9.5-3.6-.5,0-.5,0-.5,0M920,357.1c.3,5,3.7,2.7,5.9,2.2.7-.2,1-2.2,1.4-3.3-2.2.1-4.4.2-7.3,1.2Z"/>
      <path class="cls-6" d="M251.6,772.9c-.8-6.1-1.1-12.2-1.5-18.6h78.7c0,20,0,39.7-.5,59.7-.7,0-.9-.1-1.4-.5-25.2-13.6-50-27.1-75.2-40.6Z"/>
      <path class="cls-2" d="M836.4,797.2c-1.5-2.2-2.7-4.7-3.9-7.2,2.1-.7,4.2-1.4,6.4-2.1.5.4,1,.8,1.5,1.3,1.7-5,3.4-10,5.3-15.4,4.1,1.7,8.4.4,11.3-5.6.5-1.1,4.4-.6,7.6-1-.6-19.5,4.8-38.6,12.4-57.1.9-3.6-8-5.2-1.6-10.9,1.9,1.3,3.7,2.5,5.5,3.7.6-.4,1.2-.7,1.8-1.1-1.4-2.2-2.2-5.2-4.2-6.3-4.6-2.7-4.1-6.8-1.4-8.9,8.2-6.2,3.8-13.7,3.1-20.8-.4-3.9-2.6-8.5,3-10.2,1.9,3.3,3.5,6.1,5.5,9.2,3.7,8.4,6.9,16.6,10.4,25.6-2.7,6.7-5.8,14.5-9.2,22.8,6.9,1.3,10.1,2.9,4.3,9-1.9,2-.7,7.4-.2,11.1.8,5.8-1.7,8.9-7.4,7.6-5.4-1.3-8.1.7-6.9,5.6,1.8,7.4-.1,11-7.6,10.5-2.7,8.6,7.6,7.6,8.7,12.8-.5.7-.8,1.3-1.1,1.3-11.8,2.1-13.5,7-8.5,22.6.7,2.2-.6,5-.9,7.5-2.6-.4-5.6,0-7.6-1.3-1.4-1-1.3-4.1-2.1-6.9-6-.2-8.5,4.4-10.7,10.5-4.8-2.3-9.2-4.4-13.9-6.2Z"/>
      <path class="cls-33" d="M845.8,289.3c-1.9-2.2-3.5-4.4-5.6-5.8-2.3-1.5-5.2-2.3-7.9-3.4,5.6-9,14.7-10.6,26.3-5.3,4.4-3.8,1.3-7.9.1-11.6-1-3.2-3.5-6.1.7-8.9.5-.3-.1-3.9-1.1-4.6-3.1-1.9-6.5-3.4-9.9-4.3-9.3-2.5-11-4.1-10.2-13.5.6-6.6-3.2-9.6-8.4-9.7-4.8-.2-8.9-4.4-14.7-1.1-2.5,1.4-6.7-2.8-6.4-8.2,3.2-1.5,6.3-2.4,9.6-3.4,1.2,2.9,2.1,5.3,3.5,8.8,1.4-2.5,2.2-4.1,3.4-6.3,3.1,2.6,5.8,5.2,8.8,7.3,5.2,3.6,9.3,2,11.5-3.8.8-2.1,2.3-4,3.9-5.6.3-.3,3.6,1.3,3.6,2,0,2.5-.5,5.2-1.7,7.4-2,3.7-4.6,7.1-7.2,11.1,9.6,4.5,17.6-8.7,28-1.9-2.1,1.6-3.3,2.9-4.8,3.6-5.9,3.1-6.6,6.7-4.2,12.6,3.4,8.2,6.6,16.7,8.5,25.3.6,2.6-3.3,6.3-5.1,9.5,14.2,7.3,33.7,9.6,32.2,33.7,1.1-.6,2.8-1,3.8-2.2,1.6-1.8,2.5-4.2,4.2-6,3.9-4.2,13.3-1.7,14.8,3.9.3,1.1-.5,3.3-1.5,3.9-4.8,3-9.9,5.7-15.3,8.7-5.1-2.6-8.5-10.9-15.9-2.2-.4-2.3-.9-3.5-.8-4.7.7-7.6-6.5-13.6-13.1-9.9-5.3,3-7.3.4-9.9-3-2.3-3-4.2-6.5-7-8.7-1.9-1.5-5.2-1.1-8.7-1.5-1.5,0-2.1,0-2.7,0-.3-.6-.7-1.3-1-2.3Z"/>
      <path class="cls-2" d="M712.2,836.9c-.3-5.1-.5-10.5.3-15.8.2-1.4,3.5-3.1,5.5-3.2,1.6-.1,3.5,1.8,4.9,2.6,5.2-4.9,9.8-10,15.1-14.1,1.9-1.5,5.7-.5,8.5-.9,2.2-.3,4.4-1,6.5-1.6,2.2-.6,5.1-2.7,6.5-1.9,5.9,3.2,10.2.2,15-2.3,9.4-5,9.4-5,17.2,2.4.6.5,1.6.6,3,.9-1.1,10.1-8,15.9-16.7,19.6-4.9,2.1-9-.8-10.9-5.3-2-4.5-4-4-6.6-1.7,1.1,2.3,2,4.3,3,6.3-2.2,1-4.6,3-6.6,2.7-5.1-.8-10.1-2.7-15.1-4.2-.2-.8-.4-1.7-.6-2.5-1,1.9-2.2,3.8-3.1,5.8-.7,1.6-1,3.3-1.5,5-1.4-1.3-2.9-2.6-4.3-4-.5-.6-.7-1.5-1.6-3.4-2.5,3.5-5.1,6-6.2,9.1-1.5,4.1-3,6.3-7.7,4.4-.9-.4-2.7,1.3-4.5,2.2M750.7,812.6c-1,.9-2,1.7-2.9,2.6,1.8.3,3.6.5,5.4.8-.5-1.1-.9-2.2-2.4-3.4Z"/>
      <path class="cls-2" d="M639.4,886.8c.4-2.2,1.4-4.1,1-5.6-1.1-4.9-.8-7,4.8-4,.8.4,4.6-2.1,4.8-3.6.6-4.8.2-9.7.2-14.4q10.8-4.2,8.8-14.5c.7,0,1.4-.2,1.8,0,8.6,5.9,9.1,5.7,17.5-.8,2.5-1.9,5.8-2.8,8.7-4.2,1.4-.7,3.3-1,4.1-2.1,4.9-7.2,10.6-4,16.4-1.1-1,3.3-2.1,6-3,8.3-16.9-4.9-8.5,10.9-13.6,14.7-4.6-1.6-8.8-3.8-13.3-4.5-2.2-.3-6.7,2.1-6.8,3.5-.5,5.4-5.9,9.9-2.3,16.4,1,1.8-3.3,6.6-5.5,10.6-7.1-5.7-10.7-1.5-14.5,2.5-3.4,3.7-6.7,4.9-9.2-1.5Z"/>
      <path class="cls-2" d="M524,903.3c1.8.2,4.1,1.3,5.3.6,6.9-4.2,10.1-.3,14.2,4.7,3.8,4.6,9.4,6.3,16,4.4,4.5-1.3,9.5-.6,14.2-1.4,1.5-.3,3.5-2.1,4-3.7,1.2-3.5,3.6-4.8,6-2.5,5.1,4.7,11,4.5,17.1,4.4.9,0,1.8,1,2.8,2.1-3,.7-6.6-.1-9,1.2-3.6,2-6.4,5.4-8.5,9.1-3.7.5-7.3,1.1-11.1,1.7-3.5,0-7.4-.7-11,.2-6.8,1.7-13.6,1.4-18.8-2.8-8.4-6.9-17.9-10.2-28.3-11.7-.7-.1-1.3-1-1.7-2.4,3.1-1.8,5.9-2.8,8.7-3.8Z"/>
      <path class="cls-9" d="M524.4,903c-3.2,1.3-6,2.3-9.2,3.5-1.3.2-2.2.2-3.5.2-.4-8.8-.4-17.6-.4-26.7,18,0,35.7,0,53.7.4-2.1,1.7-4.5,2.9-7.5,3.7-2.7-.9-4.7-1.8-6.8-1.8-7.9-.2-15.9,0-23.8,0-13.6,0-13.7,0-13.3,13.8,0,2.2.9,5.9,2.1,6.2,2.3.5,5-.9,7.5-1.5,2.8-.6,5.5-1.3,8.3-1.9-2.2,1.3-4.4,2.5-6.9,4.1Z"/>
      <path class="cls-2" d="M795.7,803c2-4.9,4.4-8.1,11.7-7.9,6.4.2,12.8-1.4,19.1,1.9-3.8,2.7-9.4,3.8-11.3,7.1-4.5,7.8-9.1,2.8-13.7,1.6-1.9-.5-3.5-1.8-5.8-2.7Z"/>
      <path class="cls-31" d="M265.6,209.6c-.1,9.3-2.9,11.5-11.9,9.8-3.5-.7-6.9-2.3-10.3-2.2-1.9,0-3.6,2.8-6.6,5.4-.7-1.3-2.1-3.9-3.5-6.9,4-1.2,8-1.9,11.9-2.6.1.7.2,1.3.4,2,5.5-5.4,12-7.3,20-5.4Z"/>
      <path class="cls-28" d="M416.5,862.2c0-11.4,0-22.4.7-34,1.5-.6,2.6-.6,3.6-.6.2,12.3.5,24.7.8,37.7-1.6-.4-3.3-1.5-5.1-3.1Z"/>
      <path class="cls-2" d="M896.9,602c-1.6-1.4-2.6-2.9-3.7-4.3-.6.2-1.2.4-1.8.7-.2,2-.2,4.2-.7,6.1-.3,1.1-1.5,1.9-2.3,2.8-1-1-2.9-2.1-2.8-2.8.6-3.1,1.9-6.1,3.4-9.2,3.7-.8,6.8-1.5,10-2.1,2.4-.4,4.7-.6,7.1-.8.3,2.8,1.2,5.8.5,8.4-.3,1.1-3.8,1.6-6,2-1,.2-2.2-.4-3.8-.7Z"/>
      <path class="cls-20" d="M450.7,879.6h55.6c.1,2.2.2,3.9-.3,6.1-3.1-.8-5.6-3.1-8.2-3.2-9.2-.5-18.5-.5-27.8,0-2.5.1-4.8,2.8-7.7,4.2-1-.2-1.5-.4-2.1-.6-.6-.4-1.2-.9-2.5-1.7-1.9-.9-3.1-1.4-4.4-1.9,0,0-.3-.4-.8-.7-1-.9-1.5-1.6-1.9-2.2Z"/>
      <path class="cls-9" d="M333.8,816.6c-.3-19.2,0-38.2-.3-57.3,0-4.2,1-6,5.8-5.1-3.4,3.2-3.8,7.4-3.7,12.1.2,16.7.1,33.4.1,50.7-.6.3-1.1,0-2-.4Z"/>
      <path class="cls-31" d="M301.1,180.9c-5.4,6.4-12.9,8.9-22.1,8.2-.5-3-1.3-8,0-8.5,3.8-1.7,8.2-2.9,12.7.2,2,1.4,5.9.2,9.4.2Z"/>
      <path class="cls-2" d="M894,653.6c-1.6-.5-2.9-1.3-4.2-2.1l2.1-.6c-.3-3.6-.7-7.1-.9-10.7-.2-3.7,0-7.5,0-11.7,1.9.2,4.4.6,7.5.9,3.8,8.9-3.2,15.8-4.5,24.3Z"/>
      <path class="cls-2" d="M900.9,556.8c-3.2-3.7-6-7.4-8.7-11.7,1.9-2,3.9-3.6,6.1-5.4,6.8,2.7,8.2,9.2,2.5,17.1Z"/>
      <path class="cls-2" d="M892.2,481.7c1.5-5.1,4.1-1.6,6.6-.4,0,3.9-.6,7.4-.5,10.9.5,9.1.6,9.2-8.3,7.3.1-4.4.8-8.7,2.3-13.4,1.7-1,2.6-1.6,3.4-2.2-1.2-.7-2.4-1.5-3.5-2.2Z"/>
      <path class="cls-31" d="M228.8,213.4c-.9,3.2-2.2,6-3.8,9.6-2.5-1.7-5.2-3.6-8.1-6,0-2.6.1-4.7.3-7,4.3,1.1,7.8,2.1,11.6,3.4Z"/>
      <path class="cls-36" d="M450.5,879.2c.7,1,1.2,1.6,1.9,2.6-6.1-1.9-12.7-3.8-18.8-6.6-3.7-1.7-6.8-4.7-10.1-7.7,3.1,1,6.2,2.8,9.5,4,4.5,1.6,9.2,2.7,14.4,4.1,1.3,1.2,2.1,2.2,3.1,3.6Z"/>
      <path class="cls-33" d="M125,336.9c4.6.6,9,1.3,14.6,2.2-3.6,4-6.4,7.3-9.3,10.5-2.4-4.4-4.1-7.6-6.2-11.1-.2-.8.1-1.2.8-1.6Z"/>
      <path class="cls-2" d="M618,890.5c-.5-7.6,2-10.6,6.5-7.8,2,1.3,1.8,6.1,2.6,9.9-2.8-.3-5.7-1.2-9-2.1Z"/>
      <path class="cls-31" d="M268.8,194.1c.1,3,.2,5.5.2,8.3-2.8-3.3-5.5-6.9-7.9-10.8-.4-.6,1-3,2.1-3.5,2.2-.9,4.7-1.1,8-1.8-.9,2.9-1.6,5-2.4,7.7Z"/>
      <path class="cls-36" d="M506.3,906.7c.3,0,.6,0,1.4.2-2.7.9-6.4,3.3-8.8,2.3-5.9-2.4-11.2-6.4-16.7-10.3,0-.5.1-.7.6-.6,4.9,2,9.3,4,14.1,6.2,3.4.9,6.4,1.5,9.4,2Z"/>
      <path class="cls-7" d="M72.4,239.5c-1.2-1.7-2-3.6-2.8-5.5,3.2-1.3,6.3-2.6,10.1-3.9-1.9,3.1-4.4,6.1-7.2,9.4Z"/>
      <path class="cls-2" d="M900.9,575.8c0-4,.4-8.2.9-12.9,5.9,3.8,5.8,6.7-.9,12.9Z"/>
      <path class="cls-36" d="M482.2,898.5c-4.1-1.9-8.2-3.9-12.3-6.4,0-.5.1-.6.6-.6,4.3,2.3,8,4.5,11.8,6.8,0,0,0,.1-.1.2Z"/>
      <path class="cls-2" d="M624.2,909.1c-1.9.4-3.9.3-7.6.1,2.4-2.7,4-4.4,5.9-6.3.8,1.7,1.3,3.7,1.7,6.1Z"/>
      <path class="cls-31" d="M118.5,456.3c7.2.2,3.5,3.9,1.7,7.4-.8-2.1-1.3-4.4-1.7-7.4Z"/>
      <path class="cls-2" d="M635.2,890c-1.8.2-3.6,0-5.4-.3,0-.8-.2-1.6-.3-2.4,2.1-.5,4.2-1.1,6.7-1.3-.1,1.4-.6,2.5-1,4Z"/>
      <path class="cls-31" d="M119.8,465.8c1.7.1,3.4.8,5.3,1.8-1.1,1.2-2.5,2-3.9,2.7-.5-1.3-.9-2.7-1.4-4.6Z"/>
      <path class="cls-2" d="M900.4,451.1c-1.9,1-3.9,1.5-5.8,2l-.6-1.4c1.8-1.3,3.7-2.5,6-4,.4.8.4,1.8.4,3.4Z"/>
      <path class="cls-36" d="M469.9,891.7c-2.3-.9-4.6-1.9-6.9-3.4,0-.5,0-.6.5-.5,2.5,1.3,4.6,2.5,6.6,3.8,0,0-.1.1-.2.2Z"/>
      <path class="cls-33" d="M904.5,440.1c-4.2-1.1-3.4-3.5-.5-6.2.5,1.8.5,3.7.5,6.2Z"/>
      <path class="cls-2" d="M897.6,512.7c-1.7-.6-3.5-1.6-5.3-3.1,1.7.6,3.5,1.6,5.3,3.1Z"/>
      <path class="cls-2" d="M892.5,533.5c-1.3-1.2-2.3-2.5-3.3-3.8.5-.4,1-.7,1.4-1.1.8,1,1.7,1.9,2.7,3.3,0,.8-.2,1.2-.9,1.6Z"/>
      <path class="cls-31" d="M129.4,468.5c3.2.2,5.6,1.3,1.8,4.9-.9-1.4-1.3-2.9-1.8-4.9Z"/>
      <path class="cls-2" d="M611.1,912.3c.6-3.7,2.4-3.6,4.8-.5-1.4.5-2.8.5-4.8.5Z"/>
      <path class="cls-33" d="M910.5,431.1c.2-1.2.8-2.5,1.9-3.9-.2,1.2-.8,2.5-1.9,3.9Z"/>
      <path class="cls-36" d="M453.4,883c1.2,0,2.5.5,4,1.4-2,2.9-3.4,2.5-4-1.4Z"/>
      <path class="cls-2" d="M605.3,912.7c1.3-.4,2.7-.4,4.7-.4-1.1.3-2.8.5-4.7.4Z"/>
      <path class="cls-36" d="M460.5,886.4c.4-.2.9,0,1.9.5.5.3.6.8.6.8,0,0,0,0-.1.1-.8-.3-1.5-.7-2.4-1.4Z"/>
      <path class="cls-11" d="M336.8,197.4c.5.3.5.5,0,1.2-1.4,1.3-2.3,2.1-3.6,2.9-1.6.9-2.9,1.7-4.6,2.5-25.1,12.9-49.8,25.8-74.4,38.8-1.5.8-2.4,2.5-4,3.8-1.7.4-3.1.9-4.9,1.3-6.2,3.4-11.8,6.9-17.8,10.5-1,.3-1.7.4-2.9.5-3.4,1.3-6.2,2.6-9.2,4-.2.2-.8.2-1.3.2-1.7,0-2.8,0-3.9-.1v-12.4c3.5.2,6.5.5,9.6.5,1.4,0,2.8-.8,4.2-1,4.7-.9,9.5-1.8,14.2-2.6.7-.1,1.5,0,2-.3,4.9-3.4,9.6-7.2,14.7-10.4,3.5-2.2,7.4-3.7,11.1-5.6,8.9-4.5,18-8.7,26.4-14,2.3-1.5,3.2-6.5,3.2-9.9,0-2.9-.9-5.2,2.7-6.4,1.2-.4,2.6-1.6,2.9-2.7,2.6-8.8,10.5-7.3,16.8-8.9.9-.2,2.8.3,3.1.9,2.9,7.3,10,5.3,16,7.2Z"/>
      <path class="cls-14" d="M196.2,742.2c14-9.3,28.2-18.4,42.5-27.3,1.9-1.2,3.9-2.2,6.3-3.4.5,12.4.5,24.8.5,38.2-11.7,0-23.6,0-36.2,0-4.7-2.4-8.7-4.7-13.1-7.5Z"/>
      <path class="cls-20" d="M218.3,754.3c9-.5,18-.5,27.5-.5,0,5.4,0,9.6,0,14.5-2.4-.3-4.7-1.3-7.6-2.6-1.1-.6-1.6-.7-2.1-.9-5.9-3.4-11.8-6.7-17.7-10.5Z"/>
      <path class="cls-1" d="M172.3,249.3c-2.8-8.7-2.8-8.9,5.1-17.5,1.7,3.7,3.5,7.3,8.3,3.5.5-.4,2.7,1.2,4.1,2.7-7.1,2.2-11.9,5.1-8.5,13.6-2.8-.4-5.6-1.3-9-2.2Z"/>
      <path class="cls-11" d="M416.6,158.9c-7.9,3.6-15.8,7.1-23.6,10.8-6.5,3.1-12.8,6.6-19.7,9.9.7-1.4,1.7-3.3,3.3-4.3,8.7-5.7,17.3-11.5,26.4-16.5,4.3-2.4,9.5-3,14.6-4.8.9-.4,1.5-.4,2.5,0,.4.6.4.9,0,1.3-1.4,1.3-2.5,2.5-3.6,3.6Z"/>
      <path class="cls-11" d="M243,234.6c-3.9,2.1-7.5,3.9-11.2,5.7l-1.8-2.5c2.3-2.4,4.3-5.4,7.1-6.8,1.2-.6,4.1,2.1,5.9,3.6Z"/>
      <path class="cls-11" d="M371.5,179.7c-6.1,3.6-12.9,7.2-20.1,10.9.1-1.3.4-3.5,1.4-3.9,5.9-2.6,12-4.7,18.7-7Z"/>
      <path class="cls-11" d="M167.6,287.6c.9-6.5,4-10.5,11.8-9.1.6,1.1.6,1.8.6,2.7,0,.3-.1.8-.1.8,0,0,0,0-.3,0-1.1.4-1.7.9-2.4,1.3,0,0,0,0-.4,0-3.2,1.5-5.9,3-8.8,4.3-.1,0-.3-.3-.3-.3Z"/>
      <path class="cls-11" d="M350.4,190.6c-2.8,1.8-6.1,3.6-9.9,5.5.2-6.3,5-5.6,9.9-5.5Z"/>
      <path class="cls-36" d="M180,280.9c0-.6,0-1.3,0-2.4,2-1.3,4-2.1,6.9-3.3,2.6-.6,4.4-.8,5.8-.7-.9.8-1.4,1.4-2,1.9,0,0,.1,0-.3,0-1.1.5-1.7.9-2.4,1.4,0,0,.1,0-.4,0-2.1.9-3.6,1.7-5.2,2.6,0,0,.1,0-.3,0-1,0-1.6.2-2.2.3Z"/>
      <path class="cls-1" d="M108.4,558.9c0,5.3-2.7,2.6-4.1,1.6-.8-.5-.7-2.5-1-3.8,1.6.6,3.3,1.2,5.1,2.1Z"/>
      <path class="cls-1" d="M109.5,569.6c-1.4,1.5-3.1,2.6-4.8,3.7-.7-4.7.4-6.6,4.8-3.7Z"/>
      <path class="cls-11" d="M193,274.3c-1.7.2-3.5.4-5.7.8.9-1.5,2.2-3.2,3.5-5,.9.9,1.8,1.9,2.6,3.5-.1.7-.5.7-.5.7Z"/>
      <path class="cls-11" d="M165.9,292.7c-1,.5-1.9,1.1-3.2,1.9-.4-.9-.5-2-.5-4,0-.9,0-1.6,0-1.6,1.5-.4,3-.9,5-1.3.5,0,.7.1.8.7-.6,1.9-1.3,3.2-2,4.5,0,0,0,0,0,0Z"/>
      <path class="cls-36" d="M156.7,540.8c.6,1.7.8,3.6,1.2,6.1,0,1-.2,1.3-.9,1.7-.4-2.4-.6-5-.3-7.8Z"/>
      <path class="cls-31" d="M162.2,288.5c0,.5,0,1.1,0,1.5-1.2-.3-2.4-.8-3.6-1.4.7-1,1.4-2,2.2-3,.5.8,1,1.7,1.5,3Z"/>
      <path class="cls-31" d="M213.1,229.8c.9-.9,1.8-1.3,2.8-1.8.1.6.2,1.1.3,1.7-1,.2-2,.3-3.1,0Z"/>
      <path class="cls-1" d="M116.7,580.8c1,0,1.7.3,2.5.5-.2.4-.4.7-.5,1.1-.7-.5-1.5-.9-1.9-1.7Z"/>
      <path class="cls-1" d="M111.9,589.4c.5-.8,1.1-1.2,1.6-1.6.2.6.3,1.2.5,1.8-.7,0-1.4.1-2.1-.2Z"/>
      <path class="cls-36" d="M211.7,265.3c-.8.4-1.4.5-2.4.7-.1-.7.2-1.5.6-2.6,1.3-.4,2.4-.3,4.1-.3.6,0,.3.6.2.8-.8.6-1.5.8-2.5,1.4Z"/>
      <path class="cls-11" d="M160.6,297.2c.2.2.2.4,0,.9-.6-.1-.6-.5,0-.9Z"/>
      <path class="cls-36" d="M208.6,265.9c0,.3-.2.6-.9,1-.2-.4.1-.7.9-1Z"/>
      <path class="cls-36" d="M203.4,268.6c0,.3-.4.6-1.2,1,0-.3.4-.6,1.2-1Z"/>
      <path class="cls-36" d="M198,272.3c-.4.3-.7.3-1.2.3,0-.4.5-.7,1.3-1.2.3.1.2.4-.1.9Z"/>
      <path class="cls-28" d="M236.3,765.1c.2-.1.7,0,1.4.5-.2.1-.7,0-1.4-.5Z"/>
      <path class="cls-11" d="M339.7,196.2c0,.3-.2.7-.8,1.1-.2-.4,0-.8.8-1.1Z"/>
      <path class="cls-18" d="M603.8,783.8c0-1.5-.1-2.9.3-5,3.2-2.9,3.2-4.7-.4-5.9,0-.6-.1-1.2.3-2.6,1.1-2.9,1.6-5,2.4-7,1.2-2.9,2.7-5.8,4.1-8.7,12.8-.1,25.5-.3,39.1.1,8.4,5.5,11.8,12.3,10.2,21.6-.5,3.1,0,6.4,0,9.6,0,13.2,0,26.3,0,39.5-2.2.2-3.7.3-5.5.5.6,2.4,1.2,4.3,1.7,6.2,0,0-.3-.2-.7-.2-4.6-.4-8.3.1-9.2,5.3-.6.5-1.3.9-2.7,1-6.7,1.9-12.7,4.1-18.5,6.6-.5.2-.1,2.5-.2,3.8,0,0-.2-.5-.6-.4-4.5-.5-7.1,1-8.1,5.1,0,0-.4.4-1.3.3-5.7.5-9.2-.3-8.4-6.5.1-.9-1.6-2.1-2.4-3.2,0-1.5-.2-2.9.4-5.1,1.1-1.6,2.1-2.5,2.1-3.5,0-15.9.1-31.7,0-47.6,0-1.3-1.6-2.7-2.5-4Z"/>
      <path class="cls-6" d="M667.1,826.4c-.5-23.8-.5-47.6-.5-71.9h77.9c0,10.4,0,20.6-.1,31.3-18.7,10.2-37.2,19.7-55.8,29.3-7.1,3.7-14,7.4-21.5,11.3Z"/>
      <path class="cls-20" d="M583.4,870.8c-8.3,5.2-17.3,4.7-26.2,4.7-15.2-.1-30.4,0-45.9,0v-120.9h87.6c0,35.3,0,70.5,0,106.3-1.7,1.6-3.4,2.7-5.4,3.2,0-3.2.7-5.9.8-8.6,0-28.2,0-56.5,0-84.7,0-1.8-.2-3.6-.5-5.4-.6-4.4-2.4-6.6-7.5-6.3-22.1,1.7-44.3,2.9-66.4,4.4-4.4.3-6.6,2.5-6.4,7.6.4,9.9.1,19.8.1,29.7,0,20.1.2,40.3-.1,60.4-.1,6.6,2.1,9,8.6,8.9,18-.2,36,0,54-.1,1.9,0,4.8-.2,5.6-1.4,3-4.5,7.1-4.3,11.5-4-3.1,1.9-6.3,3.9-9.6,6.2Z"/>
      <path class="cls-6" d="M531.8,898.8c-3.2.7-5.9,1.3-8.7,1.9-2.5.6-5.2,2-7.5,1.5-1.1-.3-2-4-2.1-6.2-.3-13.8-.2-13.8,13.3-13.8,7.9,0,15.9,0,23.8,0,2.1,0,4.2.9,6.4,1.9-.7,1.1-1.5,1.7-3.3,2.3-2.2.9-3.4,1.8-4.7,2.7-1.4.9-2.9,1.8-5.3,2.6-4.9.2-8.9.4-9.8,5.5-.6.5-1.3.9-2.3,1.4Z"/>
      <path class="cls-20" d="M773.3,770.2c-.6.4-1.2.9-2.6,1.3-2.5,1-4,1.9-5.5,2.8-1.3.9-2.7,1.8-5.1,2.7-3.5-.9-8-1.5-8.2-2.8-.8-4.8-.6-9.9,0-14.8.2-1.4,3.2-3.4,5-3.4,10.6-.1,21.2,0,31.8.5,1.8,0,3.5,1.8,5.2,2.8,0,0,0-.1-.6-.1-8.6-.6-13.3,5.1-18.4,9.9,0,0,0-.2-.3-.1-.6.4-.9.8-1.3,1.2Z"/>
      <path class="cls-9" d="M656.5,832c-.9-1.9-1.5-3.8-2.1-6.2,1.8-.2,3.3-.3,5.5-.5,0-13.2,0-26.3,0-39.5,0-3.2-.5-6.5,0-9.6,1.6-9.3-1.8-16.1-9.6-21.5,3.6-.4,7.4-.4,11.7-.4,0,25.1,0,49.7-.2,74.8-1.8,1.3-3.3,2-5.3,2.7Z"/>
      <path class="cls-32" d="M794.4,759.3c-2.2-.9-3.9-2.6-5.7-2.7-10.6-.4-21.2-.7-31.8-.5-1.8,0-4.8,2-5,3.4-.6,4.9-.8,10,0,14.8.2,1.3,4.6,1.9,7.8,2.8-2.8,1.9-6.3,3.8-10.2,5.9-.4-9.1-.4-18.4-.4-28.8,17.5,0,34.4,0,51.9,0-1.7,1.7-3.9,3.4-6.7,5.3Z"/>
      <path class="cls-9" d="M625.2,848.5c-.4-1.2-.8-3.4-.3-3.6,5.9-2.5,11.9-4.7,18.1-6.6-5.6,3.6-11.5,6.9-17.9,10.2Z"/>
      <path class="cls-9" d="M603.8,844.6c1,.4,2.7,1.6,2.6,2.6-.7,6.2,2.8,7,8.2,6.5-2.9,2.2-6.3,4.3-10.2,6.5-.5-4.9-.6-9.9-.5-15.6Z"/>
      <path class="cls-32" d="M775.4,769.1c4.6-4.7,9.3-10.4,18-9.8-5.4,3.2-11.5,6.5-18,9.8Z"/>
      <path class="cls-2" d="M833.5,774.7c2.2,1.9,3.9,4,6,6.6-6.6.4-7.4-.6-6-6.6Z"/>
      <path class="cls-2" d="M879.8,323.9c-4.4.2-4.5,0-1.8-7.1.6,2.2,1.3,4.4,1.8,7.1Z"/>
      <path class="cls-9" d="M646.6,837.1c.4-5.1,4.1-5.7,8.9-5.1-2.4,1.8-5.4,3.4-8.9,5.1Z"/>
      <path class="cls-9" d="M616.5,853.2c.5-4.1,3.1-5.5,7.7-4.8-2.1,1.7-4.6,3.2-7.7,4.8Z"/>
      <path class="cls-9" d="M534.6,897.3c.4-5,4.3-5.2,8.9-5.4-2.4,1.8-5.4,3.5-8.9,5.4Z"/>
      <path class="cls-1" d="M892.2,482.2c1.2.2,2.4.9,3.5,1.7-.9.6-1.7,1.3-3.1,1.9-.5-1-.5-2-.5-3.6Z"/>
      <path class="cls-32" d="M765.6,774.4c1.1-.9,2.6-1.8,4.7-2.8-1,.9-2.6,1.8-4.7,2.8Z"/>
      <path class="cls-2" d="M876.9,415c.3.8.3,1.4.2,2.1-.6-.2-1.2-.3-1.8-.5.4-.6.8-1.2,1.6-1.7Z"/>
      <path class="cls-9" d="M549.6,889.2c.8-.9,2-1.8,3.8-2.6-.7.9-2,1.7-3.8,2.6Z"/>
      <path class="cls-33" d="M885.3,377.3c-.3-.5-.3-1.1-.3-1.6,0,0,.4,0,.6,0,0,.5,0,1.1-.4,1.6Z"/>
      <path class="cls-2" d="M882.7,424.3c-.4.7-.8,1.4-1.2,2.1-.3-.2-.6-.5-.9-.7.4-.4.9-.8,1.7-1.3.4,0,.4,0,.4,0Z"/>
      <path class="cls-33" d="M868.5,321.3c-.4-1.1-.6-2.5-.8-4.4.4,1,.7,2.5.8,4.4Z"/>
      <path class="cls-2" d="M866,309.6c0,.4-.6.1-.9,0-.3-.2-.3-.8-.2-1.2.4,0,.7.4,1.1,1.2Z"/>
      <path class="cls-13" d="M843,733.2c-.5,0-.5-.7-.4-1,.5,0,1,.2,1.6.8-.1.3-.4.3-1.2.2Z"/>
      <path class="cls-32" d="M773.7,770.2c0-.3.3-.7,1-1.1,0,.3-.3.7-1,1.1Z"/>
      <path class="cls-5" d="M421,827c-1.2.6-2.2.6-3.7.5-.5-21.4-.6-42.9-.7-65.5-.5-3.6-1-6-1.5-8.4,0-.9,0-1.8.4-3.4.8-1.6,1.1-2.4,1.9-3.3,1.4,0,2.5,0,3.7.6,1.8,1.2,3.5,2.2,5.2,2.3,6.8.3,13.5.3,20.1.9-2.8.9-5.3,1.4-7.9,1.7-4.1.5-8.3.9-12.4,1.3-4.1-.1-5.1,1.9-5.1,5.9.2,22.3.1,44.6,0,67.4Z"/>
      <path class="cls-28" d="M426.6,753.9c3.6-.6,7.8-1,11.9-1.5,2.6-.3,5.1-.8,8.5-1.8,4-.7,7.3-.8,11.2-.8,7.5.3,14.4.4,21.3.6,0,.9,0,1.7,0,3-17.4.5-34.8.6-52.8.5Z"/>
      <path class="cls-8" d="M603.3,684.7c.2-2.3,0-4.5,1-5.7,18.6-22.3,37.4-44.5,56.5-66.4.7,32.8.9,65.3,1.1,97.8,0,12.9,0,25.8,0,39.4-3.4,0-6.3,0-9.7-.6.3-3,1.2-5.3,2.5-7.6,1.7.7,3,1.3,4.5,2v-46.9c-2.4,3.1-3.7,4.8-5.4,6.5-4.7,3.7-8.8,7.7-13.4,10.9-9.4,6.6-19,12.9-28.6,19.2-4.4,2.9-7,6.3-4.2,12.2,2.5,0,4.9.1,7.4,0,6.5-.4,13.1-1.6,19.5-1,4.4.4,8.6,3.3,12.9,5h-44c0-21.3,0-42.8-.2-64.8Z"/>
      <path class="cls-8" d="M421.8,685.4c7.7,8.9,15.5,17.7,23.3,26.6,12.2,13.9,27.8,20.7,45.9,22.5,5,.5,10,.8,15.6,1.3.5,3.8.3,7.5-.5,11.8-14.3.6-27.9.5-41.5.7-2.4,0-4.7.9-7,1.3-3.3,0-6.5.2-10.4.4-7.4,0-14.1,0-20.9-.3-1.7,0-3.3-1.2-5-2.9,0-5,0-8.8.1-12.7.1-16.3.3-32.5.4-48.8Z"/>
      <path class="cls-8" d="M513.5,736c2.8-.1,5.5-.3,9.3.1,6.8.8,12.6,1.4,18.4.9,1.8-.1,3.4-3.1,5.1-4.8,12.9-4,22.7-12.3,32.4-22.2,3-2.9,5.1-5.7,7.1-8.5.6-.9,1.2-1.8,2.3-2.4,7,4.5,9.8,9.9,8.9,18-.9,7.8.2,15.9-.4,23.8-.2,2.9-2.5,5.7-3.9,8.5-7.3.1-14.7.3-23-.1-15.4-.7-29.8-1-44.2-1.1-12,0-12,0-12-12.3Z"/>
      <path class="cls-18" d="M654.4,741.5c-.8,2.4-1.7,4.7-2.6,7.6-1.1.6-2.2.6-3.7.6-4.8-1.9-9-4.8-13.4-5.2-6.4-.6-13,.6-19.5,1-2.4.1-4.9,0-7.4,0-2.8-5.9-.2-9.3,4.2-12.2,9.6-6.3,19.2-12.6,28.6-19.2,4.6-3.2,8.6-7.2,13.4-10.2.5,12.9.5,25.3.5,37.6Z"/>
      <path class="cls-27" d="M752.8,707.3c15.4,11,30.7,22,46.3,34-1.5,2.5-3.1,5-5,5.4-3.4.7-7.1,0-10.7.3-2.1.2-4,1.6-6,2.5-6,0-11.9.2-18.6-.3-6.7-5.4-8.3-11.8-7.5-19.2.3-2.5-.9-5.1-1.4-7.7-.1-.6-.2-1.2.2-2.6,1.2-4.7,1.9-8.5,2.6-12.4Z"/>
      <path class="cls-18" d="M463.4,887.8c-.5,0-.6-.6-.6-.8,2.4-1.7,4.7-4.4,7.2-4.5,9.2-.5,18.5-.5,27.8,0,2.6.1,5.1,2.4,8.1,3.8.6,4.3.6,8.4.1,13.3-3.6,2.1-6.6,3.5-9.6,4.8-4.4-1.9-8.8-3.9-13.7-5.9-4.3-2.3-8-4.6-12.3-6.9-2.5-1.3-4.6-2.5-7.1-3.8Z"/>
      <path class="cls-3" d="M593.4,749.6c.8-3,3.1-5.7,3.3-8.6.5-7.9-.5-15.9.4-23.8.9-8.1-1.9-13.5-8.5-18.2,3.3-4.9,6.8-9.2,10.7-13.6.2,19.6-.2,39.2-.2,58.9,0,3.9-.6,6.2-5.7,5.3Z"/>
      <path class="cls-9" d="M603.7,784.5c1,.7,2.6,2,2.6,3.4.2,15.9.1,31.7,0,47.6,0,.9-1,1.9-2,2.9-.6-17.7-.7-35.5-.7-53.9Z"/>
      <path class="cls-3" d="M513.1,735.9c.5,12.4.5,12.3,12.5,12.4,14.4.1,28.8.4,43.6,1-18.8.4-38,.4-58.2.4,0-4.1,0-8.2,0-13.1.5-.7,1.1-.8,2.2-.7Z"/>
      <path class="cls-8" d="M778,749.6c1.4-1,3.3-2.3,5.4-2.6,3.5-.4,7.3.4,10.7-.3,2-.4,3.5-2.9,5.3-5,4,2,7.9,4.6,12.1,7.6-10.8.4-21.7.4-33.4.3Z"/>
      <path class="cls-8" d="M749.8,722.9c.6,1.9,1.8,4.6,1.5,7.1-.8,7.4.8,13.8,6.9,19.1-2.6.5-5.2.5-8.5.5,0-8.7,0-17.3.1-26.6Z"/>
      <path class="cls-3" d="M458.1,749.8c1.7-.6,4.1-1.4,6.4-1.4,13.6-.1,27.2,0,41.4,0-1.2.7-3,1.9-4.9,1.9-6.8.2-13.6,0-21,0-7.5,0-14.4-.2-21.9-.5Z"/>
      <path class="cls-9" d="M610.2,754.4c-1,3.1-2.5,5.9-3.7,8.8-.8,2-1.3,4.2-2.3,6.6-.5-4.3-.5-8.9,0-14.2,1.6-.9,2.7-1.1,3.8-1.3.6,0,1.3,0,2.3.1Z"/>
      <path class="cls-20" d="M496.9,904.7c2.6-1.7,5.6-3.1,9.1-4.6.5,1.7.5,3.6.5,6-3.1,0-6.1-.6-9.5-1.5Z"/>
      <path class="cls-9" d="M603.7,773.4c3.7.6,3.7,2.5.6,4.8-.5-1.4-.6-2.8-.6-4.8Z"/>
      <path class="cls-12" d="M607.5,754.1c-.6.4-1.7.6-3.2.8.6-.3,1.7-.7,3.2-.8Z"/>
      <path class="cls-29" d="M661.1,191.7c-1.9-.4-3.9-1.4-6.5-2.8-3.3-1.6-5.8-2.8-8.5-4.3-1-.6-1.8-.8-2.7-1.4-.6-.5-1-.7-1.5-1.2-.1-.3-.3-.8.1-.9.8-.1,1.2-.2,1.5-.2,2,.3,3.9.7,6.4,1.2,4.1,3.1,7.7,6.1,11.3,9.5Z"/>
      <path class="cls-13" d="M662.3,194.6c-.3,0-.6-.2-1-.9.5-.2.8.1,1,.9Z"/>
      <path class="cls-16" d="M506.7,115.4c-2.7,0-5.5.2-8.8.3,2.6-1.9,5.6-5.1,9-5.6,5.8-.9,11.8,0,17.7,0,2.8,0,5.6-.5,8.9-.9,0,5.5,5.2,7.2,10.5,8.8,6.6,1.9,9.4,10.1,17.1,10.3,1.1,0,2.4.7,3.3.4,5.3-2,8.3.6,10.2,5,2,4.6,5.9,6.1,10,4.5,6.5-2.5,10.2,1.2,11.7,5.9,1.7,5,4.6,4.5,7.8,3.6,3.5-1.1,5.6-.7,6.7,3.1.3,1,1.9,2.5,2.8,2.5,7.6-.7,10.1,4.4,12.4,10.2.5,1.4,2.1,2.3,3.1,3.5,2,2.5,4,5,5.5,8-1.5.5-2.5.5-3.6,0-9.7-8.1-20.1-14.1-32.7-16.1-.2-.2-.3-.7-.3-1.2-2.8-1.7-5.5-2.8-8.2-3.9,0,0,0,.1,0-.3-.9-.6-1.8-.7-3.2-1-13.7-7-27-13.9-40.5-21.2-3.3-2-6.3-3.5-9.4-5.1,0,0,0,0,0-.3-.4-.7-.8-.9-1.6-.9-.3-.1-.9-.2-1.2-.6-7.8-3.1-15.3-5.9-23.1-9-1.6-.3-2.9-.1-4.2,0Z"/>
      <path class="cls-16" d="M494.3,116.1c-4.5,2.8-9.2,5.1-14.2,7.4-.9-.9-1.9-2-1.7-2.7,1.1-3.4,12.1-6.9,15.9-4.7Z"/>
      <path class="cls-16" d="M643.4,180.4c-.3.6-.7.6-1.8.7-1.4-.3-1.9-.7-2.4-1.5-.4-1.7-.8-2.9-1.2-4.1,1.9-.9,3.8-1.8,6.8-3.2-.6,3.4-1,5.5-1.3,8.1Z"/>
      <path class="cls-29" d="M637.5,175.5c.9,1.2,1.3,2.4,1.2,4-1.9-.2-3.4-.8-4.9-1.3,0,0,0,0-.2-.4-1-.6-1.8-.8-2.6-1.3,0-.3-.2-.8-.1-.9,0,0,.1-.1.1-.1,1,0,2.1,0,3.6,0,1.1,0,1.7,0,2.8,0Z"/>
      <path class="cls-29" d="M424.8,152.4c0,.5-.6.9-1.8,2-1,1.5-1.4,2.4-1.9,3.1-.3-1-.4-1.6-.5-2.3,0-.3,0-.5,0-1.1,1.2-.8,2.5-1.2,4.2-1.6Z"/>
      <path class="cls-1" d="M478.5,116c-.6-.2-1-.5-1.3-.9,0,0,.3-.3.5-.4.4.4.7.8.9,1.4Z"/>
      <path class="cls-9" d="M414.5,753.8c1.1,2.3,1.7,4.7,2,7.6-12.1-8.8-25.2-5-38.2-2.5-.9.2-1.8.3-2.7.2-9.9-.9-19.7-1.8-29.5-2.8-.6,0-1.1-.7-1.9-1.5,23.1-.6,46.4-.8,70.3-1Z"/>
      <path class="cls-27" d="M329,656.6c0,30.7,0,61.4,0,92.6h-78.3c0-13.8,0-27.8.7-42.5,14.5-9.8,28.3-18.8,42.6-27.9,6.3-3.9,12.2-7.6,17.9-11.5,1.9-1.3,3.3-3.2,5.5-4.9,3.3-1.5,6.1-2.9,9.4-4.4,1-.5,1.6-.9,2.3-1.4Z"/>
      <path class="cls-27" d="M334.4,658.1c-.1-.6-.2-1.2.3-2.3,1.2-1.7,1.8-3,2.8-4.5,3.8-2.5,7.1-4.8,10.8-6.6,2.1,2.2,4.7,3.7,5.5,5.9,9.1,26.2,26.9,45.7,47.6,63.2,2.9,2.4,7.2,4.9,7.8,8,1.2,6.6.5,13.6.2,20.4,0,1.1-2.3,2.9-3.5,2.9-18.8,0-37.6-.6-56.5-.5-5.2,0-10.3,1-13.6-4.9,0-14.3,0-28,0-41.6,0-2.3-.9-4.7-1.4-7-.1-2.3-.2-4.7.3-7.9.4-8.9.1-16.9-.1-24.9Z"/>
      <path class="cls-8" d="M335.8,740.1c3.4,5.3,8.4,4.2,13.6,4.2,18.8,0,37.6.5,56.5.5,1.2,0,3.4-1.8,3.5-2.9.3-6.8,1-13.8-.2-20.4-.5-3-4.9-5.5-7.8-8-20.7-17.4-38.5-37-47.6-63.2-.8-2.2-3.4-3.7-5.2-6.2,7.2-4.2,10.6-9.8,10.6-17.9,0-4.1,1.8-8.1,2.8-12.2,17.9,21.4,35.8,42.7,53.5,64.2,1,1.2,1.2,3.1,1.6,5.7-.1,21.7-.1,42.3,0,63-.3.9-.7,1.8-1.5,2.9-26.5.1-52.5,0-79.3-.5-1.1-.7-1.5-.9-1.9-1.1,0-.6-.2-1.2.3-2.6.8-2.4,1-4,1.2-5.6Z"/>
      <path class="cls-3" d="M335.8,739.4c-.2,2.3-.5,3.9-1.1,5.8-.5-17.5-.6-35.4-.6-53.8.6,1.7,1.6,4,1.6,6.4.1,13.7,0,27.3,0,41.6Z"/>
      <path class="cls-3" d="M334.3,658.7c.4,7.3.6,15.3.4,23.7-.5-7.4-.5-15.2-.4-23.7Z"/>
      <path class="cls-3" d="M334.7,651.9c.7-.5,1.2-.4,2.1-.4-.2,1.2-.8,2.5-1.8,3.8-.4-.9-.4-1.9-.2-3.3Z"/>
      <path class="cls-3" d="M334.3,748.7c.5-.3.9,0,1.4.5-.4.2-.9,0-1.4-.5Z"/>
      <path class="cls-30" d="M333.2,570.9c.3-.1.7,0,1.2.7-.3.1-.7,0-1.2-.7Z"/>
      <path class="cls-1" d="M920.3,356.7c2.5-.5,4.8-.7,7-.8-.5,1.2-.7,3.1-1.4,3.3-2.2.6-5.6,2.8-5.6-2.6Z"/>
      <path class="cls-1" d="M751.2,812.6c1,1.1,1.4,2.3,1.9,3.4-1.8-.3-3.6-.5-5.4-.8,1-.9,2-1.7,3.5-2.6Z"/>
      <path class="cls-36" d="M224.5,258.9c-.3.8-1.1,1.6-2.2,2.8-2.1.6-4,.8-6.3,1.1,2.3-1.3,5.2-2.6,8.5-3.9Z"/>
      <path class="cls-18" d="M592.9,864.6c-4.3-.3-8.5-.5-11.5,4-.8,1.2-3.7,1.3-5.6,1.4-18,0-36,0-54,.1-6.5,0-8.7-2.3-8.6-8.9.4-20.1.1-40.3.1-60.4,0-9.9.3-19.8-.1-29.7-.2-5.1,2-7.3,6.4-7.6,22.1-1.5,44.3-2.7,66.4-4.4,5.1-.4,7,1.9,7.5,6.3.2,1.8.5,3.6.5,5.4,0,28.2,0,56.5,0,84.7,0,2.7-.7,5.3-1.2,8.6,0,.6-.1.4,0,.5Z"/>
      <path class="cls-28" d="M417.4,746.9c-.4-20.7-.4-41.3-.2-62.5,1.4-.1,2.6.2,4.2.8.3,16.5.2,32.7,0,49,0,3.8,0,7.7-.3,12.2-1.2.6-2.3.6-3.7.6Z"/>
      <path class="cls-3" d="M686.8,462.8c0,.4.2.9,0,2.1-1,3.6-1.7,6.5-2.4,9.3-5.3,22.3-9.1,45-16.2,66.7-8.2,25.1-25.8,41.1-54.1,43.7-3.9,0-7.2,0-10.9-.1-1,0-1.6,0-2.8-.1-23.6-2.7-41.2-13.7-52.5-34.1-4.4-7.9-7.4-16.6-11.4-24.7-5.5-11-14.5-17.6-27-17.6-12.8,0-22,6.4-27.3,18-3.6,7.8-6.5,15.9-10.2,24.1-1.5,2.4-2.7,4.5-3.8,6.7,0,0,0,0-.4.2-7,6.5-13.6,12.7-20.1,19,0,0,0,0-.5,0-3.3,1.5-6.1,2.9-9.4,4.3-1.1.4-1.7.8-3,1.2-15.7,3.9-30.8,3.4-46.1-.4-.2,0-.4.2-.7-.2-3.1-1.5-5.8-2.7-8.8-4.1-.8-.5-1.5-.8-2.4-1.4-2-1.5-3.8-2.6-5.6-3.7,0,0,0,0,0-.3-.5-.6-1-.9-1.5-1.5-.4-.7-.7-.8-1.4-1.2-1-.7-1.7-1-2.4-1.3,0,0,.1,0,0-.5-2-2.7-3.9-5-5.9-7.6-.3-.8-.6-1-1.1-1.6-1-1.5-1.8-2.7-2.7-3.7,0,0,0,0,0-.5-2.7-7.2-6-13.8-7.9-20.8-5-18.8-9.7-37.8-13.9-56.8-1.3-5.6-.6-11.6-.6-17.8,1.7-2.9,3.1-5.4,4.8-8,.7-.3,1-.7,1.1-1.1,0,0,0,0,.3,0,.6-.5.9-.9,1.1-1.2,0,0,0,0,.5,0,4.4-1,8.4-2.6,12.3-2.7,33-.2,66.1.2,99.1-.1,13.6-.1,24.4,5,32.9,15,2.7,3.2,4.8,3,8.1,1.7,8.7-3.6,17.7-3.8,26.8-1.4,3.2.9,6.3,2.2,9.1,3.3,6.5-10.6,14.9-18,27-18.2,37.1-.5,74.3-.4,111.4-.3,9.6,0,16.4,6.9,17.6,16.7-.1.8,0,1.1.5,1.3Z"/>
      <path class="cls-14" d="M359.4,282.2c1.2-1.1,2.2-1.9,3.9-3,1.6-1,2.5-1.7,3.4-2.4,18.3-4,33.8-13.6,49.4-23.4,19.8-12.5,40.2-24.3,63.2-29.9,32.4-7.9,63.2-2.6,92.8,13.6,1.5,2.4,2.6,4.1,4,5.2.9.7,2.8.3,3.7,1,4.3,3.2,8.2,7.1,12.9,9.6,2.4,1.3,6.1,0,9.2,0,.2,0,.5.2.4.9-.2,5.8,2.4,7,9,5.1,0,0,.4.2.2.8-.3,2.1-.4,3.6-.5,5.9,2.8-1,4.9-1.7,7-2.4,0,0,.3,0,.1.7-1.9,5.9,2.3,5.9,5.4,7,5.4,2,10.8,3.9,16,6.3,1.1.5,2.2,2.8,2,4-1.8,9.4,1.4,20.1-7.6,27.7-1.6,1.3-1.6,4.4-2.8,6.5-2.4,4.6-4.7,9.3-7.7,13.5-4,5.7-12.4,8.3-11.8,17.3,0,.7-1.5,2.4-2,2.3-7.2-1.6-5.6,3.6-6.5,7.4-21.3,0-42,0-62.7,0-63,0-125.9,0-188.9,0-4.4,0-8.2-.3-7.8,6.1,0,1.6-3.1,3.4-4.8,5.2,2.3-5.8,5.3-11.4,6.8-17.4,1.9-7.4,2.5-15.2,3.7-22.8,1.7-11,3.3-22,5.4-33,.8-3.9,2.9-7.6,4.5-11.8Z"/>
      <path class="cls-19" d="M377.4,575.9c.6.2,1.3.5,2.1,1.5,3.2,1.9,6.1,2.9,9.1,3.9,0,0,.2-.3.4.3,3.7,2.2,7,4.8,10.6,5.1,9,.6,18.2,0,27.2.3,4.5.2,7.4-1.2,8.8-5.6.7-.4,1.3-.8,2.7-.9,5.3,1.5,8-.5,9.5-4.7,0,0,0,.1.5,0,9.7-3.7,18-8.2,20-19.2,0,0,0,.1.5,0,1.5-2.4,2.6-4.6,3.6-6.9,3.2-8,6.2-16.1,9.8-23.9,5.3-11.6,14.5-18,27.3-18,12.5,0,21.5,6.6,27,17.6,4.1,8.1,7.1,16.8,11.4,24.7,11.3,20.3,28.9,31.3,52.7,34.3,1.5.3,2.3.1,3,0,3.3,0,6.6,0,10.8.3,2.1.7,3.2,1,2.8.9-3.9,3.2-8.2,6.8-13.5,11.2,4.3,1.7,6.9,2.8,10.9,4.4-5,2.2-8.2,4.7-12.2.8-1.2-1.2-3.3-1.6-4.9-2.4-.2,1.9-.5,3.8-.8,6-3.1.2-6.6.4-10.7.7,1,2.3,1.6,3.8,2.2,5.2-3,2.3-5.6,4.3-8.3,6.4-5.7-2.8-6.6-2.3-6.8,4.1,2.2-.3,4.3-.6,7.2-1-2.5,5.3-4.2,9.2-10.7,7.1-4.3-1.3-6.5,1.3-7.1,5.9-.4,3.2-1.9,6.3-2.9,9.5,3.3,2.9,8.1,6.5,12.1,10.9,1.4,1.5.6,4.9.9,7.4-2.1-.3-4.3-.5-6.4-1-2.2-.5-4.4-1.2-5.8-1.7,0,6.2,0,11.7,0,17.1,0,3.1-.7,6.3-.3,9.3.6,4.5,1.8,9,2.8,13.4l-2.1.4c-2.2-5.2-4.3-10.5-6.3-15.3-4.2,6.3-7.7,11.4-11,16.3-3.1-1.3-5.2-2.1-7.3-3l-1.2,1.8c3.9,3.7,7.8,7.4,11.7,11-2.8,2.1-12.4-3.2-18.9-11.7-.7,3.6-1.6,5.8-1.4,7.9,0,.9,2.7,1.3,3.7,2.4,2.2,2.2,4,4.7,6,7.1-2.6,1.2-5.2,2.7-7.9,3.4-3,.7-6.3.4-9.4.9-4.9.9-9.8,2.2-14.7,3.3-1.9.4-3.9.8-5.8,1.2-18.7-.3-35.3-5.6-47.8-20.6-27.5-33-55.1-65.8-82.6-98.8-7.1-8.5-10.6-18.5-10.3-29.6.2-4.4-1.4-5.9-5.7-7.1-10.4-3-18.5-10.7-21.3-20.5-6.2-21.5-11.1-43.5-15.1-65.6-2-11.1,1.2-13.7,14.1-16.9,1.3,3.8,2.4,7.3,2.7,10.9.6,9.3,7.1,17.8,3.8,27.9-.7,2.1,1.8,5.4,3.1,8,.8,1.6,2.5,2.9,2.9,4.5,2.1,8.1,3.7,16.3,5.9,24.3,1.4,5,2.2,10.6,8.4,12.6,0,0,0,.1-.1.6.9,1.5,1.9,2.6,2.9,3.6.5.1.8.4,1.1,1.7.9,4.1.9,8,6,7.6,0,0,0,.2,0,.5.9.6,1.7.9,2.5,1.2.4,0,.8.2,1.3,1.2.7.9,1.1,1.2,1.5,1.5,0,0-.1,0,0,.4,2,1.5,3.9,2.5,5.9,3.6Z"/>
      <path class="cls-8" d="M680.7,383.6c10.9.2,21.7.8,32.6.6,14.5-.3,23.6,7.4,28.9,19.7,5,11.8,0,22.1-8.4,30.1-7.7,7.3-16.3,13.6-24.9,19.9-3.1,2.3-7.2,3.1-11.7,4.8,0-9,0-16.6-.4-25.3-2.7-1.5-5-2.4-7.3-2.4-116.9,0-233.8,0-350.7,0-2.3,0-4.7.9-7,1.7,0,.2,0,.7-.5.9-.7.2-1,.3-1.3.4,0,0-.6-.2-.9-.8-3-.4-5.6,0-8.3.2-.6,8-1.2,16-1.8,24.7-2.3-.9-5.1-1.4-7.1-3-10.1-7.6-20.3-15.1-29.8-23.5-8.3-7.3-10.5-17.1-6.1-27.3,4.6-10.6,11.8-19.2,24.5-19.8,10.4-.5,20.9-.2,31.9.5q.7,15.9,15.6,15.9c104.4,0,208.9,0,313.3,0q17.8,0,19.4-17.4Z"/>
      <path class="cls-9" d="M680.6,383.1q-1.6,17.9-19.3,17.9c-104.4,0-208.9,0-313.3,0q-14.9,0-14.9-15.8c1.8-6.2,3.6-11.8,5.7-17.7,1.9-2.1,5.1-3.9,5-5.5-.4-6.5,3.4-6.1,7.8-6.1,63,0,125.9,0,188.9,0,20.7,0,41.4,0,63.3,0,21,0,40.8,0,60.5,0,3.8,0,6.4.3,7.2,5,.3,1.7,3,3.1,4.6,4.6,1.5,5.7,3,11.5,4.6,17.7Z"/>
      <path class="cls-25" d="M499.2,725c1.3-.5,3.3-.9,5.2-1.3,4.9-1.1,9.8-2.4,14.7-3.3,3.1-.6,6.4-.2,9.4-.9,2.7-.7,5.3-2.2,7.9-3.4-2-2.4-3.8-4.9-6-7.1-1-1.1-3.6-1.5-3.7-2.4-.2-2.1.7-4.2,1.4-7.9,6.4,8.5,16,13.7,18.9,11.7-3.9-3.6-7.8-7.3-11.7-11l1.2-1.8c2.1.9,4.2,1.7,7.3,3,3.3-4.9,6.7-10,11-16.3,2,4.8,4.1,10,6.3,15.3l2.1-.4c-1-4.5-2.2-8.9-2.8-13.4-.4-3,.3-6.2.3-9.3,0-5.4,0-10.9,0-17.1,1.4.4,3.6,1.2,5.8,1.7,2.1.5,4.2.7,6.4,1-.2-2.5.5-5.9-.9-7.4-4-4.4-8.8-8-12.1-10.9,1-3.2,2.5-6.3,2.9-9.5.6-4.6,2.8-7.2,7.1-5.9,6.5,2,8.2-1.8,10.7-7.1-3,.4-5.1.7-7.2,1,.3-6.4,1.1-6.9,6.8-4.1,2.7-2.1,5.3-4.1,8.3-6.4-.6-1.4-1.2-3-2.2-5.2,4.1-.3,7.6-.5,10.7-.7.3-2.3.5-4.1.8-6,1.7.8,3.7,1.2,4.9,2.4,3.9,3.9,7.1,1.3,12.2-.8-4-1.6-6.6-2.7-10.9-4.4,5.4-4.5,9.6-8,13.5-11.2.5.1-.7-.2-2.2-.8,27.3-2.9,44.9-19,53.1-44.1,7.1-21.7,10.9-44.4,16.2-66.7.7-2.9,1.4-5.7,2.4-9,10.7.3,15.6,4.1,14.8,13.7-2.2,24.9-5,49.8-15.8,72.8-4.1,8.6-10.8,15-20.2,18.4-1.8.7-3.9,3.8-3.9,5.8.1,13-4.9,24-12.9,33.7-24.9,30.2-50.6,59.7-74.7,90.5-17.4,22.3-40.4,26.7-66.2,25.5-2.7-.1-5.5-.3-8.8-.5Z"/>
      <path class="cls-26" d="M686.4,461.2c-1.3-9.5-8.1-16.4-17.7-16.4-37.1-.1-74.3-.2-111.4.3-12.1.2-20.5,7.6-27,18.2-2.9-1.1-5.9-2.4-9.1-3.3-9-2.4-18.1-2.3-26.8,1.4-3.3,1.4-5.4,1.5-8.1-1.7-8.5-10-19.3-15.1-32.9-15-33,.3-66.1,0-99.1.1-3.9,0-7.9,1.7-12.3,2.2,2.6-2.8,5.7-5.3,8.8-7.8-.2-.9-.4-1.8-.6-2.7-3.6,0-7.3.3-10.9-.1-2.1-.2-4.1-1.5-5.5-2.4,100.6-.1,200.6-.2,300.6-.2,17.8,0,35.5.2,53.3.4-.1,8.6-.3,17.1-.6,26.3-.2.6-.5.7-.5.7Z"/>
      <path class="cls-32" d="M676,364.8c-1.6-.9-4.3-2.3-4.6-4-.8-4.6-3.4-5-7.2-5-19.7.1-39.5,0-59.9,0-.4-3.8-2-9,5.2-7.4.5.1,2.1-1.5,2-2.3-.7-9,7.7-11.6,11.8-17.3,3-4.2,5.3-8.9,7.7-13.5,1.1-2.1,1.2-5.2,2.8-6.5,9-7.5,5.9-18.3,7.6-27.7.2-1.2-.9-3.6-2-4-5.2-2.3-10.6-4.3-16-6.3-3.1-1.1-7.3-1.2-5.3-7,4.7,1.8,9.1,4.2,13.9,7.2.9.6,1.3.7,1.6.8.3,0,.5,0,1.2.6.8.7,1.2.8,1.6.9,8.4,3,17.7,4.3,24,13,1,2.1,1.5,3.6,2,5.1,1.2,7.9,2.3,15.8,3.8,24.1,3.4,16.5,6.6,32.5,9.7,49Z"/>
      <path class="cls-3" d="M331.8,432.6c2.3-.5,4.7-1.4,7-1.4,116.9,0,233.8,0,350.7,0,2.3,0,4.6.9,7.1,1.9-2.2.6-4.6.6-8,.2-2.1-.5-3.3-.8-4.4-.8-117.5,0-235,0-352.5,0Z"/>
      <path class="cls-20" d="M331.8,432.9c117.5-.3,235-.3,352.5-.3,1.1,0,2.2.3,3.8.8.4.4,0,.7-.2.8-18,0-35.8-.3-53.5-.3-100,0-200,0-300.9,0-1.2-.1-1.4-.2-1.7-.3,0,0,0-.5,0-.7Z"/>
      <path class="cls-26" d="M356.5,553.5c-6-1.5-6.9-7.1-8.3-12.1-2.2-8-3.8-16.3-5.9-24.3-.4-1.6-2.1-2.9-2.9-4.5-1.3-2.6-3.8-5.9-3.1-8,3.3-10.1-3.2-18.5-3.8-27.9-.2-3.6-1.4-7.1-2.2-11.2,0-2.4,0-4.2.5-6.5,1.3-.5,2.2-.5,3-.5.2,5.8-.4,11.8.9,17.4,4.3,19,8.9,38,13.9,56.8,1.9,7,5.1,13.5,7.9,20.8Z"/>
      <path class="cls-19" d="M334.1,458.1c-1.1.4-2,.4-3.2.4-.5-6.4-.7-12.8-.4-20,.4-.9.6-1.1.6-1.1-.1-.3-.4-.5-.6-.7-.1-.6-.2-1.1-.4-2.1.2-.5.5-.6,1.2-.8.7,0,.9,0,1.5.3,2.4.9,4.4,2.2,6.5,2.5,3.6.4,7.3.1,10.9.1.2.9.4,1.8.6,2.7-3.1,2.5-6.2,5-9.3,7.9,0,.5,0,.4-.4.5-.6.5-.8.8-1.1,1.2,0,0,0,0-.3,0-.6.4-.9.7-1.1,1.1-1.4,2.5-2.8,5-4.5,8Z"/>
      <path class="cls-3" d="M545.8,732.2c-1.2,1.7-2.7,4.7-4.6,4.8-5.8.4-11.6-.2-17.8-.8,7-1.6,14.4-2.8,22.4-4Z"/>
      <path class="cls-3" d="M585.5,701.8c-1.7,2.5-3.8,5.3-6.3,8,1.6-2.6,3.8-5.2,6.3-8Z"/>
      <path class="cls-3" d="M321.4,433.5c2.1-.4,4.7-.7,7.5-.5-2.2.5-4.6.5-7.5.5Z"/>
      <path class="cls-26" d="M330.4,436.9c.3,0,.5.2.7.4,0,0-.2.3-.5.5-.3-.1-.3-.4-.2-.9Z"/>
      <path class="cls-25" d="M686.3,461.5c0-.3.4-.3.5-.3.2.3.2.5.1,1.2-.6.2-.8-.1-.6-.9Z"/>
      <path class="cls-12" d="M327.6,563.3c-.3,0-.7-.3-1.1-1,.3,0,.7.3,1.1,1Z"/>
      <path class="cls-21" d="M697.6,666.8s0,0,0,0c0,0,0,0,0,0Z"/>
      <path class="cls-27" d="M654.8,741.5c-.5-12.4-.5-24.7-.5-37.7,1.3-2.3,2.6-4,4.9-7.1v46.9c-1.5-.7-2.7-1.3-4.5-2Z"/>
      <path class="cls-29" d="M598.1,157.7c-2.4-.5-4.7-1.5-7.6-2.6-.5,0-.6-.7-.7-1,2.7.8,5.5,2,8.3,3.6Z"/>
      <path class="cls-29" d="M589.9,153.4c-.8.2-1.5,0-2.5-.5.7-.2,1.6,0,2.5.5Z"/>
      <path class="cls-32" d="M601.6,252.6c-2.9.4-6.6,1.6-9,.4-4.7-2.5-8.6-6.4-12.9-9.6-1-.7-2.8-.3-3.7-1-1.5-1.1-2.5-2.8-3.7-4.8,9.7,4.5,19.4,9.7,29.3,15.1Z"/>
      <path class="cls-32" d="M611,258.6c-6.3,2.3-8.9,1.1-8.5-4.5,3.1,1.1,5.6,2.6,8.5,4.5Z"/>
      <path class="cls-32" d="M617.7,263c-1.8,1-3.9,1.7-6.8,2.7.1-2.3.2-3.8.7-5.8,2.2.6,4,1.7,6.1,3.1Z"/>
      <path class="cls-36" d="M663,291.5c-.9-1.3-1.4-2.7-2-4.7,3.4-.2,5.5.8,2,4.7Z"/>
      <path class="cls-36" d="M366.1,276.8c-.4.7-1.3,1.3-2.6,2.1.4-.7,1.3-1.4,2.6-2.1Z"/>
      <path class="cls-26" d="M435,581.5c-.8,4.3-3.7,5.7-8.2,5.6-9.1-.3-18.2.3-27.2-.3-3.5-.3-6.9-2.9-10.4-5,15,3.1,30.2,3.7,45.9-.2Z"/>
      <path class="cls-26" d="M467.9,557c-1.6,10.8-9.9,15.3-19.6,19,6.1-6.3,12.7-12.5,19.6-19Z"/>
      <path class="cls-26" d="M447.4,576c-1,4.1-3.8,6.1-8.6,4.7,2.5-1.7,5.3-3.2,8.6-4.7Z"/>
      <path class="cls-26" d="M366.2,567c-4.9.8-5-3.1-5.8-6.8,1.9,1.8,3.8,4.1,5.8,6.8Z"/>
      <path class="cls-26" d="M388.3,580.9c-2.6-.6-5.6-1.7-8.6-3.3,2.7.6,5.5,1.7,8.6,3.3Z"/>
      <path class="cls-26" d="M472.1,550.1c-.7,2-1.8,4.3-3.3,6.6.6-2.1,1.8-4.2,3.3-6.6Z"/>
      <path class="cls-26" d="M377.1,575.5c-1.7-.7-3.6-1.7-5.6-3.2,1.8.6,3.5,1.7,5.6,3.2Z"/>
      <path class="cls-26" d="M359.2,557.8c-.9-.6-1.8-1.7-2.8-3.3.9.6,1.8,1.7,2.8,3.3Z"/>
      <path class="cls-26" d="M368.6,568.8c-.6,0-1.4-.2-2.3-.9.6,0,1.4.2,2.3.9Z"/>
      <path class="cls-25" d="M603.3,584.4c-.3.3-1.1.4-2,.3.4-.3,1-.3,2-.3Z"/>
      <path class="cls-26" d="M340.3,448.8c0-.3.2-.6.8-1.1,0,.3-.2.6-.8,1.1Z"/>
      <path class="cls-26" d="M338.8,450c-.1-.3.1-.6.8-1,.2.3,0,.7-.8,1Z"/>
      <path class="cls-26" d="M371.4,571.5c-.3,0-.7-.2-1.2-.8.3,0,.7.2,1.2.8Z"/>
      <path class="cls-29" d="M568.1,213.9s0,0,0,0c0,0,0,0,0,0Z"/>
      <path class="cls-29" d="M613.3,242.5s0,0,0,0c0,0,0,0,0,0Z"/>
      <path class="cls-29" d="M631,175c-9.7-8.1-20.1-14.1-32.5-15.9v.3l4,2.1c0-.1,0-.3,0-.4,9.6,5.1,18.5,9.7,27.9,14.4.5,0,.6,0,.6-.5Z"/>
      <path class="cls-18" d="M699.7,668.6h0s-15.3-11.2-15.3-11.2h0c0,0-.2-.1-.3-.2-5.5-4.2-11-7.8-17.1-10.8-.6,34.7-.6,68.8-.6,103.1h77.6v-48.6c-14.7-10.6-29.5-21.2-44.4-32.3Z"/>
      <path class="cls-8" d="M750.2,704.9c-.1,5.2-.2,9.9.1,14.4,1.1-4.2,1.8-8.1,2.2-12.3,0-.2-.2-.3-.2-.5l-2.1-1.5Z"/>
      <path class="cls-29" d="M673.1,299.2c-2-7.5-4.1-14.5-6.2-22,0-.3,0-.6-.1-.9-.4-1.7-1.6-3.1-2.9-4.2-.8-.3-1.5-.6-2.2-.8-2.5-1-5-2.1-7.5-3.2,0,0,0,0,0,0h0c-3.5-1.6-7.1-3.2-10.9-5.2l-16-9c-.6-.3-.9-.5-1.3-.9l-16.6-12.3c-1-.5-1.8-1.1-2.5-1.8l-10.4-7.5h0c-5-2.9-9.5-5.6-14.3-8.6l-7.8-4.7-18.5-8.2c-7.9-2.7-15.9-5.4-24-7.6-6.3-1.7-13-1.8-19-2.3h-6.1v.3c-18.7.5-36,4.1-52.1,12.3-8.5,4.3-16.7,9.2-25,13.8-2.6,2.1-5.2,4.1-8.2,6.1-1.5.5-2.5,1.2-4.2,2.3-9.5,7.1-18.4,13.6-27.3,20.2l-24.6,12.7h0c-3.4,1.9-6.8,4-10.2,6.4,1.3,3.2,2.8,5.5,4.4,7.8,1-.7,2-1.5,3.3-2.5,1.2-1,2-1.8,3.3-2.5,18.7-4,34.3-13.6,49.9-23.4,19.8-12.5,40.2-24.3,63.2-29.9,32.4-7.9,63.2-2.6,92.8,13,10,5.5,19.7,10.6,29.6,16,.4.4.7.5,1.1.8,2.8,1.8,5.4,3.3,8.2,5.2.3.3.6.5.8.6,2,1.2,3.8,2.3,5.9,3.7.3.3.6.4.7.5,4.5,2.5,8.9,4.9,13.7,7.5.8.3,1.1.5,1.5.9.4.2.7.3,1.4.5.7.3,1,.5,1.4,1,8.6,3.2,17.8,4.5,24,12.8,3.9.5,6,1.5,2.5,5.3.8,8.1,1.9,16,3.8,24.3,2.8-2.3,4.9-5.1,7-8.4,0-2.4-.2-4.3-.3-6.1-.2-.6-.3-1.1-.5-2.1Z"/>
      <path class="cls-36" d="M749.3,389.3c-1.2-.9-2.3-1.1-3.7-1.7-12.7-13.5-29-12.2-45-12.2-13.1,0-13.1-.1-15-13.5-.8-2-1.7-3.4-2.6-5.2-2.9-16.3-5.9-32.1-9-48.4-2.3,2.3-4.4,5-7,7.8,2.7,16.1,5.8,32.1,9,48.6,1.5,6.3,3,12.1,4.6,18.3,10.9.7,21.8,1.3,32.7,1.1,14.5-.3,23.6,7.4,28.9,19.7,5,11.8,0,22.1-8.4,30.1-7.7,7.3-16.3,13.6-24.9,19.9-3.1,2.3-7.2,3.1-11.7,4.8,0-9,0-16.6-.2-24.8-2.6-.5-4.9-.4-7.9-.4-.6,0-1,.3-1.2.4-.4,8.6-.5,17.2-.8,26.4,0,.9,0,1.2-.1,1.9,0,.8,0,1.3.2,2.1,10.4,1.1,15.4,4.8,14.5,14.4-2.2,24.9-5,49.8-15.8,72.8-4.1,8.6-10.8,15-20.2,18.4-1.8.7-3.9,3.8-3.9,5.8.1,13-4.9,24-12.9,33.7-24.9,30.2-50.6,59.7-74.7,90.5-17.4,22.3-40.4,26.7-66.2,25.5-2.7-.1-5.5-.3-8.8-.5-19.4-.5-35.9-5.7-48.4-20.7-27.5-33-55.1-65.8-82.6-98.8-7.1-8.5-10.6-18.5-10.3-29.6.2-4.4-1.4-5.9-5.7-7.1-10.4-3-18.5-10.7-21.3-20.5-6.2-21.5-11.1-43.5-15.1-65.6-2-11.1,1.2-13.7,14-17.4.5-2.1.5-3.9.6-6.2,0-6.9-.1-13.4-.1-20.4,0-.9,0-1.1.1-1.7,0-.9-.1-1.4-.3-2.4,0-.4-.6-.6-.9-.8-2.6-.2-4.9-.1-7.8-.2-1.2,7.9-1.7,16-2.4,24.7-2.3-.9-5.1-1.4-7.1-3-10.1-7.6-20.3-15.1-29.8-23.5-8.3-7.3-10.5-17.1-6.1-27.3,4.6-10.6,11.8-19.2,24.5-19.8,10.4-.5,20.9-.2,31.9,0,2.4-5.4,4.2-11,6.3-17,2.6-6.2,5.5-11.8,7-17.8,1.9-7.4,2.5-15.2,3.7-22.8,1.7-11,3.3-22,5.4-33,.8-3.9,2.9-7.6,4.5-11.8-1.3-2.7-2.9-5-4.4-7.8-7.6,5.2-8.8,13.9-10.6,22.2-.8,3.5-1.3,7.1-2.1,11.2-2,13.4-3.7,26.3-5.5,39.2-.3,2.3-1.5,4.5-2.7,6.7-1.7,2.5-2.9,5-4.6,7.6-.5,4.3-.5,8.6-.5,14.1-8.7,0-17.3,0-25.8,0-15.8,0-27.2,7.4-34.6,21.2-7.9,14.6-5.7,30.1,6,41.9,1.2,1.2,2.2,2.4,3.3,3.9h0s.3.4.3.4c.7.9,1.4,1.9,2.2,3l8.9,6.7h0c6.4,2.8,11.4,8.3,17.7,11.4.7.4,1,2.4.8,3.6-3.2,26.2,4.8,50.9,10.2,76,.2.9.4,1.8.9,3.4.9,2.2,1.5,3.6,2.1,5,1.5,2.6,2.9,5.2,4.5,8.3.5.6.8.8,1,1.4.4.6.8.9,1.3,1.6.1.4,0,.4,0,.4.6,1.5,1.1,3,2.1,5,1.4.9,2.4,1.4,3.3,1.8.4.2.8.4,1.3,1,0,.4,0,.4,0,.4,6.8,3.3,12.4,6.5,14.5,15.6,2.1,9.1,8.4,17.2,13,26.2,18,21.8,35.9,43.2,53.7,64.6,1,1.2,1.2,3.1,1.9,5.2,1.3.9,2.4,1.2,4.1,1.8,8.2,9,15.9,17.9,23.7,26.8,12.2,13.9,27.8,20.7,45.9,22.5,5,.5,10,.8,16,1.4,2,.1,2.9.1,3.8.1.6,0,1.2-.1,2.3-.1,3.2,0,6-.2,9.3-.2,8-1.1,15.4-2.2,23.4-3.4,13.4-4,23.2-12.3,32.5-22.2,2.5-2.8,4.7-5.4,7.3-8.2,1-1.1,1.6-2,2.6-3.1,3.8-4.5,7.3-8.9,11.5-13.4,1.7-.6,2.6-.9,3.5-1.3.4-1.7.2-3.9,1.2-5.1,18.6-22.3,37.4-44.5,56.9-66.7,2.2-.6,3.6-1.4,5.1-2.1,1.7-9.3,3.4-18.6,5.3-27.8.3-1.5,1.7-3,2.9-4.2,6.6-7,13.4-13.8,20.4-21,1.1-1.8,1.9-3.3,3-5.1.8-1.6,1.4-2.9,2.3-4.4,2.3-11.3,4.7-22.3,6.2-33.5,2-15.6,7.8-30.9,4.3-47.1-.2-.8.2-2.2.7-2.4,8.7-3.9,13.9-14.1,25.5-13.6,2.1-.8,3.7-1.5,6.2-2.4,1.6-3,2-5.7,2.9-8.3.9-2.7,2.3-5.3,3.5-7.9.8-2.1,1.5-4.2,2.5-6.7.3-.9.4-1.5.7-2.4-1-11.4-2.1-22.4-3.4-34Z"/>
      <polygon class="cls-4" points="209.3 749.6 811.4 749.3 801 754 218.3 754.3 209.3 749.6"/>
      <polygon class="cls-4" points="667.1 826.4 666.7 642.1 662.1 630.5 661.7 829.3 667.1 826.4"/>
    </g>
    <g id="Layer_2" class="cls-22">
      <rect class="cls-4" x="278.3" y="687.9" width="478.7" height="3.5"/>
      <rect class="cls-4" x="319" y="645.4" width="3.3" height="81.5"/>
      <rect class="cls-4" x="380" y="605.1" width="3.8" height="153.6"/>
      <rect class="cls-4" x="509.5" y="671.2" width="3.9" height="146.5"/>
      <rect class="cls-4" x="443" y="780.5" width="139" height="2.8"/>
      <rect class="cls-4" x="577.8" y="631.8" width="3.2" height="187.2"/>
      <rect class="cls-4" x="623.6" y="588.9" width="3.4" height="171.6"/>
      <rect class="cls-4" x="683.9" y="640.3" width="4.4" height="83.9"/>
      <rect class="cls-4" x="444.4" y="625.3" width="2.9" height="163.7"/>
    </g>
  </g>
</svg>