<?xml version="1.0" encoding="UTF-8"?>
<svg id="Layer_1" data-name="Layer 1" xmlns="http://www.w3.org/2000/svg" version="1.1" viewBox="0 0 1024 1024">
  
  <path style="fill:#fff" d="M439.4,139.4c-4.6-3.7-9.9-6.3-15.7-7.8-4-6.3-9.4-9.5-16-9.7-19.3-.4-38.1,0-56.3,1-1,0-1.6,0-1.8-.1h-1.1c-13.6,5.9-26.9,12.5-39.7,19.7,5.3,0,10.6,0,15.9,0,10.9,0,21.8,0,32.7,0v25.8h-42.1c6.2,4.8,11.9,10,16.9,15.5,2.9,3.2,4.6,7.3,5.2,12.3.5,4.3-1.4,9.5-2,14-1.5,12,2,23.1,11.4,30.3,13.8,10.6,25.5,1.5,34.8-9.2,8-9.1,15.8-18.2,25.3-25.9,6.1-4.9,12.4-9.2,19.1-12.8,6.5-3.6,13.1-8.5,17.8-14,10-11.6,7.6-29.6-4.5-39.1Z"/>
  <path style="fill:#fff" d="M279.1,201.4c-8-7.8-16.8-9.5-26.8-9.6h-.2c-2.2,0-4.6,0-6.9.1-1,0-1.8,0-2.4-.1h-4.2c-14.4,12.4-27.9,25.8-40.4,40.1.3-.3.7-.7,1-1,35.8.3,59.8.4,71.8.2,11.1-.1,16.1-6,14.9-17.6-1.2-4.9-3.5-8.9-6.8-12.1Z"/>
  <path style="fill:#021a24" d="M296.4,49.5C360,19.3,426.2,2.8,495.2,0c.7,0,1,.3,1,1l.2,53c0,.7-.3,1-1,1.1-44.4,1.2-89.4,11.3-131.4,26.1-20.3,7.2-43.5,17.8-69.7,31.9-10.2,5.5-20.7,11.9-31.2,19.2-43.9,30.1-80.7,64-110.3,101.8-23.8,30.4-43.2,62.7-58.3,97-5.2,11.8-10.2,24.5-15.1,38-14,38.6-21.8,77.9-23.3,118,0,.9-.5,1.3-1.3,1.3H.9c-.4,0-.7-.4-.7-.8H.1c.1-5.2.4-10,.8-14.4,5.9-67.3,24-132.7,56.1-192.3,30.8-57.3,70.2-107.5,118.1-150.7,26-23.5,57.6-45.6,86.2-62.3,10.6-6.2,22.3-12.3,35.1-18.4h0Z"/>
  <path style="fill:#021a24" d="M922.7,316.7c-31.1-64-76.5-119.2-132.3-163.7-9.1-7.3-19.2-14.4-30.2-21.4-25.8-16.5-50.3-29.7-73.4-39.7-27-11.6-56.6-21-88.9-28.1-22.3-4.9-45.2-7.7-68.8-8.5-.4,0-.7-.3-.7-.7l.2-53.3c0-.4.3-.8.8-.8h0c89.8,3.4,172.5,28.7,247.9,75.9,12.9,8.1,28.9,19.4,48.2,33.9,17.2,13.1,35.3,29.7,54.3,49.8,40.6,43.1,73.4,91.2,98.6,144.5,15.8,33.5,27.2,69.5,35.2,105.5,5.4,24.3,8.7,49.8,10,76.5,0,.9-.7,1.7-1.6,1.7h-53.4c-.7,0-1.1-.3-1.2-1-1.1-14-2.3-29-4.5-42.8-7.2-44.8-20.6-87.4-40.2-127.8h0Z"/>
  <path style="fill:#021a24" d="M798.1,204.2c-2.1,3.3-3.6,7.9-4.5,13.8-1.1,7-4.8,10.6-11.2,10.7-2,0-4.5-.6-7.4-1.9-2.5-1.1-4.9-2.1-7.2-3.1-7.7-10.6-19.3-14.5-31-8.6-3.7,1.8-6.5,3.6-8.5,5.3-7.2,6.1-14.2,11.8-21.2,16.9l-26.7-21.9c-8.5-15.4-26.1-17.8-40.8-10.1-19.1,10.1-35.1,25.4-48.2,45.8-3.6,5.6-6.2,11.2-8,16.7-.8,2.4-1,5.4-.7,9,2.1,10.4,7.4,18.2,16,23.4,5.1,3,10.9,4.1,17.5,3.3,6.2-.8,11.4-4.2,16-8.1,4.7-4,9.4-7.9,14.1-11.9,4.1-3.4,7.5-5.3,10.2-5.7,8.3-1.1,13.6,2.5,15.8,11-7.2,7.4-15.1,14.5-23.7,21.2-5.2,4.1-10.3,7.5-15.2,10.3-1.7,1-3.6,1.4-5.5,1.4-8.2,0-16.2,0-23.7.3-26.7,1-53.1,24.8-69.1,45.6-7.6,9.9-15.7,25.7-15.8,38.7-.2,0-.4.4-.4,1.1-.6,18.6,14.4,32.2,32.9,30.5,5.7-.5,11.2-2.3,16.3-5.2,5.3-3.1,9.6-6.1,12.7-9.1,6.6-6.3,13.8-13.9,21.6-22.9,2.6-2.9,5.6-5,9.2-6.2,6.3-2.1,17,5.5,21.5,9.1,10.2,8,19.7,16.4,30.6,24,5,3.5,9.7,5.5,14,6,19.7,2.4,26.7-14.5,34.1-28.7,11-21,36-43.1,60.6-28.6,9,5.3,22.5,13.8,17.1,25.9-4.8,10.7-28.6,7.5-37.5,6.1-1.6-.3-2.7,0-3.2.7-2-.7-4.2-.9-6.6-.5-10.4,1.5-15.9,7.1-16.3,16.9-1.2,3.7-.9,7.6.8,11.8,2.2,5.5,7,8.3,12.9,8,5.3-.3,10.7-.3,16,0,5.3.3,4.3,4.5,5.5,7.8-.5-.1-.8,0-1.1.4-4.3,6.9-9.7,13.4-16.2,19.6-4,3.8-8.5,5.8-13.7,6-17.6.7-33.1-1.6-46.7-6.8-15.9-6.2-33-13.3-51.2-21.3-16.5-7.3-32.8-6-48.7,3.7-19.4,11.9-36.4,26.4-51,43.5-9.8,11.5-17.3,25.9-22.5,43.1-3.6,12.1-5,23.3-4.1,33.6-.5,2.5-.2,5.2.8,7.8,5.4,14.4,12.9,26.3,22.6,35.8,10.8,10.5,23.3,20.3,37.6,29.4,4.8,3,10.8,5.8,16.5,6.5,9,1.2,18.7.9,28.8-.8,5.7-1,11.4-.9,17,.1,3.5.6,6.8,2.9,9.7,6.9-.9,1.2-1.3,2.7-1.4,4.4,0,15.4,0,50.8,0,106.1,0,3.9.3,9.4,1.1,16.6,2.3,19.8,12.1,33.8,28.4,44.5,21,13.7,44.4,10.4,63.4-4.9,10-8.1,15.5-19.6,20.3-31.4,6.7-16.4,27.7-16.1,35.5-32.1,1.7-3.4,2.4-7.9,2.3-13.5-.7-22-.7-44.4-.5-66.2.1-15,5.9-25.8,18.9-32.5,8-4.1,15.7-8.1,23.1-11.9,13.4-6.8,22.7-18.6,16.8-34.4-2.8-7.4-8.3-12.7-16.6-15.7-7-2.6-14.3-1.7-21.6-1.8-9-.2-13.4-9.5-16.3-16.7-10.7-26.8-22.6-53-35.8-78.5,7-5.2,12.1-11,15.2-17.2,13.8,24,25.2,49.2,34.3,75.6,2.2,6.5,4.8,11.9,11.7,13.1,17,2.8,24.1-11.7,25.1-26.1,1-15,13.5-17.2,25.7-17.2,17.7,0,36,.2,54.7.6,4.1,0,8-.4,11.7-1.6l-1,18.4c-.6,5.7-1.3,11.5-1.9,17.3-9.1,78.2-37.3,148.5-84.6,210.7-68.2,89.7-170.7,150.8-282.8,167.6-10.6,1.6-22.4,2.6-35.3,3.1-.6,0-1-.3-1-.9,0-7,0-14.4.2-22,0-3.8-.5-7-1.8-9.5-7.9-15.7-29.7-10.5-30.2,6.4-.3,8.1-.3,16.5-.2,25.2,0,.4-.3.7-.6.7h0c-29-.9-57.1-5.2-84.3-12.9-48.6-13.7-95.9-34.5-136.4-63.5-18.8-13.5-34.9-26.4-48.3-38.7-27-24.9-51.5-54.7-73.4-89.6-31.8-50.7-51.7-106.9-60.6-165.6-2.3-15.9-3.7-31.9-4.1-47.9,2.7.7,5.4,1,8,1,5,0,9.4,1.8,13.2,4.9,13,10.9,27.2,21.1,45.3,16.1,9.7-2.7,20.2-15.3,16.3-25.6-4.1-10.8-16.6-18-26.3-24-3.9-2.4-6.5-6-6.4-10.8.2-11,.4-20.9.6-29.6,0-2.4.6-4.8,1.6-7.1.6-1.4,2-2.3,3.5-2.4,14.3-.2,28.9,0,43.9.6,6.3.3,12.7.3,19.3,0,16.7-.6,16.8-13.1,17.8-25.8.5-6.7,3-12.5,6.4-18.1,10.2-17.1,22.6-31.3,37.3-42.6,11.1-8.6,24.2-13.8,36.9-19.8,10.7-5.1,16.4-13,16.9-23.5.8-14.1-13.3-23.6-23.7-30.1-4.4-2.7-8.4-5.9-12-9.4-6.4-6.1-11.9-13.2-16.5-21.2-3-5.4-6.7-8.4-11-9-6.2-.7-11.1,2.8-14.8,10.6-4.2,8.9-8.4,17.6-12.6,26.2-3.2,6.6-7.9,9-13.9,7.3-4.4-1.2-9.3-3.4-14.9-6.6-9.7-5.6-19.2-11.4-28.5-17.4-.6-.4-.7-.8-.3-1.4,7.5-11.3,15.7-21.3,24.5-29.9,35.8.3,59.8.4,71.8.2,11.1-.1,16.1-6,14.9-17.6-1.2-4.9-3.5-8.9-6.8-12.1-9.9-9.6-21-10-34-9.4-4,.2-4.5-1.1-1.5-3.7,5.2-4.7,10.6-9,15.9-13.1,11.1-8.3,22-15.6,32.5-21.9,16.1,8.6,29.5,18.8,40.2,30.5,2.9,3.2,4.6,7.3,5.2,12.3.5,4.3-1.4,9.5-2,14-1.5,12,2,23.1,11.4,30.3,13.8,10.6,25.5,1.5,34.8-9.1,8-9.1,15.8-18.2,25.3-25.9,6.1-4.9,12.4-9.2,19.1-12.8,6.5-3.6,13.1-8.5,17.8-14,10-11.6,7.6-29.6-4.5-39.1-4.6-3.6-9.9-6.3-15.7-7.8-4-6.3-9.4-9.6-16-9.7-19.3-.3-38.1,0-56.3,1-2.4.1-2.5-.3-.3-1.2,42.1-17.6,85.2-28.2,129.4-31.8,5-.4,10-.7,15-.7.7,0,1.1.3,1.1,1.1-.1,10.4-.1,19.9,0,28.5.5,22.3,31.6,23.2,31.5-.8,0-9.3-.1-18.6-.1-27.7,0-.7.3-1,1-.9,14.8.5,28,1.7,39.5,3.6,61.8,10.1,118.8,31.7,171.2,64.8,21.2,13.4,40.7,29,58.5,46.6h0ZM438.1,226.9c.9,9.4,5.6,15.4,14.1,18,7.6,2.4,17,2.9,28.2,1.7,14.2-1.6,21.7-8.2,22.7-19.7-5.2-10.6-12.6-16.8-22.2-18.7-6.6-1.3-12.6-1.5-18.2-.7-12.2,1.8-20.4,8.2-24.6,19.4h0ZM544.8,315.3c-.2-6-5.6-10.6-11.9-10.4h0c-6.3.2-11.3,5.3-11.1,11.2h0c.2,6,5.6,10.6,11.9,10.4h0c6.3-.2,11.3-5.3,11.1-11.2h0ZM188.6,645c4,14.9,12.7,27,26.2,36.3,8.9,6.1,17.5,12.2,26,18.1,6.5,4.6,10.3,11.2,10.7,19.1.1,2.1.4,4.2.7,6.2v44.5c-.7.6-1.1,1.2-1.1,1.9-.5,28,20.1,49.4,43.9,63.2,13.5,7.8,26.5-1.2,26.3-16,0-9.2,0-19.8.4-31.8.3-9.7,10.8-15.2,17.9-20.1,8.2-5.7,12.3-12.2,14.2-21.6,1.4-6.5,5.4-11.6,11-14.9,10-5.8,19.5-11.6,28.5-17.2,10-6.2,15.6-16.3,15.5-28.1-.1-19.1-.1-36.5,0-52,.1-12-6.6-19.7-16.2-26.2-12.6-8.7-26.1-16.2-37.9-25.8-5.6-4.5-11-9-16.3-13.5-3.4-2.9-7.5-5.2-12.1-5.2-8.1,0-15.8-.2-22.8-.6-7.7-.4-15.7-5.6-21.6-10.4-2.7-2.3-5.6-4.8-8.7-7.6-6.5-6-13.4-10.7-20.7-14-8.3-7.2-16.9-9.4-26-6.6-13.8,4.3-25.9,19.6-31.6,32.8-10.6,24.3-12.9,49-11.3,74.9.3,5,1.9,9.9,4.8,14.7h0Z"/>
  <path style="fill:#fff" d="M503.1,226.9c-5.2-10.6-12.6-16.8-22.2-18.7-6.6-1.3-12.6-1.5-18.2-.7-12.2,1.8-20.4,8.2-24.6,19.4h0c.9,9.4,5.6,15.4,14.1,18,7.6,2.4,17,2.9,28.2,1.7,14.2-1.6,21.7-8.2,22.7-19.7Z"/>
  <path style="fill:#fff" d="M392.7,606.4c-12.6-8.7-26.1-16.2-37.9-25.8-5.6-4.5-11-9-16.3-13.5-3.4-2.9-7.5-5.2-12.1-5.2-8.2,0-15.8-.2-22.8-.6-7.7-.4-15.7-5.6-21.6-10.4-2.7-2.3-5.6-4.8-8.7-7.6-6.5-6-13.4-10.7-20.7-14-8.3-7.2-16.9-9.4-26-6.6-13.8,4.3-25.9,19.6-31.6,32.8-10.6,24.3-12.9,49-11.3,74.9.3,5,1.9,9.9,4.8,14.7h0c4,14.9,12.7,27,26.2,36.3,8.9,6.1,17.5,12.2,26,18.1,6.5,4.6,10.3,11.2,10.7,19.1.1,2.1.3,4.2.7,6.2v44.5c-.7.6-1.1,1.2-1.1,1.9-.5,28,20.1,49.4,43.9,63.2,13.5,7.8,26.5-1.2,26.3-16,0-9.2,0-19.8.4-31.8.3-9.7,10.8-15.2,17.9-20.1,8.2-5.7,12.3-12.2,14.2-21.6,1.3-6.5,5.4-11.6,11-14.9,10-5.8,19.5-11.6,28.5-17.2,10-6.2,15.6-16.3,15.5-28.1-.1-19.1-.1-36.5,0-52,.1-12-6.6-19.7-16.2-26.2Z"/>
  <path style="fill:#fff" d="M544.8,315.3c-.2-6-5.6-10.6-11.9-10.4s-11.3,5.3-11.1,11.2c.2,6,5.6,10.6,11.9,10.3s11.3-5.3,11.1-11.2Z"/>
  <path style="fill:#fff" d="M528.5,914c0-3.8-.5-7-1.8-9.5-7.9-15.7-29.7-10.5-30.2,6.4-.3,7.8-.3,15.9-.2,24.3,6.5.3,13,.4,19.5.4s8.4,0,12.6-.2c0-6.8,0-13.9.2-21.4Z"/>
  <path style="fill:#fff" d="M96.6,519.6c5,0,9.4,1.8,13.2,4.9,13,10.9,27.2,21.1,45.4,16.1,9.7-2.7,20.2-15.3,16.3-25.6-4-10.8-16.6-18-26.3-24-3.9-2.4-6.5-6-6.4-10.8.2-11,.4-20.9.6-29.7,0-2.4.6-4.8,1.6-7.1.6-1.4,2-2.3,3.5-2.3,14.3-.2,28.9,0,43.9.6,6.3.3,12.7.3,19.3,0,16.7-.6,16.8-13.1,17.8-25.8.5-6.7,3-12.5,6.4-18.1,10.2-17.1,22.6-31.3,37.3-42.7,11.2-8.6,24.2-13.8,36.9-19.8,10.7-5.1,16.4-13,16.9-23.5.8-14.1-13.3-23.6-23.7-30.1-4.4-2.7-8.4-5.9-12-9.4-6.3-6.1-11.8-13.2-16.5-21.2-3-5.4-6.7-8.4-11-9-6.2-.7-11.1,2.8-14.8,10.6-4.2,8.9-8.4,17.6-12.6,26.2-3.2,6.6-7.9,9-14,7.3-4.4-1.2-9.3-3.4-14.9-6.6-9.7-5.6-19.2-11.4-28.5-17.4-.4-.3-.6-.6-.5-1-51.7,70.2-82.2,156.9-82.2,250.7s0,4.8,0,7.2c1.4.2,2.8.3,4.3.3Z"/>
  <path style="fill:#a63d30" d="M423.8,131.5c5.8,1.5,11,4.2,15.7,7.8,12.1,9.5,14.5,27.5,4.5,39.1-4.7,5.5-11.4,10.5-17.8,14-6.7,3.7-13,7.9-19.1,12.8-9.5,7.7-17.3,16.7-25.3,25.9-9.3,10.6-21,19.7-34.8,9.1-9.4-7.2-13-18.3-11.4-30.3.6-4.5,2.4-9.7,2-14-.6-5-2.3-9.1-5.2-12.3-10.6-11.7-24-21.8-40.2-30.5,6.8-4.4,12.1-7.4,16-8.9,2.8-1,5.8-1.6,9-1.6,30.1-.4,60-.5,89.9-.4,3.9,0,9.9-.9,13-2.9,2.6-1.7,3.9-4.4,3.7-8h0Z"/>
  <path style="fill:#fff" d="M680.4,215.3l-3.3,2.3c-.5.4-1.1.5-1.7.5-7.8-.6-15,1-21.9,4.7-16.5,9-29.7,21-39.7,36-4.2,6.3-7,12.8-14.8,15.4-5,1.7-10.5,2.5-16.4,2.5-.3-3.6,0-6.6.7-9,1.7-5.5,4.4-11,8-16.7,13.1-20.4,29.1-35.7,48.2-45.8,14.7-7.8,32.2-5.3,40.8,10.1h0Z"/>
  <path style="fill:#046f7a" d="M798.1,204.2c22.4,21,42.8,44.4,61.3,70.1,20.5,28.6,36.8,59,48.8,91.4,18,48.5,28.9,102.2,26.9,154.1-3.7,1.2-7.5,1.7-11.7,1.6-18.7-.4-37-.7-54.7-.6-12.2,0-24.8,2.2-25.7,17.2-.9,14.4-8,28.9-25.1,26.1-7-1.2-9.5-6.6-11.7-13.1-9.1-26.4-20.5-51.6-34.3-75.6,2.4-4.1,3.8-7.8,4.1-11,.4-3.9-.6-7-2.9-9.4-3-3-7.9-2.3-11.9-2-1.2-3.3-.2-7.5-5.5-7.8-5.3-.3-10.6-.4-16,0-5.8.3-10.7-2.4-12.9-8-1.7-4.1-1.9-8.1-.8-11.8,4.6,2.2,9.6,2.4,15,.5,8.6-3,11.2-8.6,7.9-16.8.5-.8,1.6-1,3.2-.7,8.9,1.4,32.7,4.6,37.5-6.1,5.4-12.1-8.1-20.6-17.1-25.9-24.5-14.5-49.6,7.6-60.6,28.6-7.4,14.3-14.4,31.2-34.1,28.7-4.3-.5-9-2.5-14-6-10.9-7.6-20.3-16-30.6-24-4.6-3.6-15.2-11.2-21.5-9.1-3.6,1.2-6.7,3.2-9.2,6.2-7.8,9-15,16.6-21.6,22.9-3.1,3-7.3,6-12.7,9.1-5.1,3-10.6,4.7-16.3,5.2-18.5,1.7-33.5-12-32.9-30.5,0-.6.2-1,.4-1.1,6.6.2,12.7-.6,18.4-2.4,1.3-.4,2.3-1.4,2.9-2.6,8.5-19.2,22.3-32.8,38.3-45.9,7.9-6.5,17.2-13,27-13.7,9.6-.6,19.4.2,28.7-1.9,16.1-3.6,29.7-14.2,42.7-24.7,5.1-4.1,11.7-9.2,13.3-15.6,3-11.9-9.4-14.6-18.2-10.9-2.2-8.5-7.5-12.2-15.8-11-2.8.4-6.2,2.3-10.2,5.7-4.7,4-9.4,7.9-14.1,11.9-4.6,3.9-9.8,7.2-16,8.1-6.6.9-12.5-.2-17.5-3.3-8.6-5.2-13.9-12.9-16-23.4,5.9,0,11.4-.8,16.4-2.5,7.8-2.6,10.6-9.1,14.8-15.4,10-15,23.2-27.1,39.7-36,6.8-3.7,14.1-5.3,21.9-4.7.6,0,1.2-.1,1.7-.5l3.3-2.3,26.7,21.9c-1.7,1.4-2.3,3.7-2,6.8,1.5,13.5,14.1,12.5,21.7,5.3,5-4.7,10-9.5,15.2-14.3,7-6.6,15.6-10.4,25.7-11.3,2.3.9,4.7,1.9,7.2,3.1,3,1.3,5.4,2,7.4,1.9,6.4-.1,10.1-3.7,11.2-10.7.9-5.9,2.4-10.5,4.5-13.8h0Z"/>
  <path style="fill:#a63d30" d="M285.9,213.5c1.2,11.6-3.8,17.5-14.9,17.6-12.1.1-36,0-71.8-.2,5-6.1,10.8-12.1,17.5-17.9,1.4-1.2,2.8-1.9,4.2-1.9,21.4-.2,43.1.6,65.1,2.4Z"/>
  <path style="fill:#fff" d="M767.8,223.7c-10.1.9-18.7,4.6-25.7,11.3-5.1,4.8-10.2,9.6-15.2,14.3-7.6,7.2-20.2,8.2-21.7-5.3-.4-3.1.3-5.4,2-6.8,7-5.1,14-10.8,21.2-16.9,2-1.7,4.8-3.4,8.5-5.3,11.8-5.8,23.3-2,31,8.6h0Z"/>
  <path style="fill:#a63d30" d="M503,226.9c-1,11.6-8.5,18.1-22.7,19.7-11.2,1.2-20.6.7-28.2-1.7-8.5-2.6-13.2-8.6-14.1-18h65s0,0,0,0Z"/>
  <path style="fill:#a63d30" d="M270.8,251.1c4.6,8,10.1,15,16.5,21.2,3.7,3.5,7.7,6.7,12,9.4,10.4,6.5,24.4,16.1,23.7,30.1-.6,10.6-6.2,18.4-16.9,23.5-12.7,6-25.8,11.2-36.9,19.8-14.7,11.3-27.1,25.6-37.3,42.6-3.4,5.7-5.9,11.4-6.4,18.1-1,12.6-1.1,25.2-17.8,25.8-6.6.2-13,.2-19.3,0-15-.6-29.7-.8-43.9-.6-1.5,0-2.9.9-3.5,2.4-1,2.3-1.5,4.7-1.6,7.1-.2,8.7-.4,18.6-.6,29.6,0,4.8,2.5,8.4,6.4,10.8,9.7,6,22.3,13.3,26.3,24,3.9,10.3-6.6,22.9-16.3,25.6-18.1,5-32.3-5.2-45.3-16.1-3.8-3.2-8.2-4.8-13.2-4.9-2.7,0-5.3-.4-8-1-.9-84.1,21.7-168.4,70.3-237.4.7-1,2-1.3,3-.6,10.6,6.4,21.5,12.5,32.8,18.4,16.4,8.6,38.1,17.5,52,.2,2.5-3.1,4.8-6.9,6.8-11.4,5.5-12,11.2-24.2,17.1-36.7h0Z"/>
  <path style="fill:#fff" d="M519.3,406.4c.1-13,8.2-28.9,15.8-38.7,16-20.8,42.4-44.6,69.1-45.6,7.6-.3,15.5-.4,23.7-.3,1.9,0,3.8-.5,5.5-1.4,4.9-2.8,10-6.2,15.2-10.3,8.6-6.7,16.5-13.8,23.7-21.2,8.8-3.7,21.2-1.1,18.2,10.9-1.6,6.4-8.2,11.5-13.3,15.6-12.9,10.5-26.5,21.1-42.7,24.7-9.3,2.1-19.1,1.3-28.7,1.9-9.8.6-19.1,7.2-27,13.7-16,13.1-29.8,26.7-38.3,45.9-.5,1.2-1.6,2.2-2.9,2.6-5.7,1.8-11.8,2.6-18.4,2.4h0Z"/>
  <path style="fill:#fff" d="M748.9,409c3.3,8.2.7,13.8-7.9,16.8-5.5,1.9-10.5,1.7-15-.5.4-9.8,5.8-15.4,16.3-16.9,2.5-.4,4.7-.2,6.6.5h0Z"/>
  <path style="fill:#fff" d="M761.1,453c4-.4,8.9-1.1,11.9,2,2.4,2.4,3.3,5.5,2.9,9.4-.3,3.2-1.7,6.9-4.1,11-3.2,6.2-8.2,11.9-15.2,17.2-5.2,3-9,4.7-11.2,5-24.2,3.6-48.3,1.3-72.4-7-15.2-5.2-29.7-11.6-44.4-18.1-11.8-5.2-21-8.8-33.2-.8-13.9,9.1-27.2,20.7-39.8,34.9-15.8,17.8-24,37.7-28.8,60.5-2,9.2-12.9,10.6-20.9,7.9-.9-10.3.5-21.5,4.1-33.6,5.2-17.2,12.7-31.6,22.5-43.1,14.6-17.2,31.6-31.7,51-43.5,15.9-9.7,32.2-11,48.7-3.7,18.2,8,35.3,15.1,51.2,21.3,13.5,5.2,29.1,7.5,46.7,6.8,5.2-.2,9.8-2.2,13.7-6,6.5-6.2,11.9-12.8,16.2-19.6.2-.4.6-.5,1.1-.4h0Z"/>
  <path style="fill:#253e34" d="M756.6,492.5c13.2,25.6,25.2,51.8,35.8,78.5,2.9,7.2,7.2,16.5,16.3,16.7,7.3.1,14.5-.8,21.6,1.8,8.3,3.1,13.8,8.3,16.6,15.7,5.9,15.8-3.4,27.6-16.8,34.4-7.4,3.8-15.1,7.8-23.1,11.9-13,6.7-18.8,17.5-18.9,32.5-.1,21.7-.1,44.2.5,66.2.2,5.6-.6,10.1-2.3,13.5-7.8,16-28.8,15.7-35.5,32.1-4.8,11.8-10.3,23.3-20.3,31.4-18.9,15.3-42.3,18.6-63.4,4.9-16.4-10.7-26.2-24.7-28.4-44.5-.8-7.2-1.2-12.7-1.1-16.6,9.5.4,22.4-1.8,22.4-13.7,0-32.5,0-64.5,0-96,0-2.3-1.1-3.8-3.2-4.6-6.7-2.4-12.6-1.1-17.7,3.8-3-4-6.2-6.2-9.7-6.9-5.7-1-11.3-1.1-17-.1-10.2,1.8-19.8,2-28.8.8-5.7-.7-11.7-3.5-16.5-6.5-14.3-9-26.9-18.8-37.6-29.4-9.7-9.5-17.2-21.4-22.6-35.8-1-2.7-1.2-5.2-.8-7.8,8,2.7,18.9,1.2,20.9-7.9,4.9-22.8,13.1-42.8,28.8-60.5,12.6-14.2,25.8-25.8,39.8-34.9,12.1-7.9,21.4-4.4,33.2.8,14.7,6.5,29.2,12.8,44.4,18.1,24.1,8.3,48.2,10.7,72.4,7,2.2-.4,6-2,11.2-5h0Z"/>
  <path style="fill:#021a24" d="M57.5,552.1c.7,9.6,1.8,19.1,3.5,28.6,8.5,47.6,22.7,94.4,45.4,136.7,39.5,73.7,95.2,135,165.2,180.1,67.8,43.8,142.3,68.1,223.6,73.1.6,0,.9.4.9,1v50.9c0,.6-.3,1-.9,1.1-2.1.4-4.2.5-6.3.4-39.7-2-78.1-8.5-115-19.5-43.6-13-83.4-30.2-119.1-51.5-56.7-33.8-107.4-76.4-146.8-128.8-6.1-8.1-12.4-16.8-19-26.3-33.8-48.4-58.2-101.1-73.2-158-10-35.8-15-77.5-15.7-117.4,0-.4.3-.7.7-.7h53.7c.8,0,1.4.5,1.5,1.3l1.6,29.1h0Z"/>
  <path style="fill:#021a24" d="M1016.9,597.3c-6.3,33.9-14.4,64.3-24.4,91.3-13.5,36.4-32.4,72.1-56.8,107.2-14.3,20.7-26.9,37.4-37.7,50.1-59.5,69.9-139,121.2-227.1,152.2-35.8,12.6-71.7,20.5-107.8,23.7-10.8,1-21.7,1.7-32.9,2.2-.8,0-1.4-.5-1.5-1.3h0c0,0-.4-51.1-.4-51.1,0-.8.4-1.2,1.1-1.2,20.8-.4,43.6-3.4,68.3-9.1,41.7-9.6,79.9-23.1,114.6-40.5,29.6-14.9,56.7-33.4,82.9-54.5,23.9-19.2,44.7-39.5,62.4-61,37-44.8,65.7-92.9,85-147.3,10.5-29.5,17.4-59.5,20.8-89.9,2.3-15.4,3.6-30.4,3.8-45.1,0-1,.5-1.5,1.5-1.5h53.8c.9,0,1.6.7,1.6,1.6h0c-.6,25-3,49.7-7.1,74.1h0Z"/>
  <path style="fill:#fff" d="M637.5,770.9c0-55.3,0-90.7,0-106.1,0-1.7.5-3.2,1.4-4.4,5.1-4.9,11-6.2,17.7-3.8,2.1.8,3.2,2.3,3.2,4.6,0,31.5,0,63.5,0,96,0,11.9-13,14.1-22.4,13.7h0Z"/>
  <path style="fill:#a63d30" d="M252.7,529.3c7.3,3.3,14.2,8,20.7,14,3,2.8,5.9,5.4,8.7,7.6,5.9,4.8,13.9,10,21.6,10.4,7,.4,14.6.6,22.8.6,4.6,0,8.7,2.3,12.1,5.2,5.2,4.5,10.7,9,16.3,13.5,11.8,9.6,25.3,17.1,37.9,25.8,9.6,6.5,16.3,14.2,16.2,26.2-.2,15.5-.2,32.8,0,52,0,11.8-5.5,21.8-15.5,28.1-9,5.6-18.5,11.3-28.5,17.2-5.6,3.3-9.6,8.4-11,14.9-2,9.3-6,15.9-14.2,21.6-7.2,5-17.6,10.4-17.9,20.1-.4,12-.5,22.6-.4,31.8.1,14.9-12.9,23.8-26.3,16-23.8-13.7-44.4-35.2-43.9-63.2,0-.7.4-1.3,1.1-1.9,8.6,2.9,21.2-.3,21.5-11.3.2-12.3,0-23.7-.5-34,0-1-.8-1.8-1.8-1.8-6-.2-12.3.7-19.1,2.7-.3-2.1-.6-4.2-.7-6.2-.4-8-4.2-14.6-10.7-19.1-8.4-6-17.1-12-26-18.1-13.5-9.3-22.2-21.4-26.2-36.3,2-.2,3.9-.4,5.7-.4,2.3,0,4.2-.3,5.6-1,3.6-1.8,5.6-4.8,5.9-9.2.4-5.4.7-11.2.8-17.3.3-17.6,3.2-34.2,8.9-49.9,6.4-17.7,18.8-30.4,37.2-38h0Z"/>
</svg>